<svg xmlns="http://www.w3.org/2000/svg" xmlns:xlink="http://www.w3.org/1999/xlink" viewBox="0 0 840 288"><defs><radialGradient id="名称未設定グラデーション_2" cx="421.51" cy="177.22" r="256.85" gradientUnits="userSpaceOnUse"><stop offset="0" stop-color="#685a39"/><stop offset="0.24" stop-color="#ebcc5e"/><stop offset="0.25" stop-color="#fff"/><stop offset="0.76" stop-color="#d5b345"/><stop offset="0.78" stop-color="#fff"/><stop offset="1" stop-color="#ebcc5e"/></radialGradient><linearGradient id="名称未設定グラデーション_13" x1="59.14" y1="177.22" x2="783.89" y2="177.22" gradientUnits="userSpaceOnUse"><stop offset="0" stop-color="#685a39"/><stop offset="0.24" stop-color="#ebcc5e"/><stop offset="0.3" stop-color="#fff"/><stop offset="0.76" stop-color="#d5b345"/><stop offset="0.78" stop-color="#fff"/><stop offset="1" stop-color="#ebcc5e"/></linearGradient></defs><title>coupon</title><g id="レイヤー_2" data-name="レイヤー 2"><g id="レイヤー_19" data-name="レイヤー 19"><rect width="840" height="288" fill="#b9694b"/><rect x="289" y="-263" width="262" height="814" transform="translate(564 -276) rotate(90)" fill="#e8dcc9"/><path d="M139,226a17.53,17.53,0,0,1,2.11.15c.19,0,.29.1.29.24a1.05,1.05,0,0,1-.14.4,5.52,5.52,0,0,0-.11,1.53v4.29h3.21l2.62,0c.12,0,.19,0,.21,0a.36.36,0,0,1,0,.19l0,2.31v5.36l0,2.6c0,.09,0,.14-.05.16a.36.36,0,0,1-.19,0h-1.63c-.14,0-.21-.06-.21-.19v-.7h-9.53l-2.65,0a.3.3,0,0,1-.19,0,.32.32,0,0,1,0-.17V240.7a.37.37,0,0,1,0-.2.62.62,0,0,1,.18,0l2.65,0h9.53v-2.19h-8.55l-2.64,0c-.11,0-.17,0-.19,0s0-.08,0-.16v-1.41c0-.1,0-.16,0-.18a.31.31,0,0,1,.18,0l2.64,0h8.55v-2.14h-9.42l-2.61,0a.38.38,0,0,1-.19,0,.36.36,0,0,1,0-.18v-1.48a.28.28,0,0,1,.05-.2.29.29,0,0,1,.17,0l2.61,0h3.39V228.3A20.29,20.29,0,0,0,139,226Zm-3.74,1.17a17.32,17.32,0,0,1,2.14,3.65.85.85,0,0,1,0,.15q0,.08-.24.21l-1.28.67a.66.66,0,0,1-.24.09s-.1,0-.15-.15a14.64,14.64,0,0,0-2-3.68.25.25,0,0,1-.07-.15c0-.05.07-.11.21-.17l1.26-.65a.55.55,0,0,1,.22-.09Q135.21,227,135.28,227.15Zm7.44,4a15.5,15.5,0,0,0,2.13-3.41,4.53,4.53,0,0,0,.28-.8,11.71,11.71,0,0,1,1.82.86q.21.1.21.27c0,.06-.06.14-.19.26a1.32,1.32,0,0,0-.33.45,19.68,19.68,0,0,1-1.8,2.91q-.28.36-.39.36a1.13,1.13,0,0,1-.46-.23A8.12,8.12,0,0,0,142.72,231.12Z" fill="#723d31"/><path d="M156.66,229.66v2.39a35.19,35.19,0,0,1-.42,6.13,16.11,16.11,0,0,1-1.54,4.37c-.14.25-.25.38-.31.38s-.18-.11-.39-.31a6.19,6.19,0,0,0-1.29-1.12,12.5,12.5,0,0,0,1.58-4.14,30.14,30.14,0,0,0,.41-5.69l0-3.59c0-.13.06-.2.19-.2l2.6,0h3.65v-.63a8.75,8.75,0,0,0-.11-1.53c.7,0,1.37.06,2,.11.21,0,.31.09.31.21a.6.6,0,0,1-.12.36,1.8,1.8,0,0,0-.13.82v.66h4.15l2.58,0a.18.18,0,0,1,.19.2v1.41c0,.14-.07.21-.19.21l-2.58,0Zm2.68,13.45h-1.47c-.11,0-.17,0-.19,0a.29.29,0,0,1,0-.17l0-3v-1.38l0-2c0-.1,0-.16,0-.18a.29.29,0,0,1,.17,0l2.56,0h1.12V232.5a18.71,18.71,0,0,0-.11-2.3c.8,0,1.45.07,2,.13.22,0,.33.09.33.19a1,1,0,0,1-.13.42,4.92,4.92,0,0,0-.13,1.47v.11h3.21l2.56,0c.1,0,.16,0,.18,0a.47.47,0,0,1,0,.16v1.41a.31.31,0,0,1,0,.18.34.34,0,0,1-.17,0l-2.56,0h-3.21v2.08h2.1l2.57,0c.1,0,.16,0,.19,0s0,.08,0,.17l0,1.7v1.58l0,3c0,.12-.07.19-.21.19h-1.54c-.14,0-.21-.07-.21-.19v-.48h-6.82v.57c0,.1,0,.16,0,.18A.31.31,0,0,1,159.34,243.11Zm.22-5.1v2.6h6.82V238Z" fill="#723d31"/><path d="M178.22,243.12h-1.67a.29.29,0,0,1-.17,0,.31.31,0,0,1,0-.18l0-6.2V233.2l0-4.72a.31.31,0,0,1,0-.18.62.62,0,0,1,.18,0l2.67,0h1.25a14.17,14.17,0,0,0,.71-1.78,5,5,0,0,0,.21-.9c.52.05,1.21.15,2,.29.18,0,.27.12.27.25a.42.42,0,0,1-.15.26,1.63,1.63,0,0,0-.29.46c-.23.55-.45,1-.66,1.42h3.74l2.68,0a.31.31,0,0,1,.18,0,.35.35,0,0,1,0,.17l0,4.2v4l0,6.18a.38.38,0,0,1,0,.19.54.54,0,0,1-.17,0h-1.71c-.11,0-.17,0-.19,0a.29.29,0,0,1,0-.17V242h-8.67v.89c0,.1,0,.16,0,.18A.31.31,0,0,1,178.22,243.12Zm.22-13v2.07h8.67v-2.07Zm0,6h8.67V234h-8.67Zm0,4.07h8.67v-2.28h-8.67Z" fill="#723d31"/><path d="M196,229.8l.86.18a.31.31,0,0,1,.27.31,16.79,16.79,0,0,1-.62,4.14c0,.11-.06.16-.11.16l-.21-.06-.89-.38c-.15-.07-.23-.15-.23-.23a.49.49,0,0,1,0-.15,16.7,16.7,0,0,0,.59-3.84c0-.11,0-.17.09-.17Zm1.37-4c.68,0,1.33.06,1.94.13.21,0,.31.09.31.19a1.35,1.35,0,0,1-.11.38,8.18,8.18,0,0,0-.14,2.11v11l0,3.34q0,.21-.18.21h-1.53c-.11,0-.18,0-.2,0a.29.29,0,0,1,0-.17l0-3.32v-11A26.74,26.74,0,0,0,197.37,225.85Zm3.1,3.53.19,0c.05,0,.1,0,.14.14a11.43,11.43,0,0,1,.75,2.27.34.34,0,0,1,0,.13c0,.09-.08.17-.23.23l-.79.3a.66.66,0,0,1-.23.07s-.09-.06-.12-.18a10.21,10.21,0,0,0-.63-2.31.41.41,0,0,1,0-.15c0-.07.07-.13.21-.19ZM213,241.44a3.34,3.34,0,0,0-.57,1.2,1.51,1.51,0,0,1-.18.45.31.31,0,0,1-.25.1l-.39,0a18.13,18.13,0,0,1-5.1-1.25,22,22,0,0,1-5.13,1.3l-.35,0a.29.29,0,0,1-.27-.12,1.51,1.51,0,0,1-.18-.41,4.06,4.06,0,0,0-.6-1,22.36,22.36,0,0,0,4.76-.74,9.09,9.09,0,0,1-2.23-2.23l-.95,0h-.32c-.1,0-.16,0-.18,0a.47.47,0,0,1,0-.16v-1a.18.18,0,0,1,.2-.19l2.48,0h5.7a.75.75,0,0,0,.32-.05l.08,0,.15,0c.18,0,.41.16.7.49s.5.63.5.76-.08.19-.24.26l-.63.58a11.27,11.27,0,0,1-1.88,1.57A20.14,20.14,0,0,0,213,241.44Zm-9.33-9h5.81l2.64,0c.12,0,.18,0,.21,0a.31.31,0,0,1,0,.18l0,1.2v1.21l0,1.22c0,.1,0,.16,0,.18a.34.34,0,0,1-.2,0l-2.64,0h-5.81l-2.61,0a.36.36,0,0,1-.21,0,.34.34,0,0,1,0-.18l0-1.22v-1.21l0-1.2c0-.11,0-.17,0-.19a.36.36,0,0,1,.19,0Zm1.06-.83-2.34,0c-.11,0-.17,0-.19,0a.31.31,0,0,1,0-.18l0-1.54V228l0-1.52c0-.1,0-.16,0-.18a.34.34,0,0,1,.18,0l2.34,0h3.61l2.34,0c.1,0,.17,0,.19,0a.49.49,0,0,1,0,.17l0,1.52v1.9l0,1.54a.36.36,0,0,1,0,.19.36.36,0,0,1-.18,0l-2.34,0Zm-2.14,3.62h1.52v-1.59h-1.52Zm1.46-7.66v.82H209v-.82Zm4.94,2.77v-.83h-4.94v.83Zm-.36,8.32h-4.18a6.54,6.54,0,0,0,2.14,1.54A5.9,5.9,0,0,0,208.65,238.7Zm-2.86-3.43h1.55v-1.59h-1.55Zm4.8,0v-1.59H209v1.59Z" fill="#723d31"/><path d="M226.42,230.1a23,23,0,0,1-2.41,8.19,3.74,3.74,0,0,1-3.27,2.19,3,3,0,0,1-2.46-1.45,5.92,5.92,0,0,1-.94-3.43,6.78,6.78,0,0,1,2.17-4.95,8.52,8.52,0,0,1,6.25-2.43,7.42,7.42,0,0,1,5.63,2.12,6.2,6.2,0,0,1,1.69,4.47q0,5.16-5.92,6.92a1.28,1.28,0,0,1-.28.05c-.19,0-.37-.13-.55-.39a3.9,3.9,0,0,0-1.34-1.2,9.56,9.56,0,0,0,4.32-2,4.83,4.83,0,0,0,1.48-3.72,4.32,4.32,0,0,0-1.34-3.21,4.08,4.08,0,0,0-3-1.2Zm-2.24.12a5.85,5.85,0,0,0-3.28,1.72,5.18,5.18,0,0,0-1.51,3.52,4,4,0,0,0,.48,2.1c.25.41.53.62.83.62.52,0,1-.39,1.44-1.16a16.36,16.36,0,0,0,1.29-3.27A23.72,23.72,0,0,0,224.18,230.22Z" fill="#723d31"/><path d="M248.77,237.63v-6.22h-6.71c-1.25,0-2.22,0-2.88.11-.2,0-.3-.1-.3-.32a19.57,19.57,0,0,1-.09-2c.9.08,2,.13,3.21.13h5.71c.67,0,1.68,0,3-.08.26,0,.38.09.38.27v.06l0,3v4.55c0,.9,0,2,.07,3.43,0,.16-.11.25-.34.27s-.55,0-.85,0-.58,0-.84,0a.62.62,0,0,1-.31-.07.36.36,0,0,1-.06-.25v-.76h-6.61l-1.79,0-1.36,0c-.17,0-.26-.1-.28-.29a18.21,18.21,0,0,1-.09-2q1.5.09,3.54.09Z" fill="#723d31"/><path d="M257.15,233.41a29.41,29.41,0,0,0,4.15.23h6.19l2.35,0,2.07,0h.1c.17,0,.25.09.25.27s0,.59,0,.9,0,.6,0,.89-.09.29-.27.29h-.08l-4.29,0H260.7l-2.82.24a.42.42,0,0,1-.44-.4A16.42,16.42,0,0,1,257.15,233.41Z" fill="#723d31"/><path d="M280.64,233.1a39.92,39.92,0,0,0,4.78-1.85,6.66,6.66,0,0,0,2.06-1.36,9.92,9.92,0,0,1,1.6,1.71.5.5,0,0,1,.15.34c0,.17-.11.29-.32.34a13.39,13.39,0,0,0-1.6.63,51.07,51.07,0,0,1-6.7,2.35v2.53a2.33,2.33,0,0,0,.15,1,.8.8,0,0,0,.5.35,10.06,10.06,0,0,0,2.41.21,35,35,0,0,0,5.42-.44h.13c.13,0,.2.09.22.28a15,15,0,0,1,.11,1.65c0,.21-.13.32-.4.34a46.45,46.45,0,0,1-5.71.35,10,10,0,0,1-3.66-.51c-.91-.38-1.36-1.33-1.36-2.86v-7a23.42,23.42,0,0,0-.19-3.48,17.13,17.13,0,0,1,2.42.38c.21.05.31.15.31.32a.71.71,0,0,1-.14.39,4.94,4.94,0,0,0-.18,1.71Z" fill="#723d31"/><path d="M294.69,233.41a29.51,29.51,0,0,0,4.15.23H305l2.34,0,2.08,0h.09a.24.24,0,0,1,.26.27c0,.29,0,.59,0,.9s0,.6,0,.89a.25.25,0,0,1-.28.29h-.07l-4.29,0h-6.92l-2.83.24a.43.43,0,0,1-.44-.4A18.09,18.09,0,0,1,294.69,233.41Z" fill="#723d31"/><path d="M320.29,226.07a10.41,10.41,0,0,1,2.19.54.31.31,0,0,1,.24.32.36.36,0,0,1-.13.28,1.19,1.19,0,0,0-.33.45l-.13.28c-.11.27-.22.52-.32.75a31.88,31.88,0,0,0,3.5-.59h.11c.1,0,.17.07.2.21a6,6,0,0,1,.19,1.36v.05c0,.14-.11.22-.32.26-1.5.21-3,.4-4.51.57a24.72,24.72,0,0,1-1.44,2.11l0,0a3.51,3.51,0,0,1,1.93-.58,2.1,2.1,0,0,1,2.33,2.05c1.32-.6,2.26-1.05,2.84-1.34a5.57,5.57,0,0,0,1.45-1,10.75,10.75,0,0,1,1.36,1.67.83.83,0,0,1,.15.42c0,.14-.1.23-.29.27a5.8,5.8,0,0,0-1.18.29c-1.88.65-3.26,1.16-4.13,1.51V239c0,.19-.12.31-.37.34a8.19,8.19,0,0,1-1.36.1c-.16,0-.25-.11-.25-.31,0-1.09,0-1.86,0-2.31a5.81,5.81,0,0,0-1.87,1.33,1.8,1.8,0,0,0-.45,1.19c0,.88.89,1.31,2.67,1.31a33.59,33.59,0,0,0,4.78-.38h.06c.13,0,.19.07.21.21a7.05,7.05,0,0,1,.18,1.56v.07c0,.19-.08.29-.22.29a39.65,39.65,0,0,1-4.76.25q-4.83,0-4.83-3.14a3.69,3.69,0,0,1,1.07-2.59,11.12,11.12,0,0,1,3-2,1.85,1.85,0,0,0-.29-1,.93.93,0,0,0-.75-.27h-.11a4.79,4.79,0,0,0-2.66,1.38,27.2,27.2,0,0,0-1.93,2.07c-.09.11-.17.16-.23.16a.36.36,0,0,1-.21-.13,8.59,8.59,0,0,1-1.1-1.25.32.32,0,0,1-.07-.18.28.28,0,0,1,.13-.2,19.63,19.63,0,0,0,4-4.71c-.9,0-1.92,0-3.08,0-.14,0-.24-.1-.27-.3s-.11-.77-.19-1.57c.61,0,1.26,0,1.93,0,.82,0,1.65,0,2.49-.07a16,16,0,0,0,.57-1.63A4.55,4.55,0,0,0,320.29,226.07Z" fill="#723d31"/><path d="M339.29,230.58l0-2.17a6.86,6.86,0,0,0-.14-1.53,10.49,10.49,0,0,1,2.29.33c.25.07.38.19.38.36a.72.72,0,0,1-.11.31,2,2,0,0,0-.27.74c0,.37-.07.89-.1,1.58a20.48,20.48,0,0,0,2.47-.7l.13,0c.12,0,.18.07.2.2a8.85,8.85,0,0,1,.11,1.47.3.3,0,0,1-.25.31,26.42,26.42,0,0,1-2.75.72l0,2.76a11.69,11.69,0,0,1,4.73-1.05,4.16,4.16,0,0,1,3.08,1.19,3.53,3.53,0,0,1,1,2.6,3.6,3.6,0,0,1-1.26,3,4.45,4.45,0,0,1-2.91.89,7.11,7.11,0,0,1-1.58-.16.54.54,0,0,1-.42-.58,3.18,3.18,0,0,0-.58-1.6,7.87,7.87,0,0,0,2.4.33,2.12,2.12,0,0,0,1.51-.54,1.82,1.82,0,0,0,.56-1.42,1.78,1.78,0,0,0-.63-1.48,2.29,2.29,0,0,0-1.48-.44,10.07,10.07,0,0,0-4.4,1.3c0,.81,0,1.57.07,2.28.11,1.48.16,2.3.16,2.47a2.89,2.89,0,0,1,0,.41.34.34,0,0,1-.27.21,7,7,0,0,1-1.42.24c-.12,0-.28-.12-.46-.39a11.13,11.13,0,0,0-2.74-2.43,3.62,3.62,0,0,0-.61.42.44.44,0,0,1-.33.13.53.53,0,0,1-.42-.3,17.63,17.63,0,0,1-.88-1.77,6.47,6.47,0,0,0,1.76-.67c.59-.31,1.63-.9,3.14-1.76v-3.24c-1.28.09-2.36.14-3.23.14a.41.41,0,0,1-.46-.4c-.05-.3-.12-.85-.22-1.65a9.45,9.45,0,0,0,1.51.1C337.4,230.73,338.21,230.68,339.29,230.58Zm0,7.2c-.81.54-1.44,1-1.87,1.29a19.86,19.86,0,0,0,1.8.85l.1,0a.1.1,0,0,0,.1-.11s0,0,0-.06c0-.19,0-.53-.06-1S339.36,237.93,339.34,237.78Zm6.43-7.2a12.11,12.11,0,0,1,.89-1.49c.1-.16.18-.24.25-.24H347a9.33,9.33,0,0,1,4.07,2.32.37.37,0,0,1,.11.2.62.62,0,0,1-.07.18c-.11.16-.29.4-.55.72l-.49.64a.28.28,0,0,1-.21.06.22.22,0,0,1-.18-.06A9,9,0,0,0,345.77,230.58Z" fill="#723d31"/><path d="M359.19,230.09a12,12,0,0,1,1.42.9.52.52,0,0,1,.25.39c0,.09-.07.19-.21.28a2,2,0,0,0-.54.66c-.31.5-.58.91-.81,1.22v7.14l0,2.36c0,.1,0,.16,0,.18a.28.28,0,0,1-.16,0h-1.61c-.1,0-.16,0-.18,0a.29.29,0,0,1,0-.17l0-2.36v-2.85c0-.46,0-1.15,0-2.09-.38.38-.73.7-1.06,1a1.12,1.12,0,0,1-.44.25c-.1,0-.18-.13-.25-.38a3.75,3.75,0,0,0-.67-1.39,15.86,15.86,0,0,0,3.71-4.1A5.17,5.17,0,0,0,359.19,230.09ZM359,225.9a11.63,11.63,0,0,1,1.5.89q.27.19.27.36c0,.11-.07.19-.2.25a1.61,1.61,0,0,0-.57.51,18.88,18.88,0,0,1-3.32,3.23,1.11,1.11,0,0,1-.43.24c-.08,0-.19-.15-.34-.44a3.69,3.69,0,0,0-.87-1.12,12,12,0,0,0,3.37-3A4.29,4.29,0,0,0,359,225.9Zm4.06,12.2-2.63,0c-.11,0-.17,0-.19,0a.29.29,0,0,1,0-.17v-1.28a.29.29,0,0,1,0-.18.36.36,0,0,1,.18,0l2.63,0h5.1v-1.14h-4.88l-2.62,0a.38.38,0,0,1-.2,0,.32.32,0,0,1,0-.17V233.9c0-.1,0-.16,0-.18a.36.36,0,0,1,.19,0l2.62,0h6.42l2.63,0c.13,0,.19.07.19.21v1.26c0,.14-.06.2-.19.2H372c-.57,0-1.22,0-1.93,0v1.14l2.24,0c.11,0,.17,0,.19,0a.29.29,0,0,1,0,.17v1.28a.34.34,0,0,1,0,.18s-.09,0-.19,0h-.27l-2,0V239l0,2.3a1.54,1.54,0,0,1-.66,1.43,6.1,6.1,0,0,1-2.66.36c-.31,0-.49,0-.55-.09a1.24,1.24,0,0,1-.17-.5,4.33,4.33,0,0,0-.54-1.33,14,14,0,0,0,1.66.09h.42c.36,0,.54-.19.54-.58V238.1Zm5.24-11.53,2.35,0a.3.3,0,0,1,.19,0,.29.29,0,0,1,0,.17l0,1.69v2.45l0,1.69c0,.11,0,.17,0,.19a.31.31,0,0,1-.18,0l-2.35,0h-3.74l-2.36,0a.29.29,0,0,1-.18,0,.36.36,0,0,1,0-.18l0-1.69v-2.45l0-1.69c0-.1,0-.16,0-.18a.29.29,0,0,1,.17,0l2.36,0Zm-4.51,11.87a10.74,10.74,0,0,1,1.86,2.13.33.33,0,0,1,.08.16c0,.05-.07.11-.19.2l-1.21.74a.43.43,0,0,1-.23.1c-.05,0-.1-.05-.16-.13a11.33,11.33,0,0,0-1.74-2.21q-.12-.09-.12-.15s.07-.1.19-.18l1.12-.67a.45.45,0,0,1,.2-.09A.34.34,0,0,1,363.8,238.44Zm.06-10.4V229H369V228ZM369,231.3v-1h-5.11v1Z" fill="#723d31"/><path d="M378.87,227.27a9.83,9.83,0,0,1,2.07.7c.29.16.44.31.44.46a1.58,1.58,0,0,1-.29.57,5.33,5.33,0,0,0-.46,1.35,28,28,0,0,0-.81,6.14,21.06,21.06,0,0,0,.11,2.21l1.31-2.83a6.88,6.88,0,0,0,.67,1.2.82.82,0,0,1,.13.29.64.64,0,0,1-.09.31,20.69,20.69,0,0,0-1.1,2.86,2.2,2.2,0,0,0-.05.6l0,.52c0,.13-.08.22-.25.26a10.54,10.54,0,0,1-1.57.3h0q-.15,0-.21-.21a12.41,12.41,0,0,1-.68-2.81,20.31,20.31,0,0,1-.2-2.85,35.44,35.44,0,0,1,.65-6.24A18,18,0,0,0,378.87,227.27Zm4.43,9.8,1.75-.15h0c.1,0,.15.1.15.29a1.63,1.63,0,0,0,.93,1.44,5.34,5.34,0,0,0,2.2.34,32.8,32.8,0,0,0,3.67-.24h.09c.1,0,.16.09.18.25a11,11,0,0,1,.12,1.63.35.35,0,0,1-.05.23.86.86,0,0,1-.28.05,25.55,25.55,0,0,1-3.14.22,10.56,10.56,0,0,1-3.4-.42,3.31,3.31,0,0,1-1.59-1.16A3.89,3.89,0,0,1,383.3,237.07Zm.61-5.39q0-1.63.06-1.86a.33.33,0,0,1,.27-.33,23,23,0,0,1,4.18-.34c1.09,0,2,0,2.84.11a1,1,0,0,1,.39.07s.05.09.05.18c0,.72,0,1.26,0,1.61q0,.24-.21.24h0c-1.15-.08-2.19-.12-3.13-.12A24.62,24.62,0,0,0,383.91,231.68Z" fill="#723d31"/><path d="M402.17,230.58l0-2.17a7,7,0,0,0-.13-1.53,10.48,10.48,0,0,1,2.28.33q.39.1.39.36a.64.64,0,0,1-.12.31,2.48,2.48,0,0,0-.27.74c0,.37-.07.89-.09,1.58a21,21,0,0,0,2.47-.7l.13,0c.11,0,.18.07.2.2a10.07,10.07,0,0,1,.11,1.47.31.31,0,0,1-.26.31,25.79,25.79,0,0,1-2.75.72l0,2.76a11.66,11.66,0,0,1,4.73-1.05,4.17,4.17,0,0,1,3.08,1.19,3.56,3.56,0,0,1,1,2.6,3.6,3.6,0,0,1-1.26,3,4.44,4.44,0,0,1-2.91.89,7,7,0,0,1-1.57-.16.54.54,0,0,1-.43-.58,3.09,3.09,0,0,0-.58-1.6,7.91,7.91,0,0,0,2.4.33,2.14,2.14,0,0,0,1.52-.54,1.86,1.86,0,0,0,.56-1.42,1.78,1.78,0,0,0-.63-1.48,2.31,2.31,0,0,0-1.48-.44,10.15,10.15,0,0,0-4.41,1.3c0,.81.05,1.57.08,2.28.11,1.48.16,2.3.16,2.47a1.64,1.64,0,0,1,0,.41.32.32,0,0,1-.26.21,7.15,7.15,0,0,1-1.42.24c-.12,0-.28-.12-.47-.39a11.05,11.05,0,0,0-2.73-2.43,3.26,3.26,0,0,0-.61.42.44.44,0,0,1-.33.13.51.51,0,0,1-.42-.3,15.65,15.65,0,0,1-.88-1.77,6.59,6.59,0,0,0,1.76-.67c.58-.31,1.63-.9,3.14-1.76v-3.24c-1.29.09-2.36.14-3.23.14a.41.41,0,0,1-.46-.4c-.05-.3-.13-.85-.22-1.65a9.32,9.32,0,0,0,1.5.1C400.28,230.73,401.1,230.68,402.17,230.58Zm.06,7.2c-.81.54-1.44,1-1.88,1.29.67.35,1.27.63,1.8.85l.11,0c.06,0,.09,0,.09-.11a.13.13,0,0,0,0-.06c0-.19,0-.53,0-1S402.24,237.93,402.23,237.78Zm6.43-7.2a11.93,11.93,0,0,1,.88-1.49c.1-.16.19-.24.26-.24h.07a9.31,9.31,0,0,1,4.08,2.32.37.37,0,0,1,.11.2.86.86,0,0,1-.08.18c-.1.16-.29.4-.54.72l-.5.64s-.1.06-.21.06-.15,0-.17-.06A9.09,9.09,0,0,0,408.66,230.58Z" fill="#723d31"/><path d="M421.27,238.05l-2.46,0a.38.38,0,0,1-.19,0,.35.35,0,0,1,0-.17v-1.34a.36.36,0,0,1,0-.19.36.36,0,0,1,.18,0l2.46,0h4.53a9.06,9.06,0,0,0-.13-1.26l2.06.12c.19,0,.29.09.29.21a.43.43,0,0,1-.06.17.51.51,0,0,0-.06.15,1.81,1.81,0,0,0-.1.61h4.83l2.44,0c.11,0,.18,0,.21,0a.31.31,0,0,1,0,.18v1.34a.27.27,0,0,1,0,.17.4.4,0,0,1-.2,0l-2.44,0h-3.46a16.43,16.43,0,0,0,6.65,3,4.84,4.84,0,0,0-.79,1.23c-.14.32-.27.48-.38.48a1.47,1.47,0,0,1-.46-.12,14.71,14.71,0,0,1-6.42-4l.09,4.28c0,.1,0,.16,0,.18a.49.49,0,0,1-.17,0H426c-.1,0-.17,0-.18,0a.32.32,0,0,1,0-.17c0-.09,0-.33,0-.72,0-1.19,0-2.33,0-3.43a14.81,14.81,0,0,1-6.13,3.82,2.7,2.7,0,0,1-.46.13c-.1,0-.23-.16-.38-.49a4.52,4.52,0,0,0-.75-1.19,15.4,15.4,0,0,0,6.38-3.08Zm1.23-6.91c0,.11.14.51.37,1.21a1.92,1.92,0,0,1,.11.47c0,.11-.14.26-.4.44-.76.51-1.57,1-2.45,1.52a1.22,1.22,0,0,0-.51.42.29.29,0,0,1-.24.16.33.33,0,0,1-.27-.18,10.1,10.1,0,0,1-.78-1.77,8.69,8.69,0,0,0,1.21-.48A20.08,20.08,0,0,0,422.5,231.14ZM420.15,227a14.2,14.2,0,0,1,2.46,2c.07.07.11.12.11.16a.57.57,0,0,1-.14.24l-.92,1c-.1.12-.17.17-.22.17s-.09,0-.15-.11a15.51,15.51,0,0,0-2.45-2.17c-.09-.06-.13-.11-.13-.15s.05-.11.16-.21l.9-.93c.12-.11.19-.17.22-.17A.33.33,0,0,1,420.15,227Zm7.93.8,2,0a.31.31,0,0,1,.18,0,.39.39,0,0,1,0,.18l0,1.83v3l0,1.8c0,.11,0,.17,0,.19a.32.32,0,0,1-.17,0l-2,0h-2.39l-1.95,0a.42.42,0,0,1-.21,0,.37.37,0,0,1,0-.18l0-1.8v-3l0-1.83c0-.1,0-.17,0-.18a.38.38,0,0,1,.19,0l1.73,0c.14-.33.28-.68.4-1a5.05,5.05,0,0,0,.19-.94c.86.09,1.48.16,1.86.23.17,0,.25.11.25.22a.34.34,0,0,1-.15.27,1.27,1.27,0,0,0-.25.44,8.69,8.69,0,0,1-.37.83Zm.42,1.43h-3.23v1.34h3.23Zm0,4.13V232h-3.23v1.38Zm2.13-3.68a11.49,11.49,0,0,0,2.31-2.1,3.24,3.24,0,0,0,.57-.81,10.37,10.37,0,0,1,1.39,1c.17.17.26.29.26.35s-.09.19-.26.27a1.49,1.49,0,0,0-.53.41,19,19,0,0,1-1.93,1.75c-.21.19-.36.29-.44.29s-.21-.13-.42-.37A4.79,4.79,0,0,0,430.63,229.67Zm1.31,1.65a25.15,25.15,0,0,1,3.4,2.07c.08.06.12.12.12.17a.48.48,0,0,1-.1.21l-.75,1.2c-.07.13-.14.19-.19.19a.3.3,0,0,1-.18-.09,20,20,0,0,0-3.38-2.23c-.09-.05-.14-.11-.14-.16a.37.37,0,0,1,.11-.2l.77-1c.07-.12.13-.18.19-.18A.45.45,0,0,1,431.94,231.32Z" fill="#723d31"/><path d="M441.38,226.76a23.38,23.38,0,0,1,2.4.34c.31.07.46.19.46.36a2.19,2.19,0,0,1-.19.63,12.58,12.58,0,0,0-.27,2.31c-.19,2.93-.29,5.39-.29,7.36a3.38,3.38,0,0,0,.36,2,1.88,1.88,0,0,0,1.41.39,7.58,7.58,0,0,0,3.37-.93,12.86,12.86,0,0,0,3.37-2.56,6.08,6.08,0,0,0,.44,1.81,1.39,1.39,0,0,1,.15.45.9.9,0,0,1-.38.59,10.74,10.74,0,0,1-3.74,2.22,10.51,10.51,0,0,1-3.55.63,3.56,3.56,0,0,1-2.84-1,4.44,4.44,0,0,1-.77-2.91c0-1.18.09-3.91.27-8.21,0-.64,0-1.08,0-1.31A8.76,8.76,0,0,0,441.38,226.76Z" fill="#723d31"/><path d="M468.65,234.66a20.86,20.86,0,0,0,.4-2.45,5.21,5.21,0,0,0,0-.55,6.89,6.89,0,0,0-.05-.74,8,8,0,0,1,2.23.82.34.34,0,0,1,.19.32.36.36,0,0,1-.05.19,4.34,4.34,0,0,0-.31.74c-.12.6-.3,1.42-.54,2.45a19.23,19.23,0,0,1,3,1.83.24.24,0,0,1,.16.2,1.36,1.36,0,0,1,0,.2,13.8,13.8,0,0,1-.83,1.63.21.21,0,0,1-.18.13.35.35,0,0,1-.22-.13,16.09,16.09,0,0,0-2.53-1.79,14.17,14.17,0,0,1-1.73,3,12.47,12.47,0,0,1-2.15,2,.86.86,0,0,1-.39.21.58.58,0,0,1-.28-.13,4.37,4.37,0,0,0-1.68-.79,12.91,12.91,0,0,0,2.92-2.64,9.83,9.83,0,0,0,1.39-2.51,13,13,0,0,0-3.8-1.16,15.52,15.52,0,0,1-2.35,3.81,3.27,3.27,0,0,1-2.46,1,2.14,2.14,0,0,1-1.65-.7,2.72,2.72,0,0,1-.64-1.91,3.65,3.65,0,0,1,1.84-3.13,6.73,6.73,0,0,1,3.83-1.07q1-2.37,1.6-4.5l-2.65.3a3.94,3.94,0,0,0-.87.22,1,1,0,0,1-.35.07.29.29,0,0,1-.3-.21,11.16,11.16,0,0,1-.57-2.07,6.85,6.85,0,0,0,1.33.12h.36a21.6,21.6,0,0,0,3-.25,2.54,2.54,0,0,0,.94-.32.41.41,0,0,1,.25-.08.4.4,0,0,1,.26.08,5.66,5.66,0,0,1,1.32,1,.48.48,0,0,1,.17.33c0,.09-.07.19-.19.32a1.32,1.32,0,0,0-.33.49l-.2.5c-.95,2.48-1.49,3.86-1.6,4.14A17.48,17.48,0,0,1,468.65,234.66Zm-6.57.69a4,4,0,0,0-2.43.78,1.75,1.75,0,0,0-.75,1.39c0,.58.23.87.68.87a1.53,1.53,0,0,0,1.1-.72A12,12,0,0,0,462.08,235.35Z" fill="#723d31"/><path d="M478.79,228.55a7.54,7.54,0,0,1,2.44.62c.2.09.31.2.31.34a1.69,1.69,0,0,1-.16.53,7,7,0,0,0-.17,1.86,24.22,24.22,0,0,0,.35,4.34c.33,1.86.85,2.79,1.57,2.79.33,0,.64-.22.93-.67a9.61,9.61,0,0,0,.91-2,8.59,8.59,0,0,0,1.23,1.46.51.51,0,0,1,.2.41.93.93,0,0,1-.06.3,5.29,5.29,0,0,1-1.52,2.3,2.67,2.67,0,0,1-1.74.66,2.87,2.87,0,0,1-2.3-1.45,8.23,8.23,0,0,1-1.3-3.51A32.58,32.58,0,0,1,479,231,11.83,11.83,0,0,0,478.79,228.55Zm9.84,2.69c.64-.4,1.14-.69,1.52-.88a.55.55,0,0,1,.21-.07.36.36,0,0,1,.21.11,12.54,12.54,0,0,1,3.76,6.5.3.3,0,0,1,0,.12c0,.11-.07.21-.22.3a7.34,7.34,0,0,1-1.51.76l-.16,0q-.19,0-.24-.24a15,15,0,0,0-1.42-3.82A12.48,12.48,0,0,0,488.63,231.24Z" fill="#723d31"/><path d="M505.84,229.87a28,28,0,0,0,2.74-.64l.1,0c.12,0,.18.07.2.21.07.51.12,1,.14,1.36v.09c0,.14-.1.23-.29.27a29.4,29.4,0,0,1-3.35.73q-1.9,6.13-3.52,10.28c-.05.14-.13.22-.23.22a.63.63,0,0,1-.19,0,12.62,12.62,0,0,1-1.54-.7.31.31,0,0,1-.18-.27.36.36,0,0,1,0-.11,75.74,75.74,0,0,0,3.34-9c-1.36.14-2.48.21-3.37.21a.35.35,0,0,1-.4-.31c-.07-.33-.16-.91-.27-1.73a11.3,11.3,0,0,0,1.43.06,25.52,25.52,0,0,0,3.1-.19c.15-.58.32-1.37.49-2.38a12.41,12.41,0,0,0,.11-1.74,12,12,0,0,1,2.42.53.3.3,0,0,1,.21.31.53.53,0,0,1-.09.3,7.12,7.12,0,0,0-.41.75l-.26,1.05C506,229.47,505.89,229.72,505.84,229.87Zm.35,8.72a7.43,7.43,0,0,1,1.64-.28.27.27,0,0,1,.29.26,1.68,1.68,0,0,0,.93,1.47,4.67,4.67,0,0,0,2,.33,28.34,28.34,0,0,0,3.23-.27h.07a.16.16,0,0,1,.17.17,11.62,11.62,0,0,1,.15,1.66c0,.05,0,.08,0,.1s-.1.19-.31.2a18.48,18.48,0,0,1-2.62.21,11.54,11.54,0,0,1-3.12-.32,3.59,3.59,0,0,1-1.57-.91A3.78,3.78,0,0,1,506.19,238.59Zm1.5-3.59c-.05-.89-.08-1.47-.08-1.72s0-.24.07-.28a.59.59,0,0,1,.28-.1,19.07,19.07,0,0,1,3.74-.44,13.35,13.35,0,0,1,2.26.19.56.56,0,0,1,.27.08.3.3,0,0,1,0,.2c0,.26,0,.55,0,.88s0,.4,0,.64-.07.36-.22.36l-.14,0a12.5,12.5,0,0,0-2.39-.22A20.26,20.26,0,0,0,507.69,235Z" fill="#723d31"/><path d="M526.3,229.87a27.25,27.25,0,0,0,2.73-.64l.11,0c.12,0,.18.07.2.21.07.51.12,1,.14,1.36v.09q0,.21-.3.27a29.23,29.23,0,0,1-3.34.73q-1.9,6.13-3.52,10.28c-.05.14-.13.22-.23.22a.63.63,0,0,1-.19,0,12.62,12.62,0,0,1-1.54-.7.31.31,0,0,1-.18-.27.36.36,0,0,1,0-.11,73.93,73.93,0,0,0,3.33-9c-1.35.14-2.48.21-3.36.21-.24,0-.37-.1-.4-.31s-.16-.91-.27-1.73a11.22,11.22,0,0,0,1.42.06,25.56,25.56,0,0,0,3.11-.19c.15-.58.31-1.37.49-2.38a14.13,14.13,0,0,0,.11-1.74,11.65,11.65,0,0,1,2.41.53.29.29,0,0,1,.22.31.53.53,0,0,1-.09.3,7.12,7.12,0,0,0-.41.75c-.07.25-.15.6-.26,1.05S526.35,229.72,526.3,229.87Zm.35,8.72a7.37,7.37,0,0,1,1.63-.28.26.26,0,0,1,.29.26,1.71,1.71,0,0,0,.94,1.47,4.67,4.67,0,0,0,2,.33,28.34,28.34,0,0,0,3.23-.27h.07c.1,0,.15.06.17.17a11.62,11.62,0,0,1,.15,1.66c0,.05,0,.08,0,.1s-.11.19-.31.2a18.83,18.83,0,0,1-2.68.21,11.15,11.15,0,0,1-3.06-.32,3.68,3.68,0,0,1-1.58-.91A3.78,3.78,0,0,1,526.65,238.59Zm1.5-3.59c0-.89-.08-1.47-.08-1.72s0-.24.07-.28a.59.59,0,0,1,.28-.1,19.07,19.07,0,0,1,3.74-.44,13.14,13.14,0,0,1,2.25.19.67.67,0,0,1,.28.08.3.3,0,0,1,0,.2c0,.26,0,.55,0,.88s0,.4,0,.64-.07.36-.22.36l-.15,0a12.32,12.32,0,0,0-2.38-.22A20.26,20.26,0,0,0,528.15,235Zm3.34-6.44,1-.7a.21.21,0,0,1,.12-.05.31.31,0,0,1,.17.09,7.91,7.91,0,0,1,1.82,2,.24.24,0,0,1,.06.14.21.21,0,0,1-.11.16l-.8.59a.29.29,0,0,1-.15.06.21.21,0,0,1-.18-.12A9.84,9.84,0,0,0,531.49,228.56Zm1.77-1.25,1-.68a.16.16,0,0,1,.12,0,.3.3,0,0,1,.16.08,7.4,7.4,0,0,1,1.83,2,.27.27,0,0,1,0,.16.23.23,0,0,1-.11.18l-.77.59a.2.2,0,0,1-.33-.06A9,9,0,0,0,533.26,227.31Z" fill="#723d31"/><path d="M542.1,226.83a9.67,9.67,0,0,1,2,.67c.28.14.43.28.43.41a.79.79,0,0,1-.12.39,9,9,0,0,0-.36,1.41,38.57,38.57,0,0,0-.74,5.69,15.78,15.78,0,0,0,.2,3l1.29-2.72a6.82,6.82,0,0,0,.63,1.27.56.56,0,0,1,.18.36,1.72,1.72,0,0,1-.24.62,17.92,17.92,0,0,0-.86,2.32,2,2,0,0,0-.06.5v.46c0,.11-.08.2-.25.26a5.46,5.46,0,0,1-1.33.4h-.11c-.13,0-.24-.09-.33-.26a10.63,10.63,0,0,1-.83-2.88,16.74,16.74,0,0,1-.3-3,46.68,46.68,0,0,1,.57-6.08A22,22,0,0,0,542.1,226.83Zm9,3.88c-.06-1.55-.1-2.4-.12-2.53a7,7,0,0,0-.32-1.55,10.69,10.69,0,0,1,2.48.26c.2.05.31.15.31.3a.81.81,0,0,1-.14.38,2,2,0,0,0-.1.8v2.11c.93-.13,1.75-.26,2.46-.41l.17,0c.11,0,.17.06.18.19.06.34.11.82.16,1.43v.06a.26.26,0,0,1-.26.28c-.81.15-1.69.28-2.65.38l0,2.93a9.7,9.7,0,0,1-.85,4.41,6.63,6.63,0,0,1-2.75,2.95.94.94,0,0,1-.48.16.49.49,0,0,1-.38-.16,6.15,6.15,0,0,0-1.5-.94,8.57,8.57,0,0,0,2.18-1.54,5.12,5.12,0,0,0,1.06-1.62,10.67,10.67,0,0,0,.6-4.24v-1.72c-1,.07-1.8.11-2.31.11l-.7,0-.92,0c-.27,0-.42-.1-.44-.3s-.09-.67-.21-1.73a21.36,21.36,0,0,0,2.38.1C549.74,230.79,550.46,230.76,551.07,230.71Z" fill="#723d31"/><path d="M568.11,229.15q-1.8.33-3.72.72a6.36,6.36,0,0,0-.8.23,1,1,0,0,1-.39.1.45.45,0,0,1-.42-.33,11,11,0,0,1-.67-2.05,6.89,6.89,0,0,0,1,.07l.75,0c1.32-.13,2.77-.35,4.36-.65a4.88,4.88,0,0,0,1-.29,1,1,0,0,1,.37-.15.75.75,0,0,1,.44.15,8,8,0,0,1,1.29,1.22.71.71,0,0,1,.21.46.48.48,0,0,1-.33.46,3.75,3.75,0,0,0-.84.6q-.6.57-2.19,2.16c-.79.79-1.45,1.42-2,1.91l0,.06a6.18,6.18,0,0,1,3.06-.86,4.73,4.73,0,0,1,3.6,1.42,4.42,4.42,0,0,1,1.17,3.15,4.56,4.56,0,0,1-2.06,4,8,8,0,0,1-4.66,1.23,4.68,4.68,0,0,1-3-.83,2.38,2.38,0,0,1-.9-2,2.08,2.08,0,0,1,.89-1.72,2.91,2.91,0,0,1,1.82-.6,3.51,3.51,0,0,1,3.62,2.78,3.39,3.39,0,0,0,1.54-1.23,3.07,3.07,0,0,0,.42-1.67,2.71,2.71,0,0,0-1-2.18,3.13,3.13,0,0,0-2.08-.69,7.59,7.59,0,0,0-4.91,2c-.25.22-.81.76-1.68,1.61-.14.14-.25.21-.32.21a.49.49,0,0,1-.3-.16,8.52,8.52,0,0,1-1.12-1.25.19.19,0,0,1-.07-.15.45.45,0,0,1,.16-.28,50.38,50.38,0,0,0,4.56-4.19C566.43,231.07,567.43,230,568.11,229.15ZM568,240.84c-.26-1.09-.8-1.63-1.63-1.63a1,1,0,0,0-.7.24.61.61,0,0,0-.22.48c0,.65.55,1,1.67,1A4.69,4.69,0,0,0,568,240.84Z" fill="#723d31"/><path d="M586.06,229.6l3.46-.07a1.88,1.88,0,0,0,1-.23.41.41,0,0,1,.25-.08.65.65,0,0,1,.31.11,9.16,9.16,0,0,1,1.3,1,.63.63,0,0,1,.26.44.53.53,0,0,1-.24.4,2.28,2.28,0,0,0-.63.82,26.85,26.85,0,0,1-3.81,5.87,24.36,24.36,0,0,1-3,2.83,20.19,20.19,0,0,1-2.81,1.9.59.59,0,0,1-.31.09.72.72,0,0,1-.44-.2,5,5,0,0,0-1.83-.87,30.64,30.64,0,0,0,3.82-2.43,23.46,23.46,0,0,0,2.58-2.43,18.48,18.48,0,0,0,2-2.58,23.93,23.93,0,0,0,1.53-2.81l-4.66.13a28.55,28.55,0,0,1-3.63,3.9.58.58,0,0,1-.4.21.4.4,0,0,1-.28-.11,4.92,4.92,0,0,0-1.85-.82,24.06,24.06,0,0,0,5.17-5.64,9.53,9.53,0,0,0,1.14-2.57,10,10,0,0,1,2.24,1,.4.4,0,0,1,.2.32.4.4,0,0,1-.22.33,3.1,3.1,0,0,0-.48.51Z" fill="#723d31"/><path d="M597.8,233.41a29.41,29.41,0,0,0,4.15.23h6.19l2.35,0,2.08,0h.09c.17,0,.25.09.25.27s0,.59,0,.9,0,.6,0,.89-.09.29-.27.29h-.07l-4.29,0h-6.92l-2.83.24a.43.43,0,0,1-.44-.4A18.09,18.09,0,0,1,597.8,233.41Z" fill="#723d31"/><path d="M620,234.2a8.49,8.49,0,0,1,2,.88q.3.19.3.36c0,.09-.08.19-.22.3a2,2,0,0,0-.48.65,13,13,0,0,1-2.13,3.18.57.57,0,0,1-.38.22.65.65,0,0,1-.3-.11,5.7,5.7,0,0,0-1.63-.8,13.27,13.27,0,0,0,2.33-3.14A4.45,4.45,0,0,0,620,234.2Zm4.55-3.46v-.89a14.66,14.66,0,0,0-.22-2.92c1.1.09,1.89.19,2.39.28.23,0,.34.15.34.29a.73.73,0,0,1-.11.34,5.3,5.3,0,0,0-.2,1.9v1h2.37c.73,0,2,0,3.92-.12h0c.14,0,.22.11.22.31s0,.43,0,.61,0,.61,0,.87-.12.38-.27.37c-2-.07-3.32-.1-4-.1h-2.26l0,3.84,0,3.31a2,2,0,0,1-1.14,1.95,5.28,5.28,0,0,1-2.46.64c-.2,0-.35-.14-.46-.4a4.62,4.62,0,0,0-1.29-1.72,10.11,10.11,0,0,0,2.62-.22.82.82,0,0,0,.44-.84v-6.56h-3c-1.16,0-2.27,0-3.32.13-.17,0-.25-.12-.25-.38-.05-.91-.08-1.51-.08-1.82,1.14.09,2.35.13,3.62.13Zm4.19,4.68.81-.57.66-.45a.4.4,0,0,1,.24-.1.39.39,0,0,1,.29.17,14.53,14.53,0,0,1,2.75,3.48.59.59,0,0,1,.11.28.45.45,0,0,1-.2.31,9.4,9.4,0,0,1-1.29,1,.58.58,0,0,1-.24.11c-.07,0-.13-.06-.2-.18A17,17,0,0,0,628.73,235.42Zm3.2-9.81a2,2,0,0,1,1.54.67,2,2,0,0,1,.53,1.38,2,2,0,0,1-.68,1.51,2.07,2.07,0,0,1-1.39.52,2,2,0,0,1-1.54-.67,2,2,0,0,1,.15-2.9A2,2,0,0,1,631.93,225.61Zm0,.91a1.11,1.11,0,0,0-1.14,1.14,1.07,1.07,0,0,0,.37.84,1.12,1.12,0,0,0,.77.28,1.15,1.15,0,0,0,.77-2A1.16,1.16,0,0,0,631.93,226.52Z" fill="#723d31"/><path d="M638.3,229.91c.32-.38.77-.88,1.34-1.48a.38.38,0,0,1,.28-.15.63.63,0,0,1,.25.09,17.09,17.09,0,0,1,3.67,2.7c.11.11.17.2.17.27a.42.42,0,0,1-.11.24c-.42.55-.82,1-1.19,1.43q-.16.15-.24.15a.41.41,0,0,1-.24-.15A19.39,19.39,0,0,0,638.3,229.91Zm.42,9.48a13.89,13.89,0,0,0,2.61-.95c1.23-.63,2.26-1.22,3.08-1.75a29.11,29.11,0,0,0,2.44-1.78,38.13,38.13,0,0,0,3.07-2.67,28.55,28.55,0,0,0,2.21-2.5,8.6,8.6,0,0,0,.54,2.22,1,1,0,0,1,.09.36,1,1,0,0,1-.31.58,29.39,29.39,0,0,1-4.42,4,45.07,45.07,0,0,1-5.8,3.72,8.28,8.28,0,0,0-1.29.88.53.53,0,0,1-.35.19.5.5,0,0,1-.33-.2A13.62,13.62,0,0,1,638.72,239.39Z" fill="#723d31"/><path d="M657,229.63c.68,0,1.7-.14,3.06-.32q7.62-1.11,11.54-1.62h.11c.18,0,.28.07.3.22a9.3,9.3,0,0,1,.21,1.67c0,.19-.12.28-.36.28a10.06,10.06,0,0,0-2.35.42,7.8,7.8,0,0,0-3.83,2.56,4.84,4.84,0,0,0-1.07,3q0,3.67,5.11,4c.29,0,.43.1.43.29a5.54,5.54,0,0,1-.22,1.63c-.05.27-.17.4-.36.4a7.85,7.85,0,0,1-5.08-1.65,5.17,5.17,0,0,1-2-4.22,6.2,6.2,0,0,1,1.1-3.65,9.27,9.27,0,0,1,2.59-2.37v0c-2.31.44-4.47.86-6.46,1.26-.67.16-1.07.26-1.21.31a2.75,2.75,0,0,1-.42.15.4.4,0,0,1-.37-.29A13.73,13.73,0,0,1,657,229.63ZM669,233l1-.71a.19.19,0,0,1,.12,0,.28.28,0,0,1,.17.08,8,8,0,0,1,1.82,2,.22.22,0,0,1,.06.13.22.22,0,0,1-.11.17l-.8.59a.29.29,0,0,1-.16.06.21.21,0,0,1-.17-.12A9.42,9.42,0,0,0,669,233Zm1.77-1.25,1-.68a.22.22,0,0,1,.12-.06.26.26,0,0,1,.16.09,7.36,7.36,0,0,1,1.83,1.95.35.35,0,0,1,.06.17.24.24,0,0,1-.12.18L673,234a.26.26,0,0,1-.15.07.24.24,0,0,1-.18-.12A9,9,0,0,0,670.73,231.76Z" fill="#723d31"/><path d="M686.1,229.31c0-.19,0-.48,0-.88s0-.53,0-.7a7.91,7.91,0,0,0-.23-1.39,16.1,16.1,0,0,1,2.25.27q.54.09.54.36a1,1,0,0,1-.17.43,1.64,1.64,0,0,0-.16.55c0,.08,0,.49,0,1.22,1.72-.06,3.69-.1,5.9-.1.12,0,.2,0,.23.06a.46.46,0,0,1,.06.23c0,.25,0,.49,0,.73s0,.47,0,.72a.22.22,0,0,1-.25.25h-.07c-1.17,0-2.4-.06-3.71-.06h-2.16c0,1.59,0,2.77,0,3.54a5.42,5.42,0,0,1,.29,1.88,6.92,6.92,0,0,1-3.43,6.13,1.83,1.83,0,0,1-.75.37,1.08,1.08,0,0,1-.57-.29,3.94,3.94,0,0,0-1.47-.75,7.8,7.8,0,0,0,2.82-2,4.79,4.79,0,0,0,1.13-2.17,2,2,0,0,1-1.8.76,2.49,2.49,0,0,1-2-.87,3,3,0,0,1-.68-2,2.67,2.67,0,0,1,1-2.18,2.88,2.88,0,0,1,1.92-.67,2.24,2.24,0,0,1,1.46.38v-1.94q-4.17.24-6.66.58a2.9,2.9,0,0,0-.57.14,1.74,1.74,0,0,1-.33.08.34.34,0,0,1-.33-.27,13.17,13.17,0,0,1-.48-1.91,6.08,6.08,0,0,0,.61,0c.2,0,.77,0,1.74-.1S683.16,229.47,686.1,229.31Zm-1.23,4.88a1.27,1.27,0,0,0-.91.34,1.16,1.16,0,0,0-.37.89,1.29,1.29,0,0,0,.41,1,1.21,1.21,0,0,0,.82.29,1.3,1.3,0,0,0,1-.37,1.35,1.35,0,0,0,.34-.95,1.14,1.14,0,0,0-.4-.94A1.33,1.33,0,0,0,684.87,234.19Z" fill="#723d31"/><path d="M701.25,238.16a2.68,2.68,0,0,1,2.06.9,2.61,2.61,0,0,1,.72,1.83,2.58,2.58,0,0,1-.92,2,2.83,2.83,0,0,1-3.93-.2,2.62,2.62,0,0,1-.72-1.84,2.58,2.58,0,0,1,.92-2A2.72,2.72,0,0,1,701.25,238.16Zm0,1.16a1.56,1.56,0,0,0-1.2.51,1.6,1.6,0,0,0,.12,2.24,1.65,1.65,0,0,0,2.27-.11,1.53,1.53,0,0,0,.4-1.07,1.49,1.49,0,0,0-.52-1.17A1.55,1.55,0,0,0,701.25,239.32Z" fill="#723d31"/><path d="M322.09,108.62l-5.16,22.1h-3.45l-2.67-12.54q-.42-1.94-1.38-7.22h-.51q-.68,4.33-1.32,7.17l-2.82,12.59h-3.45l-4.92-22.1h2.7L301.63,121q.57,2.74,1.23,7.25h.51c.77-4.15,1.22-6.52,1.35-7.13l2.74-12.48h3.61l2.68,12.66q.48,2.32,1.32,6.95h.52c.13-.72.36-2,.67-3.8.22-1.28.43-2.36.61-3.24l2.64-12.57Z" fill="#b86a4c"/><path d="M338.11,123.41H327.38a6.58,6.58,0,0,0,1.39,4.53,4,4,0,0,0,3.1,1.32,3.76,3.76,0,0,0,3.9-3.12l2.26.75a6,6,0,0,1-6.18,4.2,6.17,6.17,0,0,1-5.2-2.4,8.86,8.86,0,0,1-1.65-5.58,8.61,8.61,0,0,1,2.13-6.14,5.92,5.92,0,0,1,4.51-1.93,5.79,5.79,0,0,1,4.86,2.34,8.78,8.78,0,0,1,1.61,5.49Zm-2.37-1.74a5.83,5.83,0,0,0-1.39-3.7,3.55,3.55,0,0,0-2.68-1.07,3.74,3.74,0,0,0-3.08,1.46,5.84,5.84,0,0,0-1.15,3.31Z" fill="#b86a4c"/><path d="M345,108.22v9.53a5.74,5.74,0,0,1,2.14-2.1,4.74,4.74,0,0,1,2.33-.61,5.07,5.07,0,0,1,4.41,2.34,9.78,9.78,0,0,1,1.48,5.67,9,9,0,0,1-2,6.21,5.21,5.21,0,0,1-4.05,1.86,4.89,4.89,0,0,1-4.47-2.83l-.46,2.43h-1.8v-22.5Zm0,11.8v6.27q1.5,2.85,3.78,2.85a3.47,3.47,0,0,0,3.05-1.74,8,8,0,0,0,1-4.32,7.45,7.45,0,0,0-1.26-4.69,3.21,3.21,0,0,0-2.65-1.32Q346.54,117.07,345,120Z" fill="#b86a4c"/><path d="M376.9,109a.63.63,0,0,1-.23.43,2.34,2.34,0,0,0-.54.91,66.72,66.72,0,0,1-3.24,6.14,18.45,18.45,0,0,1,2.83,4.14,6.84,6.84,0,0,1,.55,2.76q0,4-4.38,4.17h-.29c-.16,0-.27,0-.32-.11a1.69,1.69,0,0,1-.13-.44,2.51,2.51,0,0,0-.57-1.23c.25,0,.5,0,.76,0,2.13,0,3.19-.81,3.19-2.43a5.91,5.91,0,0,0-.78-2.79,25.63,25.63,0,0,0-2.72-3.92,55.05,55.05,0,0,0,3.46-7.21h-4.72V127l.06,6.15a.21.21,0,0,1-.24.24H368.2a.21.21,0,0,1-.23-.24L368,127V114.16L368,108a.21.21,0,0,1,.23-.24l2.38.06h4a2.18,2.18,0,0,0,.72-.08.6.6,0,0,1,.27-.06c.18,0,.45.18.8.54S376.9,108.86,376.9,109Zm16.63,22.72a5.37,5.37,0,0,0-.94,1.18c-.16.28-.28.42-.35.42a.92.92,0,0,1-.45-.2A19.12,19.12,0,0,1,383,119.88h-3v10a38.08,38.08,0,0,0,5.43-1.83,6.12,6.12,0,0,0-.16,1.17,1.42,1.42,0,0,1-.1.62,1.14,1.14,0,0,1-.47.19q-3.56,1.26-8.07,2.4a3.45,3.45,0,0,0-1.13.4.75.75,0,0,1-.4.17c-.11,0-.2-.08-.26-.26a9,9,0,0,1-.51-1.71,23,23,0,0,0,2.57-.43l1.32-.26v-17l-.06-5.33a.21.21,0,0,1,.24-.24l3.78.06H387l3.49-.06c.16,0,.23.08.23.24l-.06,3.23v5.16l.06,3.24a.2.2,0,0,1-.23.23l-3.49-.06h-2.31a20.06,20.06,0,0,0,1.77,5A31.28,31.28,0,0,0,390,122a4.88,4.88,0,0,0,.86-1.14,6.91,6.91,0,0,1,1.27,1.14.83.83,0,0,1,.21.37c0,.12-.12.23-.37.32a8.2,8.2,0,0,0-1.43,1,39.55,39.55,0,0,1-3.28,2.58A16.65,16.65,0,0,0,393.53,131.73Zm-4.69-18.67v-3.61H380v3.61Zm0,5.33v-3.81H380v3.81Z" fill="#b86a4c"/><path d="M422.46,130.4a4.9,4.9,0,0,0-.42,1.26,1.15,1.15,0,0,1-.21.56.92.92,0,0,1-.51.1c-1.28,0-2.22.06-2.83.06q-8.73,0-12-1.66a7.07,7.07,0,0,1-2.49-2.05,13.41,13.41,0,0,1-1.26-2.08,15.43,15.43,0,0,1-4.41,6,1.39,1.39,0,0,1-.42.29c-.07,0-.21-.12-.41-.36a2.78,2.78,0,0,0-1-.81,14.33,14.33,0,0,0,5.79-10.44,9.63,9.63,0,0,0,.1-1.28c0-.13,0-.26,0-.39a15.58,15.58,0,0,1,1.74.32c.3.08.46.19.46.33a1.23,1.23,0,0,1-.21.47,1.62,1.62,0,0,0-.31.75,24.94,24.94,0,0,1-.66,3.06,10,10,0,0,0,2.16,3.41,7.88,7.88,0,0,0,3.37,1.76V117h-3.24l-4.12.06c-.17,0-.26-.08-.26-.24v-1.27c0-.16.09-.24.26-.24l4.12.06H414l4.12-.06c.16,0,.23.08.23.24v1.27c0,.16-.07.24-.23.24L414,117H410.7v5h4.47l2.94-.06c.16,0,.23.08.23.24v1.27c0,.16-.07.24-.23.24l-2.94-.06H410.7v6.47a44.67,44.67,0,0,0,6.78.4Q419.51,130.55,422.46,130.4Zm-.54-14.76a.22.22,0,0,1-.25.25h-1.38c-.15,0-.23-.09-.23-.25v-4.13H399.59v4.13a.22.22,0,0,1-.24.25H398a.22.22,0,0,1-.24-.25l.06-3.08v-.94l-.06-1.59q0-.21.24-.21l4.14.06h6.48v-.43a14.89,14.89,0,0,0-.21-3.06c.87,0,1.52.1,1.95.16.25,0,.37.11.37.24a1.9,1.9,0,0,1-.19.54,9.56,9.56,0,0,0-.12,2.12v.43h7.12l4.16-.06c.17,0,.25.07.25.21l-.06,1.39v1.14Z" fill="#b86a4c"/><path d="M438.71,112.49l6.72-.12a3.07,3.07,0,0,0,1.49-.32.44.44,0,0,1,.27-.09,1.11,1.11,0,0,1,.52.2,7.39,7.39,0,0,1,1.21,1,.77.77,0,0,1,.25.49.56.56,0,0,1-.2.41,3.5,3.5,0,0,0-.79,1,39.72,39.72,0,0,1-5.78,9.36,35.58,35.58,0,0,1-9.36,7.68.48.48,0,0,1-.27.09.6.6,0,0,1-.39-.18,4.23,4.23,0,0,0-1.69-.86,35.6,35.6,0,0,0,5.88-3.84,39.29,39.29,0,0,0,4.06-4,35.78,35.78,0,0,0,5.63-9.17l-8.64.24a47,47,0,0,1-5.93,6.41.77.77,0,0,1-.5.24.79.79,0,0,1-.44-.18,3.81,3.81,0,0,0-1.52-.63,33.92,33.92,0,0,0,7.84-8.73,11.43,11.43,0,0,0,1.64-4,6.76,6.76,0,0,1,2.25,1,.47.47,0,0,1,.24.4.44.44,0,0,1-.24.38,3.34,3.34,0,0,0-.91,1Z" fill="#b86a4c"/><path d="M458.25,118.83a57.76,57.76,0,0,0,6.63.26h9.2q3.15,0,6.58-.08l.13,0c.21,0,.31.12.31.37s0,.46,0,.77,0,.57,0,.79-.1.37-.31.37h-.13c-1.5,0-3.67-.06-6.49-.06H463.11a28.6,28.6,0,0,0-3.24.17l-.58.09-.24,0a.52.52,0,0,1-.51-.42A14.88,14.88,0,0,1,458.25,118.83Z" fill="#b86a4c"/><path d="M491.43,120a9.11,9.11,0,0,1,2,1c.23.15.34.28.34.4s-.1.24-.31.45a4.64,4.64,0,0,0-.8,1.17,24.12,24.12,0,0,1-3.09,4.62.75.75,0,0,1-.47.29.67.67,0,0,1-.34-.12,5.17,5.17,0,0,0-1.57-.66,18.24,18.24,0,0,0,3.55-4.92A7.59,7.59,0,0,0,491.43,120Zm7.22-5.29v-2a19.84,19.84,0,0,0-.32-4.13,13.84,13.84,0,0,1,2.47.32c.25.08.38.22.38.43a.87.87,0,0,1-.14.42,8.69,8.69,0,0,0-.3,3.11v1.83h3.9q3.18,0,6.15-.16h.09c.18,0,.28.12.28.36q0,.94,0,1.35c0,.29-.12.43-.37.43q-2.56-.12-6.21-.12h-3.81v5.23l.09,6.74a2.78,2.78,0,0,1-1.49,2.75,9,9,0,0,1-3.45.88h-.07a.45.45,0,0,1-.44-.37,4.05,4.05,0,0,0-1.26-1.67,10.45,10.45,0,0,0,3.72-.54,1.07,1.07,0,0,0,.66-.6,3.18,3.18,0,0,0,.15-1.14V116.53h-4.81c-1.57,0-3.28.07-5.12.22h-.06c-.2,0-.31-.14-.32-.43-.09-.95-.14-1.57-.14-1.86q2.49.21,5.58.21Zm6.66,6.58,1.32-1a.46.46,0,0,1,.24-.08.54.54,0,0,1,.33.17,21.61,21.61,0,0,1,4.21,5.44.8.8,0,0,1,.1.3.65.65,0,0,1-.22.39,9.46,9.46,0,0,1-1.14.86.53.53,0,0,1-.27.1c-.09,0-.18-.07-.25-.22A21.32,21.32,0,0,0,505.31,121.25Zm4.12-14.37a2.89,2.89,0,0,1,2.24,1,3,3,0,0,1,.78,2,3,3,0,0,1-5.28,2,3.07,3.07,0,0,1,.22-4.29A3,3,0,0,1,509.43,106.88Zm0,1.14a1.81,1.81,0,0,0-1.41.61,1.89,1.89,0,0,0-.48,1.28,1.81,1.81,0,0,0,.61,1.4,1.85,1.85,0,0,0,1.28.49,1.79,1.79,0,0,0,1.39-.62,1.84,1.84,0,0,0,.48-1.27,1.81,1.81,0,0,0-.61-1.41A1.84,1.84,0,0,0,509.43,108Z" fill="#b86a4c"/><path d="M519.74,112.37c.5-.61.89-1.06,1.17-1.38a.45.45,0,0,1,.3-.16.54.54,0,0,1,.25.09,27.32,27.32,0,0,1,5.4,4,.53.53,0,0,1,.18.32.51.51,0,0,1-.09.25,7.94,7.94,0,0,1-1,1.29.35.35,0,0,1-.25.17.39.39,0,0,1-.23-.14A30.44,30.44,0,0,0,519.74,112.37Zm.72,15.75a20.49,20.49,0,0,0,3.15-1.23,54.64,54.64,0,0,0,8.67-5.58,50.91,50.91,0,0,0,8.1-8.08,10.3,10.3,0,0,0,.51,2,.81.81,0,0,1-.22,1.06,54.37,54.37,0,0,1-7.28,6.9,62.94,62.94,0,0,1-9,5.85,11.5,11.5,0,0,0-1.64,1.16.6.6,0,0,1-.41.21.57.57,0,0,1-.39-.24A10.55,10.55,0,0,1,520.46,128.12Z" fill="#b86a4c"/><path d="M86.24,157.11v5.67H66.36v11.07h15v5.67h-15v18.71H59.14V157.11Z"/><path d="M100.67,168.5a12,12,0,0,1,10,4.58q3.2,4.06,3.19,10.58,0,7.53-4.09,11.72a12.2,12.2,0,0,1-9.11,3.6,12,12,0,0,1-10-4.58q-3.16-4-3.16-10.58c0-5,1.37-8.91,4.12-11.73A12.22,12.22,0,0,1,100.67,168.5Zm0,4.81q-6.36,0-6.37,10.4t6.32,10.46q6.36,0,6.36-10.46T100.67,173.31Z"/><path d="M135,168.5l-.44,6.26q-5.57,0-8.25,7.37v16.1h-6.58V169.14H126v7.15Q128.78,168.49,135,168.5Z"/><path d="M163.69,185.14H144c0,3,.74,5.36,2.12,7a6.5,6.5,0,0,0,5.21,2.2q4.68,0,6.13-5.53l6.06,1.75Q160.8,199,151.27,199q-7,0-10.59-4.5-3.18-3.93-3.18-10.61,0-7.56,4.14-11.75a12.11,12.11,0,0,1,9.06-3.62,11.78,11.78,0,0,1,9.73,4.47q3.25,4.07,3.26,10.79Zm-6.52-4.4q-.49-7.63-6.37-7.64a5.84,5.84,0,0,0-4.94,2.33,9.77,9.77,0,0,0-1.73,5.31Z"/><path d="M190.94,175.92l-6.32,1.81q-1.08-4.68-5.18-4.68a5.38,5.38,0,0,0-3.49,1,2.54,2.54,0,0,0-1.06,2.09,3.29,3.29,0,0,0,1.16,2.75,12.63,12.63,0,0,0,4,1.6l2.43.65q5.28,1.4,7.27,3.59a7.57,7.57,0,0,1,1.76,5.26,7.78,7.78,0,0,1-3.34,6.73q-3.08,2.22-8.43,2.22-9.51,0-12.14-7.27l6.21-2.17q1.39,4.89,6.08,4.89,5.31,0,5.31-3.76A3.05,3.05,0,0,0,184,188a18.31,18.31,0,0,0-4.37-1.66l-2.43-.67q-5.05-1.35-6.91-3.52a8,8,0,0,1-1.63-5.33,7.22,7.22,0,0,1,3.18-6.19,13,13,0,0,1,7.74-2.09Q188.43,168.5,190.94,175.92Z"/><path d="M205.61,159.65v9.49h6.52V174h-6.52v16q0,4.19,3.6,4.19a14.82,14.82,0,0,0,3.39-.34l-.26,4.76a34.14,34.14,0,0,1-5.2.34q-4.42,0-6.37-2.12a8.08,8.08,0,0,1-1.73-5.62V174h-4.35v-4.87H199v-8Z"/><path d="M230.21,161.85q3.34.36,10.18.36H259.3a5.94,5.94,0,0,0,2.93-.55,1.67,1.67,0,0,1,.8-.2,2.59,2.59,0,0,1,1,.26,15.67,15.67,0,0,1,3.88,3.49,1.45,1.45,0,0,1,.37.91,1.79,1.79,0,0,1-.75,1.31,8.33,8.33,0,0,0-1.22,2.08A63.07,63.07,0,0,1,256,186.74a59.1,59.1,0,0,1-15,12.63,2.68,2.68,0,0,1-1.45.47,1.88,1.88,0,0,1-1.32-.57,15.23,15.23,0,0,0-4.92-2.93A60.63,60.63,0,0,0,243.57,190a51.3,51.3,0,0,0,7-6.86,47,47,0,0,0,9-15.11H240.44c-2.07,0-5,.08-8.75.26-.55,0-.89-.3-1-1.06S230.4,164.52,230.21,161.85Zm33.54-4.64,2.57-1.73a.45.45,0,0,1,.31-.13.76.76,0,0,1,.46.23,22.81,22.81,0,0,1,5.05,5.67.69.69,0,0,1,.15.39.61.61,0,0,1-.31.46l-2,1.43a.83.83,0,0,1-.42.15.64.64,0,0,1-.49-.33A26.75,26.75,0,0,0,263.75,157.21Zm4.64-3.28,2.27-1.69a.66.66,0,0,1,.34-.13.72.72,0,0,1,.44.24,20.32,20.32,0,0,1,5.05,5.46.77.77,0,0,1,.15.41.79.79,0,0,1-.31.55l-1.76,1.42a.59.59,0,0,1-.41.21.54.54,0,0,1-.49-.37A26,26,0,0,0,268.39,153.93Z"/><path d="M290.38,188.86a94.67,94.67,0,0,0,13.51-6.67,72.51,72.51,0,0,0,14.05-10.82,23,23,0,0,0,.85,6.13,2.73,2.73,0,0,1,.16.86,1.61,1.61,0,0,1-.7,1.26A84,84,0,0,1,305,188.73a119.81,119.81,0,0,1-13,6.58,11.88,11.88,0,0,0-3,1.7,1.6,1.6,0,0,1-1,.42,1.51,1.51,0,0,1-.9-.42,16.65,16.65,0,0,1-3.24-3.59,1.4,1.4,0,0,1-.31-.86,2.08,2.08,0,0,1,.26-.9,12,12,0,0,0,.21-3l.13-19.93a52.7,52.7,0,0,0-.6-9.21,50.42,50.42,0,0,1,6.88,1.16,1,1,0,0,1,.86,1,4.6,4.6,0,0,1-.26,1.12,23,23,0,0,0-.6,6.57Z"/><path d="M324.15,165.11c.88-1.07,2.12-2.45,3.7-4.14a1,1,0,0,1,.75-.42,1.69,1.69,0,0,1,.7.26,47.65,47.65,0,0,1,10.12,7.53c.31.31.47.56.47.75a1.17,1.17,0,0,1-.31.67q-1.74,2.31-3.29,4c-.29.28-.51.41-.65.41a1.11,1.11,0,0,1-.67-.41A54.49,54.49,0,0,0,324.15,165.11Zm1.17,26.44a38,38,0,0,0,7.17-2.64A96.58,96.58,0,0,0,341,184a83.39,83.39,0,0,0,6.73-5,112.61,112.61,0,0,0,8.46-7.45,80.5,80.5,0,0,0,6.08-7,25,25,0,0,0,1.48,6.19,2.83,2.83,0,0,1,.26,1,2.91,2.91,0,0,1-.86,1.61A81.87,81.87,0,0,1,351,184.67a122.77,122.77,0,0,1-16,10.38,20.73,20.73,0,0,0-3.55,2.46,1.52,1.52,0,0,1-.95.51,1.32,1.32,0,0,1-.91-.57A34.51,34.51,0,0,1,325.32,191.55Z"/><path d="M383.28,170.88a78.88,78.88,0,0,1,16.84,7.22c.47.24.7.54.7.9a1.24,1.24,0,0,1-.1.47,31.39,31.39,0,0,1-2.28,4.61c-.22.39-.46.59-.7.59a.87.87,0,0,1-.59-.26,58.15,58.15,0,0,0-13.93-6.8v11.72q0,2.89.21,10.38v.15c0,.43-.32.65-1,.65-.79.05-1.58.08-2.35.08s-1.58,0-2.36-.08-1-.27-1-.8q.21-5.13.21-10.43V163.19a47.24,47.24,0,0,0-.52-7.84,38,38,0,0,1,6.63.85c.67.14,1,.44,1,.91a2.82,2.82,0,0,1-.44,1.22c-.24.46-.36,2.12-.36,5Zm9.54-11.08,2.8-1.94a.56.56,0,0,1,.34-.13.85.85,0,0,1,.46.23,22.34,22.34,0,0,1,5,5.67.64.64,0,0,1,.16.39.63.63,0,0,1-.29.46l-2.25,1.64a.69.69,0,0,1-.41.18c-.16,0-.31-.12-.47-.34A27.39,27.39,0,0,0,392.82,159.8Zm4.87-3.49,2.67-1.92a.63.63,0,0,1,.33-.13.72.72,0,0,1,.44.24,20.43,20.43,0,0,1,5.05,5.46.92.92,0,0,1,.15.44.63.63,0,0,1-.31.51l-2.12,1.66a.77.77,0,0,1-.41.15.58.58,0,0,1-.49-.33A25.34,25.34,0,0,0,397.69,156.31Z"/><path d="M441.9,186.64V169.3H423.4a75.48,75.48,0,0,0-7.94.31c-.54,0-.81-.3-.81-.91a53.52,53.52,0,0,1-.26-5.64q3.71.36,8.86.36H439q2.77,0,8.38-.2c.71,0,1.06.25,1.06.75v.15l-.1,8.36v12.68c0,2.5.07,5.7.21,9.58q0,.67-1,.75c-.72,0-1.5.08-2.33.08s-1.6,0-2.33-.08a1.65,1.65,0,0,1-.85-.21,1.07,1.07,0,0,1-.16-.7v-2.12H423.69c-1.39,0-3,0-4.95.1-2.1.07-3.35.11-3.75.11s-.7-.27-.75-.81a49.92,49.92,0,0,1-.26-5.48q4.14.26,9.76.26Z"/><path d="M458.48,174.86a78.34,78.34,0,0,0,11.44.65H487q2.5,0,6.47-.08c3.36-.05,5.27-.08,5.72-.1h.26q.69,0,.69.75c.06.81.08,1.65.08,2.51s0,1.67-.08,2.48q0,.81-.75.81h-.2q-7.95-.1-11.83-.11H468.29l-7.79.65a1.17,1.17,0,0,1-1.22-1.11A50,50,0,0,1,458.48,174.86Z"/><path d="M517.57,174a112.52,112.52,0,0,0,13.2-5.15,19.09,19.09,0,0,0,5.67-3.81,27.32,27.32,0,0,1,4.4,4.77,1.46,1.46,0,0,1,.41,1c0,.49-.29.81-.88,1a35,35,0,0,0-4.4,1.73A137.44,137.44,0,0,1,517.49,180v7a6.45,6.45,0,0,0,.42,2.79,2.14,2.14,0,0,0,1.37,1,27.45,27.45,0,0,0,6.65.59,96.54,96.54,0,0,0,15-1.24l.33,0c.37,0,.57.26.63.78.2,2,.31,3.5.31,4.61,0,.58-.37.9-1.12,1a126.8,126.8,0,0,1-15.73,1c-4.5,0-7.87-.47-10.09-1.42-2.51-1.06-3.76-3.71-3.76-8V168.55a68.85,68.85,0,0,0-.51-9.71,44.11,44.11,0,0,1,6.67,1.06c.57.13.86.42.86.88a2.22,2.22,0,0,1-.39,1.09,13.31,13.31,0,0,0-.52,4.76Z"/><path d="M549.63,174.86a78.34,78.34,0,0,0,11.44.65h17.08q2.51,0,6.47-.08c3.36-.05,5.27-.08,5.72-.1h.26q.69,0,.69.75c.06.81.08,1.65.08,2.51s0,1.67-.08,2.48q0,.81-.75.81h-.2q-8-.1-11.83-.11H559.44l-7.79.65a1.17,1.17,0,0,1-1.22-1.11A50,50,0,0,1,549.63,174.86Z"/><path d="M615.18,157.52V193h8.13v5.2H600.14V193h8.52V164.3a28.7,28.7,0,0,1-8,3.6l-1.11-5.61a32.11,32.11,0,0,0,10.09-4.77Z"/><path d="M633.91,190c-.31.53-.58.8-.8.8s-.38-.3-.57-.91a16.07,16.07,0,0,0-2-4.4A43.73,43.73,0,0,0,638.67,169h-.52l-5.46.1a.8.8,0,0,1-.51-.1,1,1,0,0,1-.08-.49v-3.81c0-.27,0-.44.13-.51s.21-.08.46-.08l5.46.13h1.07v-3a51.14,51.14,0,0,0-.44-7.53q2.72.07,5.25.36c.6.07.9.29.9.65a3.05,3.05,0,0,1-.31,1c-.22.47-.33,2.27-.33,5.41v3.08h.44l5.46-.13c.27,0,.44,0,.49.1a1,1,0,0,1,.08.49v3.81c0,.29,0,.46-.11.52a.89.89,0,0,1-.46.07l-5.31-.1a22.47,22.47,0,0,0,6.27,7.74,14.48,14.48,0,0,0-2,3.59c-.28.64-.51,1-.7,1s-.4-.25-.78-.75a26.5,26.5,0,0,1-3.52-5.82q.06,9.45.24,19.49c0,1.34.07,3.21.13,5.61,0,1,0,1.66,0,1.81,0,.3,0,.47-.13.52a1.06,1.06,0,0,1-.52.08h-4.29c-.28,0-.44,0-.49-.11s-.08-.23-.08-.49,0-1.43.08-3.78q.2-10.81.28-19.84A46.62,46.62,0,0,1,633.91,190Zm23-27.36-7.12.1c-.29,0-.48,0-.54-.1a.79.79,0,0,1-.08-.46v-4.3c0-.29,0-.47.1-.52a1.06,1.06,0,0,1,.52-.08l7.12.11h15l7.17-.11c.34,0,.52.2.52.6v4.3c0,.38-.18.56-.52.56l-7.17-.1h-4.45q-.47,1.81-1.58,4.87v26.13l.1,8c0,.28,0,.45-.1.52a.88.88,0,0,1-.46.08H661a.93.93,0,0,1-.57-.11,1,1,0,0,1-.07-.49l.1-8v-9.75c0-1.35,0-3.5.1-6.47a53.13,53.13,0,0,1-9.26,11.13c-.6.53-1,.8-1.16.8s-.6-.37-1-1.11a12.35,12.35,0,0,0-2.57-3.19,43.12,43.12,0,0,0,15.32-22.41ZM680.7,184a17.46,17.46,0,0,0-3,3.7c-.36.68-.68,1-1,1s-.58-.27-1.06-.8a57,57,0,0,1-9.65-13.77,1.23,1.23,0,0,1-.11-.44c0-.26.19-.5.55-.72l2.9-1.79a1.07,1.07,0,0,1,.54-.23q.28,0,.57.54A41.14,41.14,0,0,0,680.7,184Z"/><path d="M693.45,188.22l-7,.1c-.28,0-.45,0-.52-.1a.93.93,0,0,1-.08-.47V184c0-.27,0-.44.1-.49a1,1,0,0,1,.5-.08l5.56.11v-7.17h-1.55l-6.52.13c-.35,0-.52-.2-.52-.6v-3.85c0-.4.17-.6.52-.6l6.52.11H692v-5.31c-.76.81-1.65,1.66-2.66,2.54a3,3,0,0,1-1.22.7c-.23,0-.61-.36-1.17-1.07a11.19,11.19,0,0,0-2.38-2.32,29.9,29.9,0,0,0,9.22-9.86,19,19,0,0,0,1.32-3.19,29,29,0,0,1,4.55,1.32c.5.19.75.42.75.67a.89.89,0,0,1-.49.76,6.06,6.06,0,0,0-1.22,1.55c-.64,1-1.21,1.9-1.73,2.64h24.07l7.24-.11c.31,0,.49,0,.55.11a.82.82,0,0,1,.1.49v3.8c0,.26,0,.42-.13.47a1.06,1.06,0,0,1-.52.08l-.64,0-4.17-.08v6.84h.85l6.5-.11q.54,0,.54.6v3.85q0,.6-.54.6l-6.5-.13h-.85v7.17l5.3-.11c.28,0,.44,0,.5.11a.91.91,0,0,1,.07.46v3.73a.43.43,0,0,1-.57.57l-7-.1Zm-3,1.81c.1-.3.23-.44.38-.44a2.72,2.72,0,0,1,.68.2l3.08,1.3c.39.17.59.34.59.52a1.32,1.32,0,0,1-.13.41,34,34,0,0,1-6.26,9.29.62.62,0,0,1-.47.31,1.66,1.66,0,0,1-.64-.31l-3-2.07c-.35-.21-.52-.41-.52-.6s.09-.25.28-.46A26.94,26.94,0,0,0,690.43,190Zm6.47-18.45H701v-6.84H696.9Zm0,12H701v-7.17H696.9Zm6,7.3h.39c.28,0,.45.18.52.54a52.45,52.45,0,0,1,1.22,8.8,1.5,1.5,0,0,1,0,.2c0,.32-.24.5-.72.55l-3.81.31c-.22,0-.38,0-.46,0-.3,0-.44-.19-.44-.56a44.65,44.65,0,0,0-.91-8.75,2,2,0,0,1,0-.31c0-.28.27-.43.82-.47Zm2.72-19.28h4.19v-6.84h-4.19Zm0,12h4.19v-7.17h-4.19Zm8.62,7.48a46.42,46.42,0,0,1,2.72,8.41,2.64,2.64,0,0,1,.05.36c0,.22-.23.39-.7.49l-3.75.75a4.71,4.71,0,0,1-.6.08c-.21,0-.34-.17-.41-.52a46.42,46.42,0,0,0-2.23-8.51,1.57,1.57,0,0,1-.08-.39c0-.17.24-.31.7-.41l3.29-.7a2.7,2.7,0,0,1,.47-.06C713.89,190.54,714.07,190.71,714.21,191Zm.18-19.46h4.24v-6.84h-4.24Zm0,12h4.24v-7.17h-4.24Zm10.07,6.31a44.08,44.08,0,0,1,5.72,8.36.88.88,0,0,1,.15.39c0,.15-.21.34-.65.57l-3.33,1.86a1.59,1.59,0,0,1-.57.18c-.16,0-.31-.14-.47-.41A52.22,52.22,0,0,0,720,192a.73.73,0,0,1-.18-.36c0-.12.2-.28.6-.47l2.92-1.45a1.42,1.42,0,0,1,.6-.21Q724.12,189.48,724.46,189.87Z"/><path d="M744.32,153.72c1.91.05,3.71.17,5.38.36.57,0,.86.23.86.54a3.21,3.21,0,0,1-.34,1.12c-.24.48-.36,2.26-.36,5.33v10h.41l5.72-.1c.29,0,.47,0,.52.1a1,1,0,0,1,.08.49v3.76q0,.54-.6.54l-5.38-.1a50.43,50.43,0,0,0,7.14,9.16,15.71,15.71,0,0,0-2.12,3.49q-.46,1-.75,1c-.19,0-.47-.27-.83-.8a44.75,44.75,0,0,1-4.3-7.59l.37,20.78a.72.72,0,0,1-.13.52,1,1,0,0,1-.49.08h-4.38c-.28,0-.44,0-.49-.1a1,1,0,0,1-.08-.5c0-.13,0-1.19.08-3.18q.21-9.18.28-16.25a50.31,50.31,0,0,1-6.41,12.06c-.45.57-.77.85-1,.85s-.43-.3-.62-.9a11.58,11.58,0,0,0-1.92-3.86,45.64,45.64,0,0,0,8.54-14.72h-.95l-5.78.1c-.39,0-.59-.18-.59-.54v-3.76c0-.29,0-.46.1-.51a.89.89,0,0,1,.49-.08l5.78.1h2.17V161.2A55.87,55.87,0,0,0,744.32,153.72Zm-3.7,4.19a44.28,44.28,0,0,1,2.84,8.9,1,1,0,0,1,.06.29c0,.26-.24.48-.73.67l-2.28.86a2.45,2.45,0,0,1-.64.18c-.16,0-.26-.18-.31-.52a40.82,40.82,0,0,0-2.69-8.85,1.19,1.19,0,0,1-.11-.42c0-.19.23-.37.68-.54l2.22-.9a1.47,1.47,0,0,1,.52-.16C740.32,157.42,740.46,157.58,740.62,157.91Zm10.22,9.42a47,47,0,0,0,2.43-8,16,16,0,0,0,.34-2.27c2.1.7,3.44,1.2,4,1.47.4.21.6.43.6.65a.56.56,0,0,1-.31.52,2.06,2.06,0,0,0-.65,1.19,66.53,66.53,0,0,1-2.43,6.73q-.47,1.11-.81,1.11a2.89,2.89,0,0,1-1.06-.49A14.09,14.09,0,0,0,750.84,167.33Zm13.59,17.6,8.1-1.58V162.13a59,59,0,0,0-.44-8q3.1.07,5.64.36c.53.07.8.27.8.6a4.5,4.5,0,0,1-.33,1.06,27.12,27.12,0,0,0-.32,5.87v20.32c1.32-.28,2.48-.54,3.5-.8.17,0,.46-.11.88-.24l.39-.07a1.16,1.16,0,0,1,.28-.06c.14,0,.24.19.31.57l.62,4.14c0,.14,0,.23,0,.26,0,.19-.18.31-.55.37q-.15,0-1.68.33l-3.78.73v4.94l.11,9.16a.8.8,0,0,1-.11.52.94.94,0,0,1-.49.08H773c-.27,0-.44-.05-.49-.13a.83.83,0,0,1-.08-.47l.11-9.11v-3.93L765.26,190q-3,.57-5.15,1c-.31.05-.72.13-1.22.24l-.47.1a2,2,0,0,1-.33,0c-.21,0-.33-.15-.37-.47l-.67-4.19a2.64,2.64,0,0,1,0-.36c0-.16.17-.27.52-.34l1-.15Q761.08,185.58,764.43,184.93Zm-2.56-15.14a35.63,35.63,0,0,1,7.32,6.78,1,1,0,0,1,.26.49c0,.12-.14.33-.42.62l-2.61,2.59c-.29.28-.5.41-.62.41s-.25-.1-.44-.31a44,44,0,0,0-7-7.19,2.19,2.19,0,0,1-.36-.44c0-.1.14-.29.41-.57l2.44-2.33c.24-.26.4-.39.49-.39A1.36,1.36,0,0,1,761.87,169.79Zm1.42-12.27a36.15,36.15,0,0,1,7.48,6.76.66.66,0,0,1,.23.44q0,.21-.39.57l-2.53,2.48c-.33.31-.55.47-.65.47s-.22-.11-.36-.31a36.34,36.34,0,0,0-7.22-7c-.19-.13-.29-.25-.29-.39s.13-.37.39-.6l2.33-2.22q.47-.42.6-.42A.81.81,0,0,1,763.29,157.52Z"/><path d="M86.24,157.11v5.67H66.36v11.07h15v5.67h-15v18.71H59.14V157.11Z" fill="none" stroke="#b86a4c" stroke-miterlimit="10" stroke-width="5"/><path d="M100.67,168.5a12,12,0,0,1,10,4.58q3.2,4.06,3.19,10.58,0,7.53-4.09,11.72a12.2,12.2,0,0,1-9.11,3.6,12,12,0,0,1-10-4.58q-3.16-4-3.16-10.58c0-5,1.37-8.91,4.12-11.73A12.22,12.22,0,0,1,100.67,168.5Zm0,4.81q-6.36,0-6.37,10.4t6.32,10.46q6.36,0,6.36-10.46T100.67,173.31Z" fill="none" stroke="#b86a4c" stroke-miterlimit="10" stroke-width="5"/><path d="M135,168.5l-.44,6.26q-5.57,0-8.25,7.37v16.1h-6.58V169.14H126v7.15Q128.78,168.49,135,168.5Z" fill="none" stroke="#b86a4c" stroke-miterlimit="10" stroke-width="5"/><path d="M163.69,185.14H144c0,3,.74,5.36,2.12,7a6.5,6.5,0,0,0,5.21,2.2q4.68,0,6.13-5.53l6.06,1.75Q160.8,199,151.27,199q-7,0-10.59-4.5-3.18-3.93-3.18-10.61,0-7.56,4.14-11.75a12.11,12.11,0,0,1,9.06-3.62,11.78,11.78,0,0,1,9.73,4.47q3.25,4.07,3.26,10.79Zm-6.52-4.4q-.49-7.63-6.37-7.64a5.84,5.84,0,0,0-4.94,2.33,9.77,9.77,0,0,0-1.73,5.31Z" fill="none" stroke="#b86a4c" stroke-miterlimit="10" stroke-width="5"/><path d="M190.94,175.92l-6.32,1.81q-1.08-4.68-5.18-4.68a5.38,5.38,0,0,0-3.49,1,2.54,2.54,0,0,0-1.06,2.09,3.29,3.29,0,0,0,1.16,2.75,12.63,12.63,0,0,0,4,1.6l2.43.65q5.28,1.4,7.27,3.59a7.57,7.57,0,0,1,1.76,5.26,7.78,7.78,0,0,1-3.34,6.73q-3.08,2.22-8.43,2.22-9.51,0-12.14-7.27l6.21-2.17q1.39,4.89,6.08,4.89,5.31,0,5.31-3.76A3.05,3.05,0,0,0,184,188a18.31,18.31,0,0,0-4.37-1.66l-2.43-.67q-5.05-1.35-6.91-3.52a8,8,0,0,1-1.63-5.33,7.22,7.22,0,0,1,3.18-6.19,13,13,0,0,1,7.74-2.09Q188.43,168.5,190.94,175.92Z" fill="none" stroke="#b86a4c" stroke-miterlimit="10" stroke-width="5"/><path d="M205.61,159.65v9.49h6.52V174h-6.52v16q0,4.19,3.6,4.19a14.82,14.82,0,0,0,3.39-.34l-.26,4.76a34.14,34.14,0,0,1-5.2.34q-4.42,0-6.37-2.12a8.08,8.08,0,0,1-1.73-5.62V174h-4.35v-4.87H199v-8Z" fill="none" stroke="#b86a4c" stroke-miterlimit="10" stroke-width="5"/><path d="M230.21,161.85q3.34.36,10.18.36H259.3a5.94,5.94,0,0,0,2.93-.55,1.67,1.67,0,0,1,.8-.2,2.59,2.59,0,0,1,1,.26,15.67,15.67,0,0,1,3.88,3.49,1.45,1.45,0,0,1,.37.91,1.79,1.79,0,0,1-.75,1.31,8.33,8.33,0,0,0-1.22,2.08A63.07,63.07,0,0,1,256,186.74a59.1,59.1,0,0,1-15,12.63,2.68,2.68,0,0,1-1.45.47,1.88,1.88,0,0,1-1.32-.57,15.23,15.23,0,0,0-4.92-2.93A60.63,60.63,0,0,0,243.57,190a51.3,51.3,0,0,0,7-6.86,47,47,0,0,0,9-15.11H240.44c-2.07,0-5,.08-8.75.26-.55,0-.89-.3-1-1.06S230.4,164.52,230.21,161.85Zm33.54-4.64,2.57-1.73a.45.45,0,0,1,.31-.13.76.76,0,0,1,.46.23,22.81,22.81,0,0,1,5.05,5.67.69.69,0,0,1,.15.39.61.61,0,0,1-.31.46l-2,1.43a.83.83,0,0,1-.42.15.64.64,0,0,1-.49-.33A26.75,26.75,0,0,0,263.75,157.21Zm4.64-3.28,2.27-1.69a.66.66,0,0,1,.34-.13.72.72,0,0,1,.44.24,20.32,20.32,0,0,1,5.05,5.46.77.77,0,0,1,.15.41.79.79,0,0,1-.31.55l-1.76,1.42a.59.59,0,0,1-.41.21.54.54,0,0,1-.49-.37A26,26,0,0,0,268.39,153.93Z" fill="none" stroke="#b86a4c" stroke-miterlimit="10" stroke-width="5"/><path d="M290.38,188.86a94.67,94.67,0,0,0,13.51-6.67,72.51,72.51,0,0,0,14.05-10.82,23,23,0,0,0,.85,6.13,2.73,2.73,0,0,1,.16.86,1.61,1.61,0,0,1-.7,1.26A84,84,0,0,1,305,188.73a119.81,119.81,0,0,1-13,6.58,11.88,11.88,0,0,0-3,1.7,1.6,1.6,0,0,1-1,.42,1.51,1.51,0,0,1-.9-.42,16.65,16.65,0,0,1-3.24-3.59,1.4,1.4,0,0,1-.31-.86,2.08,2.08,0,0,1,.26-.9,12,12,0,0,0,.21-3l.13-19.93a52.7,52.7,0,0,0-.6-9.21,50.42,50.42,0,0,1,6.88,1.16,1,1,0,0,1,.86,1,4.6,4.6,0,0,1-.26,1.12,23,23,0,0,0-.6,6.57Z" fill="none" stroke="#b86a4c" stroke-miterlimit="10" stroke-width="5"/><path d="M324.15,165.11c.88-1.07,2.12-2.45,3.7-4.14a1,1,0,0,1,.75-.42,1.69,1.69,0,0,1,.7.26,47.65,47.65,0,0,1,10.12,7.53c.31.31.47.56.47.75a1.17,1.17,0,0,1-.31.67q-1.74,2.31-3.29,4c-.29.28-.51.41-.65.41a1.11,1.11,0,0,1-.67-.41A54.49,54.49,0,0,0,324.15,165.11Zm1.17,26.44a38,38,0,0,0,7.17-2.64A96.58,96.58,0,0,0,341,184a83.39,83.39,0,0,0,6.73-5,112.61,112.61,0,0,0,8.46-7.45,80.5,80.5,0,0,0,6.08-7,25,25,0,0,0,1.48,6.19,2.83,2.83,0,0,1,.26,1,2.91,2.91,0,0,1-.86,1.61A81.87,81.87,0,0,1,351,184.67a122.77,122.77,0,0,1-16,10.38,20.73,20.73,0,0,0-3.55,2.46,1.52,1.52,0,0,1-.95.51,1.32,1.32,0,0,1-.91-.57A34.51,34.51,0,0,1,325.32,191.55Z" fill="none" stroke="#b86a4c" stroke-miterlimit="10" stroke-width="5"/><path d="M383.28,170.88a78.88,78.88,0,0,1,16.84,7.22c.47.24.7.54.7.9a1.24,1.24,0,0,1-.1.47,31.39,31.39,0,0,1-2.28,4.61c-.22.39-.46.59-.7.59a.87.87,0,0,1-.59-.26,58.15,58.15,0,0,0-13.93-6.8v11.72q0,2.89.21,10.38v.15c0,.43-.32.65-1,.65-.79.05-1.58.08-2.35.08s-1.58,0-2.36-.08-1-.27-1-.8q.21-5.13.21-10.43V163.19a47.24,47.24,0,0,0-.52-7.84,38,38,0,0,1,6.63.85c.67.14,1,.44,1,.91a2.82,2.82,0,0,1-.44,1.22c-.24.46-.36,2.12-.36,5Zm9.54-11.08,2.8-1.94a.56.56,0,0,1,.34-.13.85.85,0,0,1,.46.23,22.34,22.34,0,0,1,5,5.67.64.64,0,0,1,.16.39.63.63,0,0,1-.29.46l-2.25,1.64a.69.69,0,0,1-.41.18c-.16,0-.31-.12-.47-.34A27.39,27.39,0,0,0,392.82,159.8Zm4.87-3.49,2.67-1.92a.63.63,0,0,1,.33-.13.72.72,0,0,1,.44.24,20.43,20.43,0,0,1,5.05,5.46.92.92,0,0,1,.15.44.63.63,0,0,1-.31.51l-2.12,1.66a.77.77,0,0,1-.41.15.58.58,0,0,1-.49-.33A25.34,25.34,0,0,0,397.69,156.31Z" fill="none" stroke="#b86a4c" stroke-miterlimit="10" stroke-width="5"/><path d="M441.9,186.64V169.3H423.4a75.48,75.48,0,0,0-7.94.31c-.54,0-.81-.3-.81-.91a53.52,53.52,0,0,1-.26-5.64q3.71.36,8.86.36H439q2.77,0,8.38-.2c.71,0,1.06.25,1.06.75v.15l-.1,8.36v12.68c0,2.5.07,5.7.21,9.58q0,.67-1,.75c-.72,0-1.5.08-2.33.08s-1.6,0-2.33-.08a1.65,1.65,0,0,1-.85-.21,1.07,1.07,0,0,1-.16-.7v-2.12H423.69c-1.39,0-3,0-4.95.1-2.1.07-3.35.11-3.75.11s-.7-.27-.75-.81a49.92,49.92,0,0,1-.26-5.48q4.14.26,9.76.26Z" fill="none" stroke="#b86a4c" stroke-miterlimit="10" stroke-width="5"/><path d="M458.48,174.86a78.34,78.34,0,0,0,11.44.65H487q2.5,0,6.47-.08c3.36-.05,5.27-.08,5.72-.1h.26q.69,0,.69.75c.06.81.08,1.65.08,2.51s0,1.67-.08,2.48q0,.81-.75.81h-.2q-7.95-.1-11.83-.11H468.29l-7.79.65a1.17,1.17,0,0,1-1.22-1.11A50,50,0,0,1,458.48,174.86Z" fill="none" stroke="#b86a4c" stroke-miterlimit="10" stroke-width="5"/><path d="M517.57,174a112.52,112.52,0,0,0,13.2-5.15,19.09,19.09,0,0,0,5.67-3.81,27.32,27.32,0,0,1,4.4,4.77,1.46,1.46,0,0,1,.41,1c0,.49-.29.81-.88,1a35,35,0,0,0-4.4,1.73A137.44,137.44,0,0,1,517.49,180v7a6.45,6.45,0,0,0,.42,2.79,2.14,2.14,0,0,0,1.37,1,27.45,27.45,0,0,0,6.65.59,96.54,96.54,0,0,0,15-1.24l.33,0c.37,0,.57.26.63.78.2,2,.31,3.5.31,4.61,0,.58-.37.9-1.12,1a126.8,126.8,0,0,1-15.73,1c-4.5,0-7.87-.47-10.09-1.42-2.51-1.06-3.76-3.71-3.76-8V168.55a68.85,68.85,0,0,0-.51-9.71,44.11,44.11,0,0,1,6.67,1.06c.57.13.86.42.86.88a2.22,2.22,0,0,1-.39,1.09,13.31,13.31,0,0,0-.52,4.76Z" fill="none" stroke="#b86a4c" stroke-miterlimit="10" stroke-width="5"/><path d="M549.63,174.86a78.34,78.34,0,0,0,11.44.65h17.08q2.51,0,6.47-.08c3.36-.05,5.27-.08,5.72-.1h.26q.69,0,.69.75c.06.81.08,1.65.08,2.51s0,1.67-.08,2.48q0,.81-.75.81h-.2q-8-.1-11.83-.11H559.44l-7.79.65a1.17,1.17,0,0,1-1.22-1.11A50,50,0,0,1,549.63,174.86Z" fill="none" stroke="#b86a4c" stroke-miterlimit="10" stroke-width="5"/><path d="M615.18,157.52V193h8.13v5.2H600.14V193h8.52V164.3a28.7,28.7,0,0,1-8,3.6l-1.11-5.61a32.11,32.11,0,0,0,10.09-4.77Z" fill="none" stroke="#b86a4c" stroke-miterlimit="10" stroke-width="5"/><path d="M633.91,190c-.31.53-.58.8-.8.8s-.38-.3-.57-.91a16.07,16.07,0,0,0-2-4.4A43.73,43.73,0,0,0,638.67,169h-.52l-5.46.1a.8.8,0,0,1-.51-.1,1,1,0,0,1-.08-.49v-3.81c0-.27,0-.44.13-.51s.21-.08.46-.08l5.46.13h1.07v-3a51.14,51.14,0,0,0-.44-7.53q2.72.07,5.25.36c.6.07.9.29.9.65a3.05,3.05,0,0,1-.31,1c-.22.47-.33,2.27-.33,5.41v3.08h.44l5.46-.13c.27,0,.44,0,.49.1a1,1,0,0,1,.08.49v3.81c0,.29,0,.46-.11.52a.89.89,0,0,1-.46.07l-5.31-.1a22.47,22.47,0,0,0,6.27,7.74,14.48,14.48,0,0,0-2,3.59c-.28.64-.51,1-.7,1s-.4-.25-.78-.75a26.5,26.5,0,0,1-3.52-5.82q.06,9.45.24,19.49c0,1.34.07,3.21.13,5.61,0,1,0,1.66,0,1.81,0,.3,0,.47-.13.52a1.06,1.06,0,0,1-.52.08h-4.29c-.28,0-.44,0-.49-.11s-.08-.23-.08-.49,0-1.43.08-3.78q.2-10.81.28-19.84A46.62,46.62,0,0,1,633.91,190Zm23-27.36-7.12.1c-.29,0-.48,0-.54-.1a.79.79,0,0,1-.08-.46v-4.3c0-.29,0-.47.1-.52a1.06,1.06,0,0,1,.52-.08l7.12.11h15l7.17-.11c.34,0,.52.2.52.6v4.3c0,.38-.18.56-.52.56l-7.17-.1h-4.45q-.47,1.81-1.58,4.87v26.13l.1,8c0,.28,0,.45-.1.52a.88.88,0,0,1-.46.08H661a.93.93,0,0,1-.57-.11,1,1,0,0,1-.07-.49l.1-8v-9.75c0-1.35,0-3.5.1-6.47a53.13,53.13,0,0,1-9.26,11.13c-.6.53-1,.8-1.16.8s-.6-.37-1-1.11a12.35,12.35,0,0,0-2.57-3.19,43.12,43.12,0,0,0,15.32-22.41ZM680.7,184a17.46,17.46,0,0,0-3,3.7c-.36.68-.68,1-1,1s-.58-.27-1.06-.8a57,57,0,0,1-9.65-13.77,1.23,1.23,0,0,1-.11-.44c0-.26.19-.5.55-.72l2.9-1.79a1.07,1.07,0,0,1,.54-.23q.28,0,.57.54A41.14,41.14,0,0,0,680.7,184Z" fill="none" stroke="#b86a4c" stroke-miterlimit="10" stroke-width="5"/><path d="M693.45,188.22l-7,.1c-.28,0-.45,0-.52-.1a.93.93,0,0,1-.08-.47V184c0-.27,0-.44.1-.49a1,1,0,0,1,.5-.08l5.56.11v-7.17h-1.55l-6.52.13c-.35,0-.52-.2-.52-.6v-3.85c0-.4.17-.6.52-.6l6.52.11H692v-5.31c-.76.81-1.65,1.66-2.66,2.54a3,3,0,0,1-1.22.7c-.23,0-.61-.36-1.17-1.07a11.19,11.19,0,0,0-2.38-2.32,29.9,29.9,0,0,0,9.22-9.86,19,19,0,0,0,1.32-3.19,29,29,0,0,1,4.55,1.32c.5.19.75.42.75.67a.89.89,0,0,1-.49.76,6.06,6.06,0,0,0-1.22,1.55c-.64,1-1.21,1.9-1.73,2.64h24.07l7.24-.11c.31,0,.49,0,.55.11a.82.82,0,0,1,.1.49v3.8c0,.26,0,.42-.13.47a1.06,1.06,0,0,1-.52.08l-.64,0-4.17-.08v6.84h.85l6.5-.11q.54,0,.54.6v3.85q0,.6-.54.6l-6.5-.13h-.85v7.17l5.3-.11c.28,0,.44,0,.5.11a.91.91,0,0,1,.07.46v3.73a.43.43,0,0,1-.57.57l-7-.1Zm-3,1.81c.1-.3.23-.44.38-.44a2.72,2.72,0,0,1,.68.2l3.08,1.3c.39.17.59.34.59.52a1.32,1.32,0,0,1-.13.41,34,34,0,0,1-6.26,9.29.62.62,0,0,1-.47.31,1.66,1.66,0,0,1-.64-.31l-3-2.07c-.35-.21-.52-.41-.52-.6s.09-.25.28-.46A26.94,26.94,0,0,0,690.43,190Zm6.47-18.45H701v-6.84H696.9Zm0,12H701v-7.17H696.9Zm6,7.3h.39c.28,0,.45.18.52.54a52.45,52.45,0,0,1,1.22,8.8,1.5,1.5,0,0,1,0,.2c0,.32-.24.5-.72.55l-3.81.31c-.22,0-.38,0-.46,0-.3,0-.44-.19-.44-.56a44.65,44.65,0,0,0-.91-8.75,2,2,0,0,1,0-.31c0-.28.27-.43.82-.47Zm2.72-19.28h4.19v-6.84h-4.19Zm0,12h4.19v-7.17h-4.19Zm8.62,7.48a46.42,46.42,0,0,1,2.72,8.41,2.64,2.64,0,0,1,.05.36c0,.22-.23.39-.7.49l-3.75.75a4.71,4.71,0,0,1-.6.08c-.21,0-.34-.17-.41-.52a46.42,46.42,0,0,0-2.23-8.51,1.57,1.57,0,0,1-.08-.39c0-.17.24-.31.7-.41l3.29-.7a2.7,2.7,0,0,1,.47-.06C713.89,190.54,714.07,190.71,714.21,191Zm.18-19.46h4.24v-6.84h-4.24Zm0,12h4.24v-7.17h-4.24Zm10.07,6.31a44.08,44.08,0,0,1,5.72,8.36.88.88,0,0,1,.15.39c0,.15-.21.34-.65.57l-3.33,1.86a1.59,1.59,0,0,1-.57.18c-.16,0-.31-.14-.47-.41A52.22,52.22,0,0,0,720,192a.73.73,0,0,1-.18-.36c0-.12.2-.28.6-.47l2.92-1.45a1.42,1.42,0,0,1,.6-.21Q724.12,189.48,724.46,189.87Z" fill="none" stroke="#b86a4c" stroke-miterlimit="10" stroke-width="5"/><path d="M744.32,153.72c1.91.05,3.71.17,5.38.36.57,0,.86.23.86.54a3.21,3.21,0,0,1-.34,1.12c-.24.48-.36,2.26-.36,5.33v10h.41l5.72-.1c.29,0,.47,0,.52.1a1,1,0,0,1,.08.49v3.76q0,.54-.6.54l-5.38-.1a50.43,50.43,0,0,0,7.14,9.16,15.71,15.71,0,0,0-2.12,3.49q-.46,1-.75,1c-.19,0-.47-.27-.83-.8a44.75,44.75,0,0,1-4.3-7.59l.37,20.78a.72.72,0,0,1-.13.52,1,1,0,0,1-.49.08h-4.38c-.28,0-.44,0-.49-.1a1,1,0,0,1-.08-.5c0-.13,0-1.19.08-3.18q.21-9.18.28-16.25a50.31,50.31,0,0,1-6.41,12.06c-.45.57-.77.85-1,.85s-.43-.3-.62-.9a11.58,11.58,0,0,0-1.92-3.86,45.64,45.64,0,0,0,8.54-14.72h-.95l-5.78.1c-.39,0-.59-.18-.59-.54v-3.76c0-.29,0-.46.1-.51a.89.89,0,0,1,.49-.08l5.78.1h2.17V161.2A55.87,55.87,0,0,0,744.32,153.72Zm-3.7,4.19a44.28,44.28,0,0,1,2.84,8.9,1,1,0,0,1,.06.29c0,.26-.24.48-.73.67l-2.28.86a2.45,2.45,0,0,1-.64.18c-.16,0-.26-.18-.31-.52a40.82,40.82,0,0,0-2.69-8.85,1.19,1.19,0,0,1-.11-.42c0-.19.23-.37.68-.54l2.22-.9a1.47,1.47,0,0,1,.52-.16C740.32,157.42,740.46,157.58,740.62,157.91Zm10.22,9.42a47,47,0,0,0,2.43-8,16,16,0,0,0,.34-2.27c2.1.7,3.44,1.2,4,1.47.4.21.6.43.6.65a.56.56,0,0,1-.31.52,2.06,2.06,0,0,0-.65,1.19,66.53,66.53,0,0,1-2.43,6.73q-.47,1.11-.81,1.11a2.89,2.89,0,0,1-1.06-.49A14.09,14.09,0,0,0,750.84,167.33Zm13.59,17.6,8.1-1.58V162.13a59,59,0,0,0-.44-8q3.1.07,5.64.36c.53.07.8.27.8.6a4.5,4.5,0,0,1-.33,1.06,27.12,27.12,0,0,0-.32,5.87v20.32c1.32-.28,2.48-.54,3.5-.8.17,0,.46-.11.88-.24l.39-.07a1.16,1.16,0,0,1,.28-.06c.14,0,.24.19.31.57l.62,4.14c0,.14,0,.23,0,.26,0,.19-.18.31-.55.37q-.15,0-1.68.33l-3.78.73v4.94l.11,9.16a.8.8,0,0,1-.11.52.94.94,0,0,1-.49.08H773c-.27,0-.44-.05-.49-.13a.83.83,0,0,1-.08-.47l.11-9.11v-3.93L765.26,190q-3,.57-5.15,1c-.31.05-.72.13-1.22.24l-.47.1a2,2,0,0,1-.33,0c-.21,0-.33-.15-.37-.47l-.67-4.19a2.64,2.64,0,0,1,0-.36c0-.16.17-.27.52-.34l1-.15Q761.08,185.58,764.43,184.93Zm-2.56-15.14a35.63,35.63,0,0,1,7.32,6.78,1,1,0,0,1,.26.49c0,.12-.14.33-.42.62l-2.61,2.59c-.29.28-.5.41-.62.41s-.25-.1-.44-.31a44,44,0,0,0-7-7.19,2.19,2.19,0,0,1-.36-.44c0-.1.14-.29.41-.57l2.44-2.33c.24-.26.4-.39.49-.39A1.36,1.36,0,0,1,761.87,169.79Zm1.42-12.27a36.15,36.15,0,0,1,7.48,6.76.66.66,0,0,1,.23.44q0,.21-.39.57l-2.53,2.48c-.33.31-.55.47-.65.47s-.22-.11-.36-.31a36.34,36.34,0,0,0-7.22-7c-.19-.13-.29-.25-.29-.39s.13-.37.39-.6l2.33-2.22q.47-.42.6-.42A.81.81,0,0,1,763.29,157.52Z" fill="none" stroke="#b86a4c" stroke-miterlimit="10" stroke-width="5"/><path d="M86.24,157.11v5.67H66.36v11.07h15v5.67h-15v18.71H59.14V157.11Z" fill="url(#名称未設定グラデーション_2)"/><path d="M100.67,168.5a12,12,0,0,1,10,4.58q3.2,4.06,3.19,10.58,0,7.53-4.09,11.72a12.2,12.2,0,0,1-9.11,3.6,12,12,0,0,1-10-4.58q-3.16-4-3.16-10.58c0-5,1.37-8.91,4.12-11.73A12.22,12.22,0,0,1,100.67,168.5Zm0,4.81q-6.36,0-6.37,10.4t6.32,10.46q6.36,0,6.36-10.46T100.67,173.31Z" fill="url(#名称未設定グラデーション_2)"/><path d="M135,168.5l-.44,6.26q-5.57,0-8.25,7.37v16.1h-6.58V169.14H126v7.15Q128.78,168.49,135,168.5Z" fill="url(#名称未設定グラデーション_2)"/><path d="M163.69,185.14H144c0,3,.74,5.36,2.12,7a6.5,6.5,0,0,0,5.21,2.2q4.68,0,6.13-5.53l6.06,1.75Q160.8,199,151.27,199q-7,0-10.59-4.5-3.18-3.93-3.18-10.61,0-7.56,4.14-11.75a12.11,12.11,0,0,1,9.06-3.62,11.78,11.78,0,0,1,9.73,4.47q3.25,4.07,3.26,10.79Zm-6.52-4.4q-.49-7.63-6.37-7.64a5.84,5.84,0,0,0-4.94,2.33,9.77,9.77,0,0,0-1.73,5.31Z" fill="url(#名称未設定グラデーション_2)"/><path d="M190.94,175.92l-6.32,1.81q-1.08-4.68-5.18-4.68a5.38,5.38,0,0,0-3.49,1,2.54,2.54,0,0,0-1.06,2.09,3.29,3.29,0,0,0,1.16,2.75,12.63,12.63,0,0,0,4,1.6l2.43.65q5.28,1.4,7.27,3.59a7.57,7.57,0,0,1,1.76,5.26,7.78,7.78,0,0,1-3.34,6.73q-3.08,2.22-8.43,2.22-9.51,0-12.14-7.27l6.21-2.17q1.39,4.89,6.08,4.89,5.31,0,5.31-3.76A3.05,3.05,0,0,0,184,188a18.31,18.31,0,0,0-4.37-1.66l-2.43-.67q-5.05-1.35-6.91-3.52a8,8,0,0,1-1.63-5.33,7.22,7.22,0,0,1,3.18-6.19,13,13,0,0,1,7.74-2.09Q188.43,168.5,190.94,175.92Z" fill="url(#名称未設定グラデーション_2)"/><path d="M205.61,159.65v9.49h6.52V174h-6.52v16q0,4.19,3.6,4.19a14.82,14.82,0,0,0,3.39-.34l-.26,4.76a34.14,34.14,0,0,1-5.2.34q-4.42,0-6.37-2.12a8.08,8.08,0,0,1-1.73-5.62V174h-4.35v-4.87H199v-8Z" fill="url(#名称未設定グラデーション_2)"/><path d="M230.21,161.85q3.34.36,10.18.36H259.3a5.94,5.94,0,0,0,2.93-.55,1.67,1.67,0,0,1,.8-.2,2.59,2.59,0,0,1,1,.26,15.67,15.67,0,0,1,3.88,3.49,1.45,1.45,0,0,1,.37.91,1.79,1.79,0,0,1-.75,1.31,8.33,8.33,0,0,0-1.22,2.08A63.07,63.07,0,0,1,256,186.74a59.1,59.1,0,0,1-15,12.63,2.68,2.68,0,0,1-1.45.47,1.88,1.88,0,0,1-1.32-.57,15.23,15.23,0,0,0-4.92-2.93A60.63,60.63,0,0,0,243.57,190a51.3,51.3,0,0,0,7-6.86,47,47,0,0,0,9-15.11H240.44c-2.07,0-5,.08-8.75.26-.55,0-.89-.3-1-1.06S230.4,164.52,230.21,161.85Zm33.54-4.64,2.57-1.73a.45.45,0,0,1,.31-.13.76.76,0,0,1,.46.23,22.81,22.81,0,0,1,5.05,5.67.69.69,0,0,1,.15.39.61.61,0,0,1-.31.46l-2,1.43a.83.83,0,0,1-.42.15.64.64,0,0,1-.49-.33A26.75,26.75,0,0,0,263.75,157.21Zm4.64-3.28,2.27-1.69a.66.66,0,0,1,.34-.13.72.72,0,0,1,.44.24,20.32,20.32,0,0,1,5.05,5.46.77.77,0,0,1,.15.41.79.79,0,0,1-.31.55l-1.76,1.42a.59.59,0,0,1-.41.21.54.54,0,0,1-.49-.37A26,26,0,0,0,268.39,153.93Z" fill="url(#名称未設定グラデーション_2)"/><path d="M290.38,188.86a94.67,94.67,0,0,0,13.51-6.67,72.51,72.51,0,0,0,14.05-10.82,23,23,0,0,0,.85,6.13,2.73,2.73,0,0,1,.16.86,1.61,1.61,0,0,1-.7,1.26A84,84,0,0,1,305,188.73a119.81,119.81,0,0,1-13,6.58,11.88,11.88,0,0,0-3,1.7,1.6,1.6,0,0,1-1,.42,1.51,1.51,0,0,1-.9-.42,16.65,16.65,0,0,1-3.24-3.59,1.4,1.4,0,0,1-.31-.86,2.08,2.08,0,0,1,.26-.9,12,12,0,0,0,.21-3l.13-19.93a52.7,52.7,0,0,0-.6-9.21,50.42,50.42,0,0,1,6.88,1.16,1,1,0,0,1,.86,1,4.6,4.6,0,0,1-.26,1.12,23,23,0,0,0-.6,6.57Z" fill="url(#名称未設定グラデーション_2)"/><path d="M324.15,165.11c.88-1.07,2.12-2.45,3.7-4.14a1,1,0,0,1,.75-.42,1.69,1.69,0,0,1,.7.26,47.65,47.65,0,0,1,10.12,7.53c.31.31.47.56.47.75a1.17,1.17,0,0,1-.31.67q-1.74,2.31-3.29,4c-.29.28-.51.41-.65.41a1.11,1.11,0,0,1-.67-.41A54.49,54.49,0,0,0,324.15,165.11Zm1.17,26.44a38,38,0,0,0,7.17-2.64A96.58,96.58,0,0,0,341,184a83.39,83.39,0,0,0,6.73-5,112.61,112.61,0,0,0,8.46-7.45,80.5,80.5,0,0,0,6.08-7,25,25,0,0,0,1.48,6.19,2.83,2.83,0,0,1,.26,1,2.91,2.91,0,0,1-.86,1.61A81.87,81.87,0,0,1,351,184.67a122.77,122.77,0,0,1-16,10.38,20.73,20.73,0,0,0-3.55,2.46,1.52,1.52,0,0,1-.95.51,1.32,1.32,0,0,1-.91-.57A34.51,34.51,0,0,1,325.32,191.55Z" fill="url(#名称未設定グラデーション_2)"/><path d="M383.28,170.88a78.88,78.88,0,0,1,16.84,7.22c.47.24.7.54.7.9a1.24,1.24,0,0,1-.1.47,31.39,31.39,0,0,1-2.28,4.61c-.22.39-.46.59-.7.59a.87.87,0,0,1-.59-.26,58.15,58.15,0,0,0-13.93-6.8v11.72q0,2.89.21,10.38v.15c0,.43-.32.65-1,.65-.79.05-1.58.08-2.35.08s-1.58,0-2.36-.08-1-.27-1-.8q.21-5.13.21-10.43V163.19a47.24,47.24,0,0,0-.52-7.84,38,38,0,0,1,6.63.85c.67.14,1,.44,1,.91a2.82,2.82,0,0,1-.44,1.22c-.24.46-.36,2.12-.36,5Zm9.54-11.08,2.8-1.94a.56.56,0,0,1,.34-.13.85.85,0,0,1,.46.23,22.34,22.34,0,0,1,5,5.67.64.64,0,0,1,.16.39.63.63,0,0,1-.29.46l-2.25,1.64a.69.69,0,0,1-.41.18c-.16,0-.31-.12-.47-.34A27.39,27.39,0,0,0,392.82,159.8Zm4.87-3.49,2.67-1.92a.63.63,0,0,1,.33-.13.72.72,0,0,1,.44.24,20.43,20.43,0,0,1,5.05,5.46.92.92,0,0,1,.15.44.63.63,0,0,1-.31.51l-2.12,1.66a.77.77,0,0,1-.41.15.58.58,0,0,1-.49-.33A25.34,25.34,0,0,0,397.69,156.31Z" fill="url(#名称未設定グラデーション_2)"/><path d="M441.9,186.64V169.3H423.4a75.48,75.48,0,0,0-7.94.31c-.54,0-.81-.3-.81-.91a53.52,53.52,0,0,1-.26-5.64q3.71.36,8.86.36H439q2.77,0,8.38-.2c.71,0,1.06.25,1.06.75v.15l-.1,8.36v12.68c0,2.5.07,5.7.21,9.58q0,.67-1,.75c-.72,0-1.5.08-2.33.08s-1.6,0-2.33-.08a1.65,1.65,0,0,1-.85-.21,1.07,1.07,0,0,1-.16-.7v-2.12H423.69c-1.39,0-3,0-4.95.1-2.1.07-3.35.11-3.75.11s-.7-.27-.75-.81a49.92,49.92,0,0,1-.26-5.48q4.14.26,9.76.26Z" fill="url(#名称未設定グラデーション_2)"/><path d="M458.48,174.86a78.34,78.34,0,0,0,11.44.65H487q2.5,0,6.47-.08c3.36-.05,5.27-.08,5.72-.1h.26q.69,0,.69.75c.06.81.08,1.65.08,2.51s0,1.67-.08,2.48q0,.81-.75.81h-.2q-7.95-.1-11.83-.11H468.29l-7.79.65a1.17,1.17,0,0,1-1.22-1.11A50,50,0,0,1,458.48,174.86Z" fill="url(#名称未設定グラデーション_2)"/><path d="M517.57,174a112.52,112.52,0,0,0,13.2-5.15,19.09,19.09,0,0,0,5.67-3.81,27.32,27.32,0,0,1,4.4,4.77,1.46,1.46,0,0,1,.41,1c0,.49-.29.81-.88,1a35,35,0,0,0-4.4,1.73A137.44,137.44,0,0,1,517.49,180v7a6.45,6.45,0,0,0,.42,2.79,2.14,2.14,0,0,0,1.37,1,27.45,27.45,0,0,0,6.65.59,96.54,96.54,0,0,0,15-1.24l.33,0c.37,0,.57.26.63.78.2,2,.31,3.5.31,4.61,0,.58-.37.9-1.12,1a126.8,126.8,0,0,1-15.73,1c-4.5,0-7.87-.47-10.09-1.42-2.51-1.06-3.76-3.71-3.76-8V168.55a68.85,68.85,0,0,0-.51-9.71,44.11,44.11,0,0,1,6.67,1.06c.57.13.86.42.86.88a2.22,2.22,0,0,1-.39,1.09,13.31,13.31,0,0,0-.52,4.76Z" fill="url(#名称未設定グラデーション_2)"/><path d="M549.63,174.86a78.34,78.34,0,0,0,11.44.65h17.08q2.51,0,6.47-.08c3.36-.05,5.27-.08,5.72-.1h.26q.69,0,.69.75c.06.81.08,1.65.08,2.51s0,1.67-.08,2.48q0,.81-.75.81h-.2q-8-.1-11.83-.11H559.44l-7.79.65a1.17,1.17,0,0,1-1.22-1.11A50,50,0,0,1,549.63,174.86Z" fill="url(#名称未設定グラデーション_2)"/><path d="M615.18,157.52V193h8.13v5.2H600.14V193h8.52V164.3a28.7,28.7,0,0,1-8,3.6l-1.11-5.61a32.11,32.11,0,0,0,10.09-4.77Z" fill="url(#名称未設定グラデーション_2)"/><path d="M633.91,190c-.31.53-.58.8-.8.8s-.38-.3-.57-.91a16.07,16.07,0,0,0-2-4.4A43.73,43.73,0,0,0,638.67,169h-.52l-5.46.1a.8.8,0,0,1-.51-.1,1,1,0,0,1-.08-.49v-3.81c0-.27,0-.44.13-.51s.21-.08.46-.08l5.46.13h1.07v-3a51.14,51.14,0,0,0-.44-7.53q2.72.07,5.25.36c.6.07.9.29.9.65a3.05,3.05,0,0,1-.31,1c-.22.47-.33,2.27-.33,5.41v3.08h.44l5.46-.13c.27,0,.44,0,.49.1a1,1,0,0,1,.08.49v3.81c0,.29,0,.46-.11.52a.89.89,0,0,1-.46.07l-5.31-.1a22.47,22.47,0,0,0,6.27,7.74,14.48,14.48,0,0,0-2,3.59c-.28.64-.51,1-.7,1s-.4-.25-.78-.75a26.5,26.5,0,0,1-3.52-5.82q.06,9.45.24,19.49c0,1.34.07,3.21.13,5.61,0,1,0,1.66,0,1.81,0,.3,0,.47-.13.52a1.06,1.06,0,0,1-.52.08h-4.29c-.28,0-.44,0-.49-.11s-.08-.23-.08-.49,0-1.43.08-3.78q.2-10.81.28-19.84A46.62,46.62,0,0,1,633.91,190Zm23-27.36-7.12.1c-.29,0-.48,0-.54-.1a.79.79,0,0,1-.08-.46v-4.3c0-.29,0-.47.1-.52a1.06,1.06,0,0,1,.52-.08l7.12.11h15l7.17-.11c.34,0,.52.2.52.6v4.3c0,.38-.18.56-.52.56l-7.17-.1h-4.45q-.47,1.81-1.58,4.87v26.13l.1,8c0,.28,0,.45-.1.52a.88.88,0,0,1-.46.08H661a.93.93,0,0,1-.57-.11,1,1,0,0,1-.07-.49l.1-8v-9.75c0-1.35,0-3.5.1-6.47a53.13,53.13,0,0,1-9.26,11.13c-.6.53-1,.8-1.16.8s-.6-.37-1-1.11a12.35,12.35,0,0,0-2.57-3.19,43.12,43.12,0,0,0,15.32-22.41ZM680.7,184a17.46,17.46,0,0,0-3,3.7c-.36.68-.68,1-1,1s-.58-.27-1.06-.8a57,57,0,0,1-9.65-13.77,1.23,1.23,0,0,1-.11-.44c0-.26.19-.5.55-.72l2.9-1.79a1.07,1.07,0,0,1,.54-.23q.28,0,.57.54A41.14,41.14,0,0,0,680.7,184Z" fill="url(#名称未設定グラデーション_2)"/><path d="M693.45,188.22l-7,.1c-.28,0-.45,0-.52-.1a.93.93,0,0,1-.08-.47V184c0-.27,0-.44.1-.49a1,1,0,0,1,.5-.08l5.56.11v-7.17h-1.55l-6.52.13c-.35,0-.52-.2-.52-.6v-3.85c0-.4.17-.6.52-.6l6.52.11H692v-5.31c-.76.81-1.65,1.66-2.66,2.54a3,3,0,0,1-1.22.7c-.23,0-.61-.36-1.17-1.07a11.19,11.19,0,0,0-2.38-2.32,29.9,29.9,0,0,0,9.22-9.86,19,19,0,0,0,1.32-3.19,29,29,0,0,1,4.55,1.32c.5.19.75.42.75.67a.89.89,0,0,1-.49.76,6.06,6.06,0,0,0-1.22,1.55c-.64,1-1.21,1.9-1.73,2.64h24.07l7.24-.11c.31,0,.49,0,.55.11a.82.82,0,0,1,.1.49v3.8c0,.26,0,.42-.13.47a1.06,1.06,0,0,1-.52.08l-.64,0-4.17-.08v6.84h.85l6.5-.11q.54,0,.54.6v3.85q0,.6-.54.6l-6.5-.13h-.85v7.17l5.3-.11c.28,0,.44,0,.5.11a.91.91,0,0,1,.07.46v3.73a.43.43,0,0,1-.57.57l-7-.1Zm-3,1.81c.1-.3.23-.44.38-.44a2.72,2.72,0,0,1,.68.2l3.08,1.3c.39.17.59.34.59.52a1.32,1.32,0,0,1-.13.41,34,34,0,0,1-6.26,9.29.62.62,0,0,1-.47.31,1.66,1.66,0,0,1-.64-.31l-3-2.07c-.35-.21-.52-.41-.52-.6s.09-.25.28-.46A26.94,26.94,0,0,0,690.43,190Zm6.47-18.45H701v-6.84H696.9Zm0,12H701v-7.17H696.9Zm6,7.3h.39c.28,0,.45.18.52.54a52.45,52.45,0,0,1,1.22,8.8,1.5,1.5,0,0,1,0,.2c0,.32-.24.5-.72.55l-3.81.31c-.22,0-.38,0-.46,0-.3,0-.44-.19-.44-.56a44.65,44.65,0,0,0-.91-8.75,2,2,0,0,1,0-.31c0-.28.27-.43.82-.47Zm2.72-19.28h4.19v-6.84h-4.19Zm0,12h4.19v-7.17h-4.19Zm8.62,7.48a46.42,46.42,0,0,1,2.72,8.41,2.64,2.64,0,0,1,.05.36c0,.22-.23.39-.7.49l-3.75.75a4.71,4.71,0,0,1-.6.08c-.21,0-.34-.17-.41-.52a46.42,46.42,0,0,0-2.23-8.51,1.57,1.57,0,0,1-.08-.39c0-.17.24-.31.7-.41l3.29-.7a2.7,2.7,0,0,1,.47-.06C713.89,190.54,714.07,190.71,714.21,191Zm.18-19.46h4.24v-6.84h-4.24Zm0,12h4.24v-7.17h-4.24Zm10.07,6.31a44.08,44.08,0,0,1,5.72,8.36.88.88,0,0,1,.15.39c0,.15-.21.34-.65.57l-3.33,1.86a1.59,1.59,0,0,1-.57.18c-.16,0-.31-.14-.47-.41A52.22,52.22,0,0,0,720,192a.73.73,0,0,1-.18-.36c0-.12.2-.28.6-.47l2.92-1.45a1.42,1.42,0,0,1,.6-.21Q724.12,189.48,724.46,189.87Z" fill="url(#名称未設定グラデーション_2)"/><path d="M744.32,153.72c1.91.05,3.71.17,5.38.36.57,0,.86.23.86.54a3.21,3.21,0,0,1-.34,1.12c-.24.48-.36,2.26-.36,5.33v10h.41l5.72-.1c.29,0,.47,0,.52.1a1,1,0,0,1,.08.49v3.76q0,.54-.6.54l-5.38-.1a50.43,50.43,0,0,0,7.14,9.16,15.71,15.71,0,0,0-2.12,3.49q-.46,1-.75,1c-.19,0-.47-.27-.83-.8a44.75,44.75,0,0,1-4.3-7.59l.37,20.78a.72.72,0,0,1-.13.52,1,1,0,0,1-.49.08h-4.38c-.28,0-.44,0-.49-.1a1,1,0,0,1-.08-.5c0-.13,0-1.19.08-3.18q.21-9.18.28-16.25a50.31,50.31,0,0,1-6.41,12.06c-.45.57-.77.85-1,.85s-.43-.3-.62-.9a11.58,11.58,0,0,0-1.92-3.86,45.64,45.64,0,0,0,8.54-14.72h-.95l-5.78.1c-.39,0-.59-.18-.59-.54v-3.76c0-.29,0-.46.1-.51a.89.89,0,0,1,.49-.08l5.78.1h2.17V161.2A55.87,55.87,0,0,0,744.32,153.72Zm-3.7,4.19a44.28,44.28,0,0,1,2.84,8.9,1,1,0,0,1,.06.29c0,.26-.24.48-.73.67l-2.28.86a2.45,2.45,0,0,1-.64.18c-.16,0-.26-.18-.31-.52a40.82,40.82,0,0,0-2.69-8.85,1.19,1.19,0,0,1-.11-.42c0-.19.23-.37.68-.54l2.22-.9a1.47,1.47,0,0,1,.52-.16C740.32,157.42,740.46,157.58,740.62,157.91Zm10.22,9.42a47,47,0,0,0,2.43-8,16,16,0,0,0,.34-2.27c2.1.7,3.44,1.2,4,1.47.4.21.6.43.6.65a.56.56,0,0,1-.31.52,2.06,2.06,0,0,0-.65,1.19,66.53,66.53,0,0,1-2.43,6.73q-.47,1.11-.81,1.11a2.89,2.89,0,0,1-1.06-.49A14.09,14.09,0,0,0,750.84,167.33Zm13.59,17.6,8.1-1.58V162.13a59,59,0,0,0-.44-8q3.1.07,5.64.36c.53.07.8.27.8.6a4.5,4.5,0,0,1-.33,1.06,27.12,27.12,0,0,0-.32,5.87v20.32c1.32-.28,2.48-.54,3.5-.8.17,0,.46-.11.88-.24l.39-.07a1.16,1.16,0,0,1,.28-.06c.14,0,.24.19.31.57l.62,4.14c0,.14,0,.23,0,.26,0,.19-.18.31-.55.37q-.15,0-1.68.33l-3.78.73v4.94l.11,9.16a.8.8,0,0,1-.11.52.94.94,0,0,1-.49.08H773c-.27,0-.44-.05-.49-.13a.83.83,0,0,1-.08-.47l.11-9.11v-3.93L765.26,190q-3,.57-5.15,1c-.31.05-.72.13-1.22.24l-.47.1a2,2,0,0,1-.33,0c-.21,0-.33-.15-.37-.47l-.67-4.19a2.64,2.64,0,0,1,0-.36c0-.16.17-.27.52-.34l1-.15Q761.08,185.58,764.43,184.93Zm-2.56-15.14a35.63,35.63,0,0,1,7.32,6.78,1,1,0,0,1,.26.49c0,.12-.14.33-.42.62l-2.61,2.59c-.29.28-.5.41-.62.41s-.25-.1-.44-.31a44,44,0,0,0-7-7.19,2.19,2.19,0,0,1-.36-.44c0-.1.14-.29.41-.57l2.44-2.33c.24-.26.4-.39.49-.39A1.36,1.36,0,0,1,761.87,169.79Zm1.42-12.27a36.15,36.15,0,0,1,7.48,6.76.66.66,0,0,1,.23.44q0,.21-.39.57l-2.53,2.48c-.33.31-.55.47-.65.47s-.22-.11-.36-.31a36.34,36.34,0,0,0-7.22-7c-.19-.13-.29-.25-.29-.39s.13-.37.39-.6l2.33-2.22q.47-.42.6-.42A.81.81,0,0,1,763.29,157.52Z" fill="url(#名称未設定グラデーション_2)"/><g opacity="0.8"><path d="M86.24,157.11v5.67H66.36v11.07h15v5.67h-15v18.71H59.14V157.11Z" fill="url(#名称未設定グラデーション_13)"/><path d="M100.67,168.5a12,12,0,0,1,10,4.58q3.2,4.06,3.19,10.58,0,7.53-4.09,11.72a12.2,12.2,0,0,1-9.11,3.6,12,12,0,0,1-10-4.58q-3.16-4-3.16-10.58c0-5,1.37-8.91,4.12-11.73A12.22,12.22,0,0,1,100.67,168.5Zm0,4.81q-6.36,0-6.37,10.4t6.32,10.46q6.36,0,6.36-10.46T100.67,173.31Z" fill="url(#名称未設定グラデーション_13)"/><path d="M135,168.5l-.44,6.26q-5.57,0-8.25,7.37v16.1h-6.58V169.14H126v7.15Q128.78,168.49,135,168.5Z" fill="url(#名称未設定グラデーション_13)"/><path d="M163.69,185.14H144c0,3,.74,5.36,2.12,7a6.5,6.5,0,0,0,5.21,2.2q4.68,0,6.13-5.53l6.06,1.75Q160.8,199,151.27,199q-7,0-10.59-4.5-3.18-3.93-3.18-10.61,0-7.56,4.14-11.75a12.11,12.11,0,0,1,9.06-3.62,11.78,11.78,0,0,1,9.73,4.47q3.25,4.07,3.26,10.79Zm-6.52-4.4q-.49-7.63-6.37-7.64a5.84,5.84,0,0,0-4.94,2.33,9.77,9.77,0,0,0-1.73,5.31Z" fill="url(#名称未設定グラデーション_13)"/><path d="M190.94,175.92l-6.32,1.81q-1.08-4.68-5.18-4.68a5.38,5.38,0,0,0-3.49,1,2.54,2.54,0,0,0-1.06,2.09,3.29,3.29,0,0,0,1.16,2.75,12.63,12.63,0,0,0,4,1.6l2.43.65q5.28,1.4,7.27,3.59a7.57,7.57,0,0,1,1.76,5.26,7.78,7.78,0,0,1-3.34,6.73q-3.08,2.22-8.43,2.22-9.51,0-12.14-7.27l6.21-2.17q1.39,4.89,6.08,4.89,5.31,0,5.31-3.76A3.05,3.05,0,0,0,184,188a18.31,18.31,0,0,0-4.37-1.66l-2.43-.67q-5.05-1.35-6.91-3.52a8,8,0,0,1-1.63-5.33,7.22,7.22,0,0,1,3.18-6.19,13,13,0,0,1,7.74-2.09Q188.43,168.5,190.94,175.92Z" fill="url(#名称未設定グラデーション_13)"/><path d="M205.61,159.65v9.49h6.52V174h-6.52v16q0,4.19,3.6,4.19a14.82,14.82,0,0,0,3.39-.34l-.26,4.76a34.14,34.14,0,0,1-5.2.34q-4.42,0-6.37-2.12a8.08,8.08,0,0,1-1.73-5.62V174h-4.35v-4.87H199v-8Z" fill="url(#名称未設定グラデーション_13)"/><path d="M230.21,161.85q3.34.36,10.18.36H259.3a5.94,5.94,0,0,0,2.93-.55,1.67,1.67,0,0,1,.8-.2,2.59,2.59,0,0,1,1,.26,15.67,15.67,0,0,1,3.88,3.49,1.45,1.45,0,0,1,.37.91,1.79,1.79,0,0,1-.75,1.31,8.33,8.33,0,0,0-1.22,2.08A63.07,63.07,0,0,1,256,186.74a59.1,59.1,0,0,1-15,12.63,2.68,2.68,0,0,1-1.45.47,1.88,1.88,0,0,1-1.32-.57,15.23,15.23,0,0,0-4.92-2.93A60.63,60.63,0,0,0,243.57,190a51.3,51.3,0,0,0,7-6.86,47,47,0,0,0,9-15.11H240.44c-2.07,0-5,.08-8.75.26-.55,0-.89-.3-1-1.06S230.4,164.52,230.21,161.85Zm33.54-4.64,2.57-1.73a.45.45,0,0,1,.31-.13.76.76,0,0,1,.46.23,22.81,22.81,0,0,1,5.05,5.67.69.69,0,0,1,.15.39.61.61,0,0,1-.31.46l-2,1.43a.83.83,0,0,1-.42.15.64.64,0,0,1-.49-.33A26.75,26.75,0,0,0,263.75,157.21Zm4.64-3.28,2.27-1.69a.66.66,0,0,1,.34-.13.72.72,0,0,1,.44.24,20.32,20.32,0,0,1,5.05,5.46.77.77,0,0,1,.15.41.79.79,0,0,1-.31.55l-1.76,1.42a.59.59,0,0,1-.41.21.54.54,0,0,1-.49-.37A26,26,0,0,0,268.39,153.93Z" fill="url(#名称未設定グラデーション_13)"/><path d="M290.38,188.86a94.67,94.67,0,0,0,13.51-6.67,72.51,72.51,0,0,0,14.05-10.82,23,23,0,0,0,.85,6.13,2.73,2.73,0,0,1,.16.86,1.61,1.61,0,0,1-.7,1.26A84,84,0,0,1,305,188.73a119.81,119.81,0,0,1-13,6.58,11.88,11.88,0,0,0-3,1.7,1.6,1.6,0,0,1-1,.42,1.51,1.51,0,0,1-.9-.42,16.65,16.65,0,0,1-3.24-3.59,1.4,1.4,0,0,1-.31-.86,2.08,2.08,0,0,1,.26-.9,12,12,0,0,0,.21-3l.13-19.93a52.7,52.7,0,0,0-.6-9.21,50.42,50.42,0,0,1,6.88,1.16,1,1,0,0,1,.86,1,4.6,4.6,0,0,1-.26,1.12,23,23,0,0,0-.6,6.57Z" fill="url(#名称未設定グラデーション_13)"/><path d="M324.15,165.11c.88-1.07,2.12-2.45,3.7-4.14a1,1,0,0,1,.75-.42,1.69,1.69,0,0,1,.7.26,47.65,47.65,0,0,1,10.12,7.53c.31.31.47.56.47.75a1.17,1.17,0,0,1-.31.67q-1.74,2.31-3.29,4c-.29.28-.51.41-.65.41a1.11,1.11,0,0,1-.67-.41A54.49,54.49,0,0,0,324.15,165.11Zm1.17,26.44a38,38,0,0,0,7.17-2.64A96.58,96.58,0,0,0,341,184a83.39,83.39,0,0,0,6.73-5,112.61,112.61,0,0,0,8.46-7.45,80.5,80.5,0,0,0,6.08-7,25,25,0,0,0,1.48,6.19,2.83,2.83,0,0,1,.26,1,2.91,2.91,0,0,1-.86,1.61A81.87,81.87,0,0,1,351,184.67a122.77,122.77,0,0,1-16,10.38,20.73,20.73,0,0,0-3.55,2.46,1.52,1.52,0,0,1-.95.51,1.32,1.32,0,0,1-.91-.57A34.51,34.51,0,0,1,325.32,191.55Z" fill="url(#名称未設定グラデーション_13)"/><path d="M383.28,170.88a78.88,78.88,0,0,1,16.84,7.22c.47.24.7.54.7.9a1.24,1.24,0,0,1-.1.47,31.39,31.39,0,0,1-2.28,4.61c-.22.39-.46.59-.7.59a.87.87,0,0,1-.59-.26,58.15,58.15,0,0,0-13.93-6.8v11.72q0,2.89.21,10.38v.15c0,.43-.32.65-1,.65-.79.05-1.58.08-2.35.08s-1.58,0-2.36-.08-1-.27-1-.8q.21-5.13.21-10.43V163.19a47.24,47.24,0,0,0-.52-7.84,38,38,0,0,1,6.63.85c.67.14,1,.44,1,.91a2.82,2.82,0,0,1-.44,1.22c-.24.46-.36,2.12-.36,5Zm9.54-11.08,2.8-1.94a.56.56,0,0,1,.34-.13.85.85,0,0,1,.46.23,22.34,22.34,0,0,1,5,5.67.64.64,0,0,1,.16.39.63.63,0,0,1-.29.46l-2.25,1.64a.69.69,0,0,1-.41.18c-.16,0-.31-.12-.47-.34A27.39,27.39,0,0,0,392.82,159.8Zm4.87-3.49,2.67-1.92a.63.63,0,0,1,.33-.13.72.72,0,0,1,.44.24,20.43,20.43,0,0,1,5.05,5.46.92.92,0,0,1,.15.44.63.63,0,0,1-.31.51l-2.12,1.66a.77.77,0,0,1-.41.15.58.58,0,0,1-.49-.33A25.34,25.34,0,0,0,397.69,156.31Z" fill="url(#名称未設定グラデーション_13)"/><path d="M441.9,186.64V169.3H423.4a75.48,75.48,0,0,0-7.94.31c-.54,0-.81-.3-.81-.91a53.52,53.52,0,0,1-.26-5.64q3.71.36,8.86.36H439q2.77,0,8.38-.2c.71,0,1.06.25,1.06.75v.15l-.1,8.36v12.68c0,2.5.07,5.7.21,9.58q0,.67-1,.75c-.72,0-1.5.08-2.33.08s-1.6,0-2.33-.08a1.65,1.65,0,0,1-.85-.21,1.07,1.07,0,0,1-.16-.7v-2.12H423.69c-1.39,0-3,0-4.95.1-2.1.07-3.35.11-3.75.11s-.7-.27-.75-.81a49.92,49.92,0,0,1-.26-5.48q4.14.26,9.76.26Z" fill="url(#名称未設定グラデーション_13)"/><path d="M458.48,174.86a78.34,78.34,0,0,0,11.44.65H487q2.5,0,6.47-.08c3.36-.05,5.27-.08,5.72-.1h.26q.69,0,.69.75c.06.81.08,1.65.08,2.51s0,1.67-.08,2.48q0,.81-.75.81h-.2q-7.95-.1-11.83-.11H468.29l-7.79.65a1.17,1.17,0,0,1-1.22-1.11A50,50,0,0,1,458.48,174.86Z" fill="url(#名称未設定グラデーション_13)"/><path d="M517.57,174a112.52,112.52,0,0,0,13.2-5.15,19.09,19.09,0,0,0,5.67-3.81,27.32,27.32,0,0,1,4.4,4.77,1.46,1.46,0,0,1,.41,1c0,.49-.29.81-.88,1a35,35,0,0,0-4.4,1.73A137.44,137.44,0,0,1,517.49,180v7a6.45,6.45,0,0,0,.42,2.79,2.14,2.14,0,0,0,1.37,1,27.45,27.45,0,0,0,6.65.59,96.54,96.54,0,0,0,15-1.24l.33,0c.37,0,.57.26.63.78.2,2,.31,3.5.31,4.61,0,.58-.37.9-1.12,1a126.8,126.8,0,0,1-15.73,1c-4.5,0-7.87-.47-10.09-1.42-2.51-1.06-3.76-3.71-3.76-8V168.55a68.85,68.85,0,0,0-.51-9.71,44.11,44.11,0,0,1,6.67,1.06c.57.13.86.42.86.88a2.22,2.22,0,0,1-.39,1.09,13.31,13.31,0,0,0-.52,4.76Z" fill="url(#名称未設定グラデーション_13)"/><path d="M549.63,174.86a78.34,78.34,0,0,0,11.44.65h17.08q2.51,0,6.47-.08c3.36-.05,5.27-.08,5.72-.1h.26q.69,0,.69.75c.06.81.08,1.65.08,2.51s0,1.67-.08,2.48q0,.81-.75.81h-.2q-8-.1-11.83-.11H559.44l-7.79.65a1.17,1.17,0,0,1-1.22-1.11A50,50,0,0,1,549.63,174.86Z" fill="url(#名称未設定グラデーション_13)"/><path d="M615.18,157.52V193h8.13v5.2H600.14V193h8.52V164.3a28.7,28.7,0,0,1-8,3.6l-1.11-5.61a32.11,32.11,0,0,0,10.09-4.77Z" fill="url(#名称未設定グラデーション_13)"/><path d="M633.91,190c-.31.53-.58.8-.8.8s-.38-.3-.57-.91a16.07,16.07,0,0,0-2-4.4A43.73,43.73,0,0,0,638.67,169h-.52l-5.46.1a.8.8,0,0,1-.51-.1,1,1,0,0,1-.08-.49v-3.81c0-.27,0-.44.13-.51s.21-.08.46-.08l5.46.13h1.07v-3a51.14,51.14,0,0,0-.44-7.53q2.72.07,5.25.36c.6.07.9.29.9.65a3.05,3.05,0,0,1-.31,1c-.22.47-.33,2.27-.33,5.41v3.08h.44l5.46-.13c.27,0,.44,0,.49.1a1,1,0,0,1,.08.49v3.81c0,.29,0,.46-.11.52a.89.89,0,0,1-.46.07l-5.31-.1a22.47,22.47,0,0,0,6.27,7.74,14.48,14.48,0,0,0-2,3.59c-.28.64-.51,1-.7,1s-.4-.25-.78-.75a26.5,26.5,0,0,1-3.52-5.82q.06,9.45.24,19.49c0,1.34.07,3.21.13,5.61,0,1,0,1.66,0,1.81,0,.3,0,.47-.13.52a1.06,1.06,0,0,1-.52.08h-4.29c-.28,0-.44,0-.49-.11s-.08-.23-.08-.49,0-1.43.08-3.78q.2-10.81.28-19.84A46.62,46.62,0,0,1,633.91,190Zm23-27.36-7.12.1c-.29,0-.48,0-.54-.1a.79.79,0,0,1-.08-.46v-4.3c0-.29,0-.47.1-.52a1.06,1.06,0,0,1,.52-.08l7.12.11h15l7.17-.11c.34,0,.52.2.52.6v4.3c0,.38-.18.56-.52.56l-7.17-.1h-4.45q-.47,1.81-1.58,4.87v26.13l.1,8c0,.28,0,.45-.1.52a.88.88,0,0,1-.46.08H661a.93.93,0,0,1-.57-.11,1,1,0,0,1-.07-.49l.1-8v-9.75c0-1.35,0-3.5.1-6.47a53.13,53.13,0,0,1-9.26,11.13c-.6.53-1,.8-1.16.8s-.6-.37-1-1.11a12.35,12.35,0,0,0-2.57-3.19,43.12,43.12,0,0,0,15.32-22.41ZM680.7,184a17.46,17.46,0,0,0-3,3.7c-.36.68-.68,1-1,1s-.58-.27-1.06-.8a57,57,0,0,1-9.65-13.77,1.23,1.23,0,0,1-.11-.44c0-.26.19-.5.55-.72l2.9-1.79a1.07,1.07,0,0,1,.54-.23q.28,0,.57.54A41.14,41.14,0,0,0,680.7,184Z" fill="url(#名称未設定グラデーション_13)"/><path d="M693.45,188.22l-7,.1c-.28,0-.45,0-.52-.1a.93.93,0,0,1-.08-.47V184c0-.27,0-.44.1-.49a1,1,0,0,1,.5-.08l5.56.11v-7.17h-1.55l-6.52.13c-.35,0-.52-.2-.52-.6v-3.85c0-.4.17-.6.52-.6l6.52.11H692v-5.31c-.76.81-1.65,1.66-2.66,2.54a3,3,0,0,1-1.22.7c-.23,0-.61-.36-1.17-1.07a11.19,11.19,0,0,0-2.38-2.32,29.9,29.9,0,0,0,9.22-9.86,19,19,0,0,0,1.32-3.19,29,29,0,0,1,4.55,1.32c.5.19.75.42.75.67a.89.89,0,0,1-.49.76,6.06,6.06,0,0,0-1.22,1.55c-.64,1-1.21,1.9-1.73,2.64h24.07l7.24-.11c.31,0,.49,0,.55.11a.82.82,0,0,1,.1.49v3.8c0,.26,0,.42-.13.47a1.06,1.06,0,0,1-.52.08l-.64,0-4.17-.08v6.84h.85l6.5-.11q.54,0,.54.6v3.85q0,.6-.54.6l-6.5-.13h-.85v7.17l5.3-.11c.28,0,.44,0,.5.11a.91.91,0,0,1,.07.46v3.73a.43.43,0,0,1-.57.57l-7-.1Zm-3,1.81c.1-.3.23-.44.38-.44a2.72,2.72,0,0,1,.68.2l3.08,1.3c.39.17.59.34.59.52a1.32,1.32,0,0,1-.13.41,34,34,0,0,1-6.26,9.29.62.62,0,0,1-.47.31,1.66,1.66,0,0,1-.64-.31l-3-2.07c-.35-.21-.52-.41-.52-.6s.09-.25.28-.46A26.94,26.94,0,0,0,690.43,190Zm6.47-18.45H701v-6.84H696.9Zm0,12H701v-7.17H696.9Zm6,7.3h.39c.28,0,.45.18.52.54a52.45,52.45,0,0,1,1.22,8.8,1.5,1.5,0,0,1,0,.2c0,.32-.24.5-.72.55l-3.81.31c-.22,0-.38,0-.46,0-.3,0-.44-.19-.44-.56a44.65,44.65,0,0,0-.91-8.75,2,2,0,0,1,0-.31c0-.28.27-.43.82-.47Zm2.72-19.28h4.19v-6.84h-4.19Zm0,12h4.19v-7.17h-4.19Zm8.62,7.48a46.42,46.42,0,0,1,2.72,8.41,2.64,2.64,0,0,1,.05.36c0,.22-.23.39-.7.49l-3.75.75a4.71,4.71,0,0,1-.6.08c-.21,0-.34-.17-.41-.52a46.42,46.42,0,0,0-2.23-8.51,1.57,1.57,0,0,1-.08-.39c0-.17.24-.31.7-.41l3.29-.7a2.7,2.7,0,0,1,.47-.06C713.89,190.54,714.07,190.71,714.21,191Zm.18-19.46h4.24v-6.84h-4.24Zm0,12h4.24v-7.17h-4.24Zm10.07,6.31a44.08,44.08,0,0,1,5.72,8.36.88.88,0,0,1,.15.39c0,.15-.21.34-.65.57l-3.33,1.86a1.59,1.59,0,0,1-.57.18c-.16,0-.31-.14-.47-.41A52.22,52.22,0,0,0,720,192a.73.73,0,0,1-.18-.36c0-.12.2-.28.6-.47l2.92-1.45a1.42,1.42,0,0,1,.6-.21Q724.12,189.48,724.46,189.87Z" fill="url(#名称未設定グラデーション_13)"/><path d="M744.32,153.72c1.91.05,3.71.17,5.38.36.57,0,.86.23.86.54a3.21,3.21,0,0,1-.34,1.12c-.24.48-.36,2.26-.36,5.33v10h.41l5.72-.1c.29,0,.47,0,.52.1a1,1,0,0,1,.08.49v3.76q0,.54-.6.54l-5.38-.1a50.43,50.43,0,0,0,7.14,9.16,15.71,15.71,0,0,0-2.12,3.49q-.46,1-.75,1c-.19,0-.47-.27-.83-.8a44.75,44.75,0,0,1-4.3-7.59l.37,20.78a.72.72,0,0,1-.13.52,1,1,0,0,1-.49.08h-4.38c-.28,0-.44,0-.49-.1a1,1,0,0,1-.08-.5c0-.13,0-1.19.08-3.18q.21-9.18.28-16.25a50.31,50.31,0,0,1-6.41,12.06c-.45.57-.77.85-1,.85s-.43-.3-.62-.9a11.58,11.58,0,0,0-1.92-3.86,45.64,45.64,0,0,0,8.54-14.72h-.95l-5.78.1c-.39,0-.59-.18-.59-.54v-3.76c0-.29,0-.46.1-.51a.89.89,0,0,1,.49-.08l5.78.1h2.17V161.2A55.87,55.87,0,0,0,744.32,153.72Zm-3.7,4.19a44.28,44.28,0,0,1,2.84,8.9,1,1,0,0,1,.06.29c0,.26-.24.48-.73.67l-2.28.86a2.45,2.45,0,0,1-.64.18c-.16,0-.26-.18-.31-.52a40.82,40.82,0,0,0-2.69-8.85,1.19,1.19,0,0,1-.11-.42c0-.19.23-.37.68-.54l2.22-.9a1.47,1.47,0,0,1,.52-.16C740.32,157.42,740.46,157.58,740.62,157.91Zm10.22,9.42a47,47,0,0,0,2.43-8,16,16,0,0,0,.34-2.27c2.1.7,3.44,1.2,4,1.47.4.21.6.43.6.65a.56.56,0,0,1-.31.52,2.06,2.06,0,0,0-.65,1.19,66.53,66.53,0,0,1-2.43,6.73q-.47,1.11-.81,1.11a2.89,2.89,0,0,1-1.06-.49A14.09,14.09,0,0,0,750.84,167.33Zm13.59,17.6,8.1-1.58V162.13a59,59,0,0,0-.44-8q3.1.07,5.64.36c.53.07.8.27.8.6a4.5,4.5,0,0,1-.33,1.06,27.12,27.12,0,0,0-.32,5.87v20.32c1.32-.28,2.48-.54,3.5-.8.17,0,.46-.11.88-.24l.39-.07a1.16,1.16,0,0,1,.28-.06c.14,0,.24.19.31.57l.62,4.14c0,.14,0,.23,0,.26,0,.19-.18.31-.55.37q-.15,0-1.68.33l-3.78.73v4.94l.11,9.16a.8.8,0,0,1-.11.52.94.94,0,0,1-.49.08H773c-.27,0-.44-.05-.49-.13a.83.83,0,0,1-.08-.47l.11-9.11v-3.93L765.26,190q-3,.57-5.15,1c-.31.05-.72.13-1.22.24l-.47.1a2,2,0,0,1-.33,0c-.21,0-.33-.15-.37-.47l-.67-4.19a2.64,2.64,0,0,1,0-.36c0-.16.17-.27.52-.34l1-.15Q761.08,185.58,764.43,184.93Zm-2.56-15.14a35.63,35.63,0,0,1,7.32,6.78,1,1,0,0,1,.26.49c0,.12-.14.33-.42.62l-2.61,2.59c-.29.28-.5.41-.62.41s-.25-.1-.44-.31a44,44,0,0,0-7-7.19,2.19,2.19,0,0,1-.36-.44c0-.1.14-.29.41-.57l2.44-2.33c.24-.26.4-.39.49-.39A1.36,1.36,0,0,1,761.87,169.79Zm1.42-12.27a36.15,36.15,0,0,1,7.48,6.76.66.66,0,0,1,.23.44q0,.21-.39.57l-2.53,2.48c-.33.31-.55.47-.65.47s-.22-.11-.36-.31a36.34,36.34,0,0,0-7.22-7c-.19-.13-.29-.25-.29-.39s.13-.37.39-.6l2.33-2.22q.47-.42.6-.42A.81.81,0,0,1,763.29,157.52Z" fill="url(#名称未設定グラデーション_13)"/></g><path d="M357.32,65.41c0,.25-.17.38-.5.37l-1.5-.23c-2-.23-3.35-.42-4-.55-1.08-.22-2-.43-2.62-.64a12.8,12.8,0,0,1-2.57-1.16,10.59,10.59,0,0,1-2-1.52,9.5,9.5,0,0,1-1.42-1.87,8.63,8.63,0,0,1-.88-2.13,9.37,9.37,0,0,1-.28-2.41,11.11,11.11,0,0,1,.9-3.76c.59-1.51,1-2.45,1.19-2.82a9.4,9.4,0,0,1,1.49-1.81,11.51,11.51,0,0,1,3.24-2.23c.48-.24.72-.41.73-.53a2.79,2.79,0,0,1,1-.17,3.3,3.3,0,0,0,1.21-.21,5.07,5.07,0,0,1,1.75-.2,4.25,4.25,0,0,1,1,.1c.29.07.68.13,1.15.2l1.1.17a3.13,3.13,0,0,1,.65.2c.18.09.27.18.27.29a5.25,5.25,0,0,1-.31,1.13c-.2.61-.47.92-.8.92a1.16,1.16,0,0,1-.56-.2,3.35,3.35,0,0,0-1.76-1,7.42,7.42,0,0,0-1.52-.3,8.84,8.84,0,0,0-.9,0l-.86,0-.3.05a1.11,1.11,0,0,0-.47.11l-.48.25a2.07,2.07,0,0,1-.41.15,1.47,1.47,0,0,1-.36,0h-.14l-.21.22a1,1,0,0,0-.73.32h-.31q-3.79,4-3.83,8.31a8,8,0,0,0,1.46,4.68,9.24,9.24,0,0,0,4,3.27A13.7,13.7,0,0,0,354,63.64a10.89,10.89,0,0,0,1.57-.18c.72-.13,1.08-.26,1.08-.41.44,0,.65.78.64,2.31Z" fill="#fff"/><path d="M372.22,56.57a.6.6,0,0,1-.2.33,1.48,1.48,0,0,0-.27.37,3.4,3.4,0,0,0-.12.87c0,.47-.05,1.16-.06,2.08l0,2a.35.35,0,0,1-.13.28,3.45,3.45,0,0,0,0,.55,7.56,7.56,0,0,0,.16,1.4l.16.79,0,.73,0,.64c-.7.7-1.22,1.06-1.55,1.06a.87.87,0,0,1-.28-.11.82.82,0,0,0-.37-.11h-.09a3.08,3.08,0,0,1-.11-.74,3.28,3.28,0,0,1,.34-1.4,2.91,2.91,0,0,0,.24-.32,2.29,2.29,0,0,0,.09-.89c0-.57,0-.85-.17-.85l-.18.06a.7.7,0,0,1-.32,0h-.12a.56.56,0,0,0-.22.31,12,12,0,0,0-1.89.66,5,5,0,0,1-1.62.29,4.79,4.79,0,0,1-1.52-.25,2.87,2.87,0,0,1-1.14-.69,4.3,4.3,0,0,1-.59-.68,2.2,2.2,0,0,1-.13-1l0-.38v-.12c0-1,.76-2,2.27-3.1a10.33,10.33,0,0,1,4.2-2,4.54,4.54,0,0,0,.81-.18,1.11,1.11,0,0,0,.48-.31,1.74,1.74,0,0,0,.2-1,3.56,3.56,0,0,0-2.68-3.61,1.31,1.31,0,0,1-.24-.12.54.54,0,0,0-.27-.09,17.42,17.42,0,0,0-2.33.1,1.53,1.53,0,0,1-1.16.6c-.32,0-.47-.12-.47-.35l.21-.63a.94.94,0,0,1,1-.61,7.57,7.57,0,0,1,3.32-.48,3.42,3.42,0,0,1,3,1.57,7.69,7.69,0,0,1,1,4.42V56a.65.65,0,0,0,.4.28c.19.06.29.15.29.27Zm-2.88,5.26a4,4,0,0,0,.92-2.25,3.42,3.42,0,0,0-.28-1.33,1.15,1.15,0,0,0-1.17-.72,4.22,4.22,0,0,0-2.78.86h-.36c-1.48.84-2.23,1.72-2.24,2.66a2,2,0,0,0,.91,1.68,3.39,3.39,0,0,0,2.12.69,5.3,5.3,0,0,0,1.21-.27,4.06,4.06,0,0,0,1.67-1Z" fill="#fff"/><path d="M390.26,37.81a.7.7,0,0,1,.51.4,1.18,1.18,0,0,1,.16.57.56.56,0,0,1-.46.55v.06c0,.32-.22.51-.64.57a.86.86,0,0,0-.73-.31c-.08,0-.15.07-.21.22a3.58,3.58,0,0,0-.5-.07c-.44,0-.68.11-.71.33h-.26c-.63,0-1,.12-1.18.37l-.64.38a4.67,4.67,0,0,0-.87.61,5.86,5.86,0,0,0-.85,1.1,11.07,11.07,0,0,0-1,2,10.86,10.86,0,0,0-.6,2c-.08.54-.21,1.17-.37,1.87a11.1,11.1,0,0,0-.25,1.23c0,.89.24,1.34.74,1.34a.78.78,0,0,0,.24,0,.37.37,0,0,0,.31.2.49.49,0,0,0,.17,0,.79.79,0,0,1,.34,0,3.89,3.89,0,0,0,.47,0A6.2,6.2,0,0,0,385.1,51a6.54,6.54,0,0,1,1.32-.18l.38.06c.19,0,.3.09.31.18s.05.27.1.56h0c-.1,0-.28.16-.53.48a1,1,0,0,0-.21-.21.36.36,0,0,1-.39.24c-.13,0-.45,0-.94-.08s-.92-.08-1.29-.09l-.47,0-.42,0a2.39,2.39,0,0,1-.44-.07.52.52,0,0,1-.21.06.7.7,0,0,1-.23-.06.11.11,0,0,1-.12.12l-.06,0c-.16,0-.25,1.1-.26,3.31l0,1.65c0,1,.05,2.12.17,3.42s.2,2,.24,2.15a1.09,1.09,0,0,0,.26.42,1,1,0,0,0,0,.29,2,2,0,0,0,.14.66,2,2,0,0,1,.15.62v.09q-.45.28-1,.66a.78.78,0,0,1-.68.42h-.05l-.37-.44c-.17-.21-.32-.32-.45-.32l-.12,0a1.81,1.81,0,0,1-.18-.58,1,1,0,0,1,.25-.38,1.38,1.38,0,0,0,.26-.93l0-.34.06-1.38c.05-1,.08-2.07.08-3.12s0-2.14-.09-3.29-.1-1.86-.1-2.11l0-.59c0-.11-.12-.17-.36-.17l-.19,0-.22,0a.47.47,0,0,1-.19,0,.18.18,0,0,0-.11.19c-.06-.13-.13-.19-.2-.19l-.31,0a.61.61,0,0,1-.14-.12v0c0-.13.11-.27.32-.41a3.18,3.18,0,0,0,.45-.34h.27a.48.48,0,0,0,.21-.4h.11a.42.42,0,0,0,.38-.19,4.11,4.11,0,0,0,.31-1.27c.1-.71.17-1.31.2-1.78a14.77,14.77,0,0,1,1.29-4,14.16,14.16,0,0,1,1.51-2.45,8.23,8.23,0,0,1,1.7-1.53,3.33,3.33,0,0,1,1.4-.71h.16a1.8,1.8,0,0,1,1.11-.47l.4-.28C389.51,38.09,390.17,38,390.26,37.81Z" fill="#fff"/><path d="M401.51,55.32a.48.48,0,0,1,.11.35.81.81,0,0,1-.23.63s0,0,0,.09-.21.24-.63.24h-.2c-.06,0-.11,0-.17.11s-.1.1-.13.1l-.14-.09a.76.76,0,0,0-.37-.12l-.17-.18a1.92,1.92,0,0,1-.62.08,4.86,4.86,0,0,1-.64-.06,2.93,2.93,0,0,0-1.27,0,4.33,4.33,0,0,1-.9.08l-1.41-.07a9.29,9.29,0,0,0-2.06.2,1.32,1.32,0,0,1-.39.11c-.17,0-.26.1-.27.23s-.12.24-.3.32a4.65,4.65,0,0,0-.15,1.1,9,9,0,0,0,.2,1.47,3.75,3.75,0,0,0,.57,1.55q.09.11,1.23,1a5.61,5.61,0,0,0,1.59.87,6.24,6.24,0,0,0,2,.3,10,10,0,0,0,1.11-.07l.61-.07h.93a1.42,1.42,0,0,0,.55-.26,1.73,1.73,0,0,1,.8-.31,2.05,2.05,0,0,1,.17.73,2,2,0,0,1-.42,1.22,1.22,1.22,0,0,1-.95.51l-.3-.06-.91,0H398a18.79,18.79,0,0,1-2.69-.5,8.47,8.47,0,0,1-3.17-1.27,4.45,4.45,0,0,1-1.48-2,6.47,6.47,0,0,1-.46-2.37,9.33,9.33,0,0,1,.6-3.14,8.07,8.07,0,0,1,1.33-2.47,9.14,9.14,0,0,1,2.25-1.82,3.47,3.47,0,0,0,.44-.31,1,1,0,0,1,.57-.22l.47,0a3,3,0,0,1,1.09-.34,6.87,6.87,0,0,1,1.28-.13,3.58,3.58,0,0,1,1.92.68,3.54,3.54,0,0,1,1.24,2.8,3.45,3.45,0,0,0,.12.61,2.2,2.2,0,0,1,.08.26A.49.49,0,0,1,401.51,55.32ZM395.62,52a2.76,2.76,0,0,1-.82.48,5.66,5.66,0,0,0-.7.61,9.35,9.35,0,0,0-.65.73c-.22.26-.4.49-.56.7s-.29.36-.37.46a.49.49,0,0,0-.14.28.26.26,0,0,0,.2.24l.19.07h1.07l5-.16c.64,0,1-.28,1-.87a3.57,3.57,0,0,0-.34-1.61,2.85,2.85,0,0,0-1.85-1.11l-.49,0-.46,0A7.93,7.93,0,0,0,395.62,52Z" fill="#fff"/><path d="M417.89,44.78l4.79-.08,1.29.07a6.12,6.12,0,0,0,1.1-.16,6.1,6.1,0,0,1,1.24-.15c.66,0,1,.31,1,.94a.86.86,0,0,1-.08.36,1,1,0,0,1-.23.29.53.53,0,0,1-.3.15l-.45,0a4.89,4.89,0,0,1-.53,0l-.33,0a25.1,25.1,0,0,0-4.94-.5l-1.54,0a4.27,4.27,0,0,0-1.08.1,2.18,2.18,0,0,0-.31.18,13.85,13.85,0,0,0-.45,3v.18a13,13,0,0,0-.2,1.89,4.44,4.44,0,0,0,.08.89l.17.65a1.1,1.1,0,0,0,.24.51.63.63,0,0,0,.48.21l.35,0c.14,0,.24,0,.28.13s.33.14.84.14c.33,0,.64,0,1,0a2.29,2.29,0,0,1,.69,0l.35,0a1.09,1.09,0,0,0,.69-.21l.75.08a6.18,6.18,0,0,1,1.63-.22,1,1,0,0,1,.24.67,1.18,1.18,0,0,1-.3.76c-.2.24-.85.36-2,.35-.46,0-1.22-.06-2.28-.16s-1.9-.17-2.51-.17c-.35.2-.53.39-.53.54a.12.12,0,0,0,0,.09,11.77,11.77,0,0,0-.41,3.17l.1,2.52c0,.38-.06.59-.15.64a5.6,5.6,0,0,1,.31,1.2,7.45,7.45,0,0,1,.15,1.24,1,1,0,0,1-.24.7c-.15.16-.28.24-.39.23s-.17-.06-.27-.18a1.08,1.08,0,0,1-.5.33L415.2,65a.7.7,0,0,1-.58-.77,1.91,1.91,0,0,1,.07-.44l.08-.25,0-.49a1.51,1.51,0,0,1,.1-.35,1.39,1.39,0,0,0,.12-.44c.11-1,.16-2.17.17-3.48v-2.3l.16-6.79a21.72,21.72,0,0,0-.09-2.7,7.34,7.34,0,0,1-.11-1,4,4,0,0,1,.22-1.24,7.25,7.25,0,0,1,1.21-.26l.09-.2.2.14.2-.06A1.73,1.73,0,0,1,417.89,44.78Z" fill="#fff"/><path d="M430.14,55.86q2.28-4.41,8.12-4.36a11.05,11.05,0,0,1,1.62.11,5.8,5.8,0,0,1,1.32.35,4.67,4.67,0,0,1,1.12.65,6.7,6.7,0,0,1,1,1,10.27,10.27,0,0,1,.95,1.44,4.67,4.67,0,0,1,.25,1.94,8.17,8.17,0,0,1-2.29,5.78,7.28,7.28,0,0,1-5.56,2.36h-.11a6.8,6.8,0,0,0-.75-.16.12.12,0,0,0-.09,0c-.08.14-.38.21-.88.2a6.16,6.16,0,0,1-2.41-.62,5.31,5.31,0,0,1-2.26-1.86,4.44,4.44,0,0,1-.87-2.64,9.59,9.59,0,0,1,.06-1.07,7.89,7.89,0,0,1,.16-1,8.06,8.06,0,0,1,.28-.91l.35-.85Zm12.69,2.51V58a5.17,5.17,0,0,0-5.46-5.52,3.76,3.76,0,0,0-1,.11l-.55.16a1.15,1.15,0,0,0-.25.32,1.25,1.25,0,0,1-.27.32.34.34,0,0,1-.22.05l-.73-.09c-.11,0-.18.08-.22.26-.73.06-1.42.61-2.08,1.67a6.34,6.34,0,0,0-1,3.31c0,.25,0,.77.14,1.57a3.35,3.35,0,0,0,.88,2,7,7,0,0,0,1.81,1.35,4,4,0,0,0,1.74.57,1.32,1.32,0,0,0,.34,0l.13-.05h.59a4.11,4.11,0,0,0,2.63-.59l.09-.06a.69.69,0,0,1,.27.09A10.11,10.11,0,0,0,442,60.46,6.56,6.56,0,0,0,442.83,58.37Z" fill="#fff"/><path d="M457.34,53.71a1.28,1.28,0,0,1-.2.5,2.36,2.36,0,0,0-.28.65,1.37,1.37,0,0,1-.38.61h-.36A2.54,2.54,0,0,0,455,55a2.2,2.2,0,0,0-.85.31,3.28,3.28,0,0,0-1.15,1.1,5.73,5.73,0,0,0-.71,1.25,2.66,2.66,0,0,1-.47,1.07v.49a2.4,2.4,0,0,0-.24,1.06c0,.22,0,.39,0,.51a1.3,1.3,0,0,1,0,.31.52.52,0,0,0-.18.36,11.44,11.44,0,0,0,.14,1.31,3.51,3.51,0,0,0,.49,1.43v.13q0,.67-.54.66l-.29.3a6.54,6.54,0,0,1-.78,0,2.63,2.63,0,0,1-.93-.15V65.1a4.28,4.28,0,0,1,.24-1.17,4.51,4.51,0,0,0,.25-1.18l.11-3.49a53.12,53.12,0,0,0-.38-7.18c0-.22,0-.34,0-.37a.94.94,0,0,1,.53-.86,2,2,0,0,1,.92-.29,1.21,1.21,0,0,1,.64.18l.11.21a.7.7,0,0,1,.08.2v.17a4.44,4.44,0,0,1-.26,1,6.61,6.61,0,0,0-.27,2l0,1.83v.26c0,.15.12.26.38.32a6.56,6.56,0,0,1,1.47-2.17,5,5,0,0,1,2.09-1.13A7.74,7.74,0,0,1,457,53c.25.18.38.34.37.49Z" fill="#fff"/><path d="M471.32,55.82a.45.45,0,0,1,.12.34.87.87,0,0,1-.24.64s0,0,0,.09-.21.23-.62.23h-.21a.24.24,0,0,0-.17.1c-.06.07-.1.1-.13.1l-.14-.09a.76.76,0,0,0-.36-.12l-.17-.18a2.32,2.32,0,0,1-.62.09,5.19,5.19,0,0,1-.65-.07,4.59,4.59,0,0,0-.59-.06,6.33,6.33,0,0,0-.67.08,5.46,5.46,0,0,1-.91.09L464.58,57a9.32,9.32,0,0,0-2.06.19,1.08,1.08,0,0,1-.38.11.27.27,0,0,0-.28.24c0,.13-.11.23-.3.31a4.65,4.65,0,0,0-.15,1.1,9.43,9.43,0,0,0,.21,1.47,3.71,3.71,0,0,0,.56,1.55c.06.07.47.39,1.24,1a5.43,5.43,0,0,0,1.58.87,6,6,0,0,0,2,.3,9.64,9.64,0,0,0,1.11-.06l.61-.07h.94a1.31,1.31,0,0,0,.54-.26,1.73,1.73,0,0,1,.8-.31,2.05,2.05,0,0,1,.17.73,1.88,1.88,0,0,1-.42,1.22,1.21,1.21,0,0,1-1,.51l-.3-.06-.91,0h-.78a17.59,17.59,0,0,1-2.69-.5A8.24,8.24,0,0,1,461.94,64a4.47,4.47,0,0,1-1.49-2,6.68,6.68,0,0,1-.46-2.37,9.33,9.33,0,0,1,.6-3.14,8.29,8.29,0,0,1,1.33-2.47,9.37,9.37,0,0,1,2.25-1.82,4.38,4.38,0,0,0,.44-.3.91.91,0,0,1,.57-.23l.48,0a3.09,3.09,0,0,1,1.09-.34,7.75,7.75,0,0,1,1.27-.13,3.25,3.25,0,0,1,3.17,3.48,2.8,2.8,0,0,0,.11.61,1.1,1.1,0,0,1,.08.26A.48.48,0,0,1,471.32,55.82Zm-5.89-3.3a2.62,2.62,0,0,1-.82.48,6.5,6.5,0,0,0-.7.61c-.22.23-.44.47-.65.73l-.56.7-.37.47a.42.42,0,0,0-.13.27c0,.11.06.19.2.24l.18.08h1.07l5-.15c.64,0,1-.29,1-.87a3.45,3.45,0,0,0-.34-1.62,2.78,2.78,0,0,0-1.85-1.1l-.49,0-.46,0A10.9,10.9,0,0,0,465.43,52.52Z" fill="#fff"/><path d="M481.94,57.78a3.25,3.25,0,0,1,1.11,2.5,5.61,5.61,0,0,1-1.16,3.42A4.41,4.41,0,0,1,479,65.52a9.64,9.64,0,0,0-1.09,0,2.91,2.91,0,0,1-1.13.21,2,2,0,0,1-1.22-.33,1.54,1.54,0,0,1-.44-1.3,2.31,2.31,0,0,1,0-.43h.12a1.06,1.06,0,0,1,.54.16,1,1,0,0,0,.33.16l.09,0a2.29,2.29,0,0,0,1.66.5,4.76,4.76,0,0,0,2-.39,2.64,2.64,0,0,0,1.35-1.36,4.22,4.22,0,0,0,.46-1.7,2.38,2.38,0,0,0-.81-1.84,11.16,11.16,0,0,0-3.65-1.65,1.15,1.15,0,0,1-.56-.2l-.66-.6a2.16,2.16,0,0,1-.69-.93l-.14-.46a3.9,3.9,0,0,1,1.34-3.32q1.33-1,4.56-1l.81,0a1.06,1.06,0,0,0,.28-.07.9.9,0,0,1,.23.67,2.93,2.93,0,0,1-.16.93c-.11.29-.22.46-.34.51a1.24,1.24,0,0,0-.3-.41h0a.36.36,0,0,0-.13,0l-.13.07a2.12,2.12,0,0,0-1.68-.8,3.22,3.22,0,0,0-2.57.75,2.6,2.6,0,0,0-.63,1.7c0,.9.68,1.52,2.07,1.87a16.59,16.59,0,0,1,2.49.81C481.62,57.51,481.94,57.69,481.94,57.78Z" fill="#fff"/><path d="M494.94,52.39c0,.06.06.11.17.15l.17.07h.16a1.46,1.46,0,0,1,.82.23c.23.15.35.31.34.5a.73.73,0,0,1-.4.57l-.18-.19a.89.89,0,0,1-.69.45l-.09-.18-.17.06a3,3,0,0,0-1.29-.3l-1.36,0-.87-.07a38.22,38.22,0,0,0-.4,4.54c0,.4,0,.88.05,1.42a4.76,4.76,0,0,0,.25,1.32c.12.35.24.66.36,1a2.82,2.82,0,0,0,.63.86,3.11,3.11,0,0,0,.83.61,2.14,2.14,0,0,1,.66.5c.18.22.67.33,1.46.33h.29c.18.15.27.27.27.37a1,1,0,0,1-.22.5c-.14.23-.25.42-.33.58a2,2,0,0,1-.42.52h-.05a.14.14,0,0,1-.12-.09,3,3,0,0,1-.89-.13,0,0,0,0,1,0,0,.56.56,0,0,1-.14-.08,1,1,0,0,0-.2-.13.92.92,0,0,0-.42-.37,4.32,4.32,0,0,1-1.2-.71,6.53,6.53,0,0,1-1.14-1.32,4.45,4.45,0,0,1-.73-1.57c-.09-.47-.17-1-.23-1.72s-.08-1.38-.08-2.15a35.43,35.43,0,0,1,.31-4.25l-.31-.11-.08.2h-.21l0-.19c-2.23-.1-3.34-.33-3.34-.68a.43.43,0,0,1,.21-.35,2.71,2.71,0,0,1,1.22-.14h.56l.61-.14a2.14,2.14,0,0,0,.65-.27,2.09,2.09,0,0,0,.56-.47,5.26,5.26,0,0,0,.45-2,19,19,0,0,0,.15-2.21V46.8a2.3,2.3,0,0,1,.21-.8,2.25,2.25,0,0,1,.5-.82c.2-.2.34-.29.43-.29a1.91,1.91,0,0,1,.6.11,1.66,1.66,0,0,1,.36.16.74.74,0,0,1,.1.23,1,1,0,0,0,.14.29v.06s0,.07-.11.09a.31.31,0,0,0-.13.06l-.05.06a7.65,7.65,0,0,0-.22.8c-.13.51-.24,1-.33,1.54s-.16,1-.21,1.52a14.48,14.48,0,0,0-.08,1.47,3.57,3.57,0,0,0,.08,1.17.26.26,0,0,0,.24.14,1.55,1.55,0,0,0,.37-.1,1.9,1.9,0,0,1,.54-.09.69.69,0,0,1,.22,0l.17.38a.67.67,0,0,0,.23,0,2.09,2.09,0,0,0,.61-.2A3.2,3.2,0,0,1,494.94,52.39Z" fill="#fff"/><line x1="273.56" y1="80.95" x2="564.56" y2="80.95" fill="#b86a4c" stroke="#b86a4c" stroke-linecap="round" stroke-miterlimit="10" stroke-width="3.5" stroke-dasharray="0 10"/><polygon points="126.16 124.92 91.07 102.29 55.98 124.92 55.98 0 126.16 0 126.16 124.92" fill="#8ec1c5"/></g></g></svg>