<svg id="レイヤー_1" data-name="レイヤー 1" xmlns="http://www.w3.org/2000/svg" viewBox="0 0 545.81 111.06"><defs><style>.cls-1{fill:#fff;}</style></defs><title>logo_type</title><path class="cls-1" d="M61.58,98.91q0,1.28-1.74,1.26l-5.13-.8q-10.3-1.19-13.8-1.88a88.13,88.13,0,0,1-9-2.2,42.54,42.54,0,0,1-8.81-4,35.72,35.72,0,0,1-6.87-5.18,33.1,33.1,0,0,1-4.84-6.4,29.75,29.75,0,0,1-3-7.3,31.84,31.84,0,0,1-1-8.25q0-5.13,3.08-12.87t4.06-9.66a34.52,34.52,0,0,1,5.13-6.17,38.92,38.92,0,0,1,11.09-7.66c1.65-.8,2.47-1.41,2.48-1.81a9.18,9.18,0,0,1,3.55-.56A11.33,11.33,0,0,0,41,24.71,17.68,17.68,0,0,1,47,24a15.74,15.74,0,0,1,3.38.35c1,.23,2.32.46,3.94.69s2.88.43,3.75.59a8.86,8.86,0,0,1,2.24.67c.63.3.94.63.93,1a18.7,18.7,0,0,1-1.06,3.86c-.71,2.1-1.62,3.14-2.74,3.14a3.67,3.67,0,0,1-1.92-.68,11.55,11.55,0,0,0-6-3.53,25.69,25.69,0,0,0-5.2-1,30.58,30.58,0,0,0-3.11.18l-2.91.18a8.49,8.49,0,0,0-1,.14,4,4,0,0,0-1.63.4c-.6.34-1.14.62-1.64.85a6.46,6.46,0,0,1-1.38.5,5.45,5.45,0,0,1-1.24.15h-.49l-.7.76a3.43,3.43,0,0,0-2.52,1.1h-1q-13,13.59-13.13,28.44a27.35,27.35,0,0,0,5,16A31.52,31.52,0,0,0,32.3,89a46.3,46.3,0,0,0,18,3.84,33.81,33.81,0,0,0,5.38-.63c2.47-.42,3.71-.89,3.71-1.4,1.48,0,2.2,2.68,2.17,7.91Z"/><path class="cls-1" d="M112.56,68.64a2.08,2.08,0,0,1-.68,1.12A4.82,4.82,0,0,0,111,71a11.75,11.75,0,0,0-.42,3q-.17,2.41-.19,7.14l.14,6.87a1.22,1.22,0,0,1-.45,1,12.93,12.93,0,0,0-.11,1.89,24.79,24.79,0,0,0,.56,4.78l.52,2.7-.11,2.5L111,103c-2.39,2.43-4.15,3.64-5.31,3.63a2.68,2.68,0,0,1-.93-.36,2.83,2.83,0,0,0-1.28-.37h-.3a9.68,9.68,0,0,1-.37-2.55A10.69,10.69,0,0,1,104,98.6c.37-.47.64-.85.83-1.11a8.9,8.9,0,0,0,.29-3q0-2.91-.57-2.91a3.29,3.29,0,0,0-.62.2,3.17,3.17,0,0,1-1.11.2h-.4a1.75,1.75,0,0,0-.74,1.07q-.6-.06-6.49,2.24a16.61,16.61,0,0,1-5.53,1,16.34,16.34,0,0,1-5.23-.83A10,10,0,0,1,80.5,93a14.57,14.57,0,0,1-2-2.32A7.44,7.44,0,0,1,78,87.38l.11-1.28v-.4q0-5.08,7.75-10.63t14.39-6.67a20.08,20.08,0,0,0,2.77-.61,3.74,3.74,0,0,0,1.66-1.09c.45-.5.68-1.67.69-3.5q.06-9.06-9.19-12.38a5.1,5.1,0,0,1-.81-.41,1.82,1.82,0,0,0-.92-.31,63,63,0,0,0-8,.35,5.17,5.17,0,0,1-4,2.06c-1.08,0-1.62-.41-1.62-1.19,0,0,.25-.75.74-2.15s1.63-2.1,3.44-2.09q3.12-1.71,11.36-1.65a11.77,11.77,0,0,1,10.23,5.36q3.61,5.33,3.55,15.14v.71a2.34,2.34,0,0,0,1.38,1c.65.21,1,.51,1,.92Zm-9.85,18q3.14-4.29,3.16-7.71a11.92,11.92,0,0,0-1-4.53,3.91,3.91,0,0,0-4-2.47,14.44,14.44,0,0,0-9.5,2.93H90.15Q82.53,79.11,82.49,84a6.88,6.88,0,0,0,3.09,5.74,11.93,11.93,0,0,0,7.27,2.37A17.69,17.69,0,0,0,97,91.12a13.92,13.92,0,0,0,5.7-3.57Z"/><path class="cls-1" d="M174.34,4.41a2.39,2.39,0,0,1,1.72,1.36,4.5,4.5,0,0,1,.58,2A1.93,1.93,0,0,1,175,9.61v.2c0,1.09-.74,1.74-2.18,2a3,3,0,0,0-2.51-1.09c-.27,0-.5.25-.7.76a11.07,11.07,0,0,0-1.73-.21c-1.51,0-2.32.35-2.42,1.1h-.89c-2.17,0-3.52.4-4.06,1.25-.23.16-1,.6-2.18,1.3a17.63,17.63,0,0,0-3,2.09,20,20,0,0,0-2.92,3.77,38.24,38.24,0,0,0-3.38,6.87,35.75,35.75,0,0,0-2,6.91c-.29,1.84-.71,4-1.27,6.37a34.91,34.91,0,0,0-.85,4.22c0,3,.82,4.59,2.54,4.6a2.49,2.49,0,0,0,.79-.1,1.28,1.28,0,0,0,1.08.67,2.06,2.06,0,0,0,.57-.12,2.56,2.56,0,0,1,1.18,0,11,11,0,0,0,1.6.13,20.24,20.24,0,0,0,4-.6,21.31,21.31,0,0,1,4.52-.61,10.1,10.1,0,0,1,1.28.19c.66.12,1,.33,1.08.62s.18.92.34,1.91h-.1c-.36,0-1,.55-1.84,1.66a3.4,3.4,0,0,0-.69-.71,1.24,1.24,0,0,1-1.33.8c-.47,0-1.54-.09-3.23-.28s-3.17-.27-4.42-.28c-.4,0-.93,0-1.61.09s-1.16.09-1.45.09a10.56,10.56,0,0,1-1.48-.21,1.78,1.78,0,0,1-.74.19,2.69,2.69,0,0,1-.79-.2.35.35,0,0,1-.4.4l-.2-.1q-.84,0-.91,11.33l0,5.65q0,5,.58,11.71t.81,7.36a3.83,3.83,0,0,0,.88,1.45,3.62,3.62,0,0,0-.11,1,7.11,7.11,0,0,0,.51,2.27,7,7,0,0,1,.5,2.11v.31c-1,.67-2.12,1.42-3.28,2.26a2.71,2.71,0,0,1-2.33,1.46H142c-.27-.31-.68-.82-1.25-1.54s-1.09-1.07-1.55-1.08l-.39.1a6,6,0,0,1-.63-2q0-.3.87-1.29a4.76,4.76,0,0,0,.89-3.17L139.88,90l.23-4.73c.15-3.53.25-7.09.27-10.68s-.08-7.32-.31-11.27-.35-6.36-.35-7.21l.11-2q0-.55-1.23-.57a4,4,0,0,0-.64.1,4.76,4.76,0,0,1-.74.1,1.6,1.6,0,0,1-.64-.11.64.64,0,0,0-.4.66c-.19-.44-.42-.67-.69-.67l-1,.1c-.07,0-.23-.14-.49-.42v-.1c0-.47.37-.94,1.09-1.41a9.8,9.8,0,0,0,1.54-1.16h.94a1.68,1.68,0,0,0,.7-1.36h.39a1.51,1.51,0,0,0,1.29-.68A13.94,13.94,0,0,0,141,44.22c.36-2.44.59-4.48.71-6.1a50.48,50.48,0,0,1,4.41-13.73A48.68,48.68,0,0,1,151.26,16a28.38,28.38,0,0,1,5.81-5.22q3.52-2.44,4.8-2.44h.55a6,6,0,0,1,3.81-1.6l1.34-1Q173.84,5.18,174.34,4.41Z"/><path class="cls-1" d="M212.84,64.36a1.62,1.62,0,0,1,.38,1.18,2.77,2.77,0,0,1-.8,2.18c.06,0,.1.13.09.3,0,.55-.71.81-2.12.8h-.69a.8.8,0,0,0-.6.35c-.2.24-.35.35-.45.35a2.64,2.64,0,0,1-.46-.3,2.66,2.66,0,0,0-1.26-.42l-.59-.62a7.52,7.52,0,0,1-2.12.29,15.65,15.65,0,0,1-2.19-.21A14.44,14.44,0,0,0,200,68a17.14,17.14,0,0,0-2.3.29,18.39,18.39,0,0,1-3.09.28l-4.83-.24a32,32,0,0,0-7.06.67,4.07,4.07,0,0,1-1.31.37c-.58.08-.89.35-.95.8s-.39.83-1,1.09a16.56,16.56,0,0,0-.52,3.76,32.12,32.12,0,0,0,.71,5,12.88,12.88,0,0,0,1.94,5.31c.19.24,1.6,1.33,4.22,3.29a18.92,18.92,0,0,0,5.43,3,21.09,21.09,0,0,0,6.78,1,34.18,34.18,0,0,0,3.8-.23l2.07-.24,3.21,0a4.54,4.54,0,0,0,1.86-.91,6.17,6.17,0,0,1,2.75-1,6.75,6.75,0,0,1,.57,2.5A6.56,6.56,0,0,1,210.81,97a4.08,4.08,0,0,1-3.25,1.76l-1-.21-3.12.08-2.66,0a61.41,61.41,0,0,1-9.22-1.69q-7.34-1.68-10.82-4.35a15.38,15.38,0,0,1-5.09-6.88,22.3,22.3,0,0,1-1.57-8.13,31.45,31.45,0,0,1,2-10.74,28.47,28.47,0,0,1,4.55-8.47,33.15,33.15,0,0,1,7.69-6.23,10.63,10.63,0,0,0,1.52-1,3.18,3.18,0,0,1,1.95-.77l1.63.11a10.28,10.28,0,0,1,3.74-1.17,25.45,25.45,0,0,1,4.37-.45,12.46,12.46,0,0,1,6.57,2.33c2.37,1.55,3.79,4.74,4.25,9.6a10.43,10.43,0,0,0,.4,2.06,6.74,6.74,0,0,1,.27.89A1.67,1.67,0,0,1,212.84,64.36ZM192.68,53.08a9.86,9.86,0,0,1-2.82,1.66,18.35,18.35,0,0,0-2.39,2.07c-.76.77-1.51,1.61-2.24,2.5s-1.37,1.7-1.91,2.4-1,1.24-1.27,1.6a1.53,1.53,0,0,0-.45.93c0,.38.22.65.68.82l.64.26,3.65,0,17.18-.54q3.31,0,3.33-3a12,12,0,0,0-1.17-5.53c-.8-1.58-2.9-2.84-6.32-3.78-.39,0-1,0-1.67-.12s-1.25-.11-1.58-.11A30.75,30.75,0,0,0,192.68,53.08Z"/><path class="cls-1" d="M268.93,28.28,285.29,28l4.44.23a20.93,20.93,0,0,0,3.75-.53,21.66,21.66,0,0,1,4.24-.53c2.27,0,3.4,1.09,3.38,3.23a2.77,2.77,0,0,1-.28,1.22,3.16,3.16,0,0,1-.8,1,1.81,1.81,0,0,1-1,.5l-1.54.09c-.69,0-1.3,0-1.82,0a9.4,9.4,0,0,1-1.14-.16,84.72,84.72,0,0,0-16.89-1.7c-1.35,0-3.11,0-5.27.09a16.54,16.54,0,0,0-3.71.33,10.4,10.4,0,0,0-1.07.63A50,50,0,0,0,266,42.66v.61a40.84,40.84,0,0,0-.69,6.46,12.61,12.61,0,0,0,.28,3.05l.57,2.24a3.62,3.62,0,0,0,.83,1.74,2.09,2.09,0,0,0,1.63.72l1.19-.09a1,1,0,0,1,1,.46c.16.31,1.12.47,2.87.48a28.39,28.39,0,0,0,3.24-.15,9.57,9.57,0,0,1,2.37,0,8.38,8.38,0,0,0,1.21.14,3.65,3.65,0,0,0,2.33-.7l2.57.27c.59-.3,2.46-.55,5.59-.77a3.39,3.39,0,0,1,.83,2.3,4.09,4.09,0,0,1-1,2.61c-.68.83-2.91,1.22-6.7,1.2q-2.38,0-7.81-.57c-3.63-.36-6.49-.55-8.6-.57-1.19.71-1.79,1.33-1.8,1.87a.41.41,0,0,0,.1.31,40.5,40.5,0,0,0-1.41,10.83l.33,8.65c0,1.29-.18,2-.51,2.18A20,20,0,0,1,265.47,90a24.69,24.69,0,0,1,.48,4.25,3.24,3.24,0,0,1-.8,2.38,2.15,2.15,0,0,1-1.33.81,1.36,1.36,0,0,1-.93-.62,3.83,3.83,0,0,1-1.72,1.11,14.87,14.87,0,0,0-1.47-.42,2.38,2.38,0,0,1-2-2.61,7,7,0,0,1,.26-1.52l.25-.87-.09-1.67a3.81,3.81,0,0,1,.36-1.17,5.6,5.6,0,0,0,.4-1.53q.53-5.17.58-11.9l-.05-7.88L260,45.11a68.42,68.42,0,0,0-.33-9.24,28.93,28.93,0,0,1-.37-3.59,13.44,13.44,0,0,1,.77-4.27,28.87,28.87,0,0,1,4.15-.88l.3-.66.69.46.69-.2A6.18,6.18,0,0,1,268.93,28.28Z"/><path class="cls-1" d="M310.85,66.19q7.81-15.07,27.8-14.93a39.46,39.46,0,0,1,5.55.4,20.46,20.46,0,0,1,4.5,1.2,15.36,15.36,0,0,1,3.84,2.22A21.29,21.29,0,0,1,356,58.51a37.32,37.32,0,0,1,3.24,4.91q.88,1.55.84,6.63a28,28,0,0,1-7.81,19.81,25,25,0,0,1-19,8.07h-.4c-1.54-.35-2.4-.52-2.56-.52a.4.4,0,0,0-.3.1c-.3.47-1.3.7-3,.69a21.44,21.44,0,0,1-8.26-2.12,18.34,18.34,0,0,1-7.75-6.4,15.35,15.35,0,0,1-3-9c0-1.23.07-2.44.2-3.64a28.08,28.08,0,0,1,.56-3.46,25,25,0,0,1,.94-3.13l1.21-2.9Zm43.43,8.61V73.48q.06-8.46-5.06-13.67t-13.61-5.26a13.13,13.13,0,0,0-3.5.41,17.16,17.16,0,0,0-1.88.54,3.74,3.74,0,0,0-.87,1.07,4.9,4.9,0,0,1-.9,1.11,1.4,1.4,0,0,1-.77.17l-2.51-.32c-.36,0-.61.3-.75.91q-3.75.29-7.1,5.71A21.59,21.59,0,0,0,314,75.48c0,.85.14,2.65.45,5.38a11.47,11.47,0,0,0,3,6.8,23.53,23.53,0,0,0,6.21,4.63,13.88,13.88,0,0,0,5.93,1.95,4.77,4.77,0,0,0,1.18-.15l.45-.14h2c4.41,0,7.41-.64,9-2,.17-.13.26-.2.3-.2a2.45,2.45,0,0,1,.93.32,34,34,0,0,0,8.14-10.11Q354.27,76.63,354.28,74.8Z"/><path class="cls-1" d="M404,58.84a4.3,4.3,0,0,1-.71,1.7,8.33,8.33,0,0,0-.95,2.24,4.67,4.67,0,0,1-1.3,2.1h-1.23A8.81,8.81,0,0,0,396,63.26a7.65,7.65,0,0,0-2.92,1.05,11.6,11.6,0,0,0-3.93,3.77,19.8,19.8,0,0,0-2.45,4.28A8.65,8.65,0,0,1,385.1,76v1.68a8.7,8.7,0,0,0-.82,3.63,14.13,14.13,0,0,1,.14,1.76,4.85,4.85,0,0,1-.11,1.06,1.79,1.79,0,0,0-.6,1.22,34.36,34.36,0,0,0,.49,4.48,11.72,11.72,0,0,0,1.67,4.9v.46c0,1.52-.62,2.28-1.84,2.27l-1,1q-1.25.09-2.67.09a9.12,9.12,0,0,1-3.2-.54v-.2a14.59,14.59,0,0,1,.84-4,14.58,14.58,0,0,0,.84-4l.38-12a180.6,180.6,0,0,0-1.3-24.58c-.1-.75-.14-1.17-.14-1.27a3.21,3.21,0,0,1,1.82-2.94,6.56,6.56,0,0,1,3.14-1,4.38,4.38,0,0,1,2.22.63c.06.13.18.37.36.71a2,2,0,0,1,.27.67v.61a15.36,15.36,0,0,1-.88,3.4,22,22,0,0,0-.91,6.71l.05,6.26V68c0,.51.44.87,1.33,1.08a22.33,22.33,0,0,1,5-7.42,17,17,0,0,1,7.16-3.89,27.37,27.37,0,0,1,5.39-1.18c.85.61,1.27,1.18,1.27,1.68Z"/><path class="cls-1" d="M451.83,66.05a1.64,1.64,0,0,1,.39,1.17,2.84,2.84,0,0,1-.81,2.19c.07,0,.1.13.1.3,0,.55-.71.81-2.13.8h-.69a.76.76,0,0,0-.59.35c-.2.23-.35.35-.45.35a2.29,2.29,0,0,1-.47-.31,2.73,2.73,0,0,0-1.25-.41l-.59-.62a7.58,7.58,0,0,1-2.13.29,14.75,14.75,0,0,1-2.19-.22,18.27,18.27,0,0,0-2-.22,18.78,18.78,0,0,0-2.29.29,18.5,18.5,0,0,1-3.09.29l-4.84-.24a32,32,0,0,0-7.06.66,3.76,3.76,0,0,1-1.31.37c-.58.09-.89.35-.94.81s-.39.82-1,1.09a16.56,16.56,0,0,0-.52,3.76,31.85,31.85,0,0,0,.7,5,13.17,13.17,0,0,0,1.94,5.31c.2.24,1.6,1.33,4.22,3.28a19,19,0,0,0,5.43,3,21.46,21.46,0,0,0,6.78,1,36.8,36.8,0,0,0,3.8-.23l2.08-.24,3.21,0a4.6,4.6,0,0,0,1.85-.9A6.21,6.21,0,0,1,450.66,92a6.74,6.74,0,0,1,.58,2.5,6.57,6.57,0,0,1-1.44,4.16,4.08,4.08,0,0,1-3.25,1.76l-1-.21-3.11.08-2.67,0a61.74,61.74,0,0,1-9.21-1.7q-7.35-1.68-10.83-4.35a15.33,15.33,0,0,1-5.08-6.87A22.53,22.53,0,0,1,413,79.21a31.75,31.75,0,0,1,2-10.75A28.4,28.4,0,0,1,419.65,60a32.68,32.68,0,0,1,7.69-6.23,11.65,11.65,0,0,0,1.51-1,3.26,3.26,0,0,1,2-.78l1.62.12a10.35,10.35,0,0,1,3.74-1.17,26.69,26.69,0,0,1,4.37-.46,12.51,12.51,0,0,1,6.57,2.34q3.57,2.31,4.25,9.59a10.46,10.46,0,0,0,.41,2.07,5.23,5.23,0,0,1,.26.89A1.71,1.71,0,0,1,451.83,66.05ZM431.68,54.77a10.26,10.26,0,0,1-2.83,1.66,19,19,0,0,0-2.38,2.06c-.77.78-1.51,1.61-2.24,2.51s-1.37,1.69-1.92,2.4-1,1.24-1.27,1.59a1.57,1.57,0,0,0-.45.94c0,.37.23.65.69.82l.64.26,3.65,0,17.18-.54q3.3,0,3.32-3A12,12,0,0,0,444.91,58c-.8-1.58-2.91-2.85-6.32-3.78-.4,0-1,0-1.68-.12s-1.25-.11-1.58-.11A31.28,31.28,0,0,0,431.68,54.77Z"/><path class="cls-1" d="M488.19,72.77A11.21,11.21,0,0,1,492,81.34,19.35,19.35,0,0,1,488,93a15.14,15.14,0,0,1-10,6.22c-.89,0-2.14,0-3.76.17a9.85,9.85,0,0,1-3.85.74A7,7,0,0,1,466.19,99c-1-.75-1.51-2.23-1.49-4.44a8.83,8.83,0,0,1,.1-1.47h.4a3.63,3.63,0,0,1,1.87.55,3.3,3.3,0,0,0,1.13.54l.3-.1q1.67,1.7,5.66,1.72a16.6,16.6,0,0,0,6.92-1.35,9.09,9.09,0,0,0,4.65-4.63A14.09,14.09,0,0,0,487.27,84a8,8,0,0,0-2.74-6.28Q481.77,75.21,472,72a4.08,4.08,0,0,1-1.92-.67l-2.26-2.05a7.6,7.6,0,0,1-2.34-3.17L465,64.57q0-8,4.59-11.39t15.6-3.28l2.76.18a4,4,0,0,0,1-.25,3.15,3.15,0,0,1,.77,2.29,9.58,9.58,0,0,1-.56,3.18c-.37,1-.76,1.58-1.15,1.75a3.67,3.67,0,0,0-1-1.38h-.1a.84.84,0,0,0-.44.17,3.2,3.2,0,0,1-.45.23,7.28,7.28,0,0,0-5.75-2.74c-4.45,0-7.38.82-8.81,2.56a9,9,0,0,0-2.16,5.81q0,4.64,7.11,6.41a59.7,59.7,0,0,1,8.52,2.78C487.1,71.84,488.2,72.46,488.19,72.77Z"/><path class="cls-1" d="M532.68,54.31c0,.2.22.38.59.53a3.35,3.35,0,0,0,.59.23h.54a5.14,5.14,0,0,1,2.81.78,2.12,2.12,0,0,1,1.17,1.72,2.6,2.6,0,0,1-1.4,2l-.58-.66A3.19,3.19,0,0,1,534,60.42l-.3-.61-.59.2a10.32,10.32,0,0,0-4.43-1l-4.64.17c-.66,0-1.65-.08-3-.22a129.15,129.15,0,0,0-1.39,15.53c0,1.39,0,3,.19,4.86a17.83,17.83,0,0,0,.83,4.55q.63,1.75,1.26,3.24a9.25,9.25,0,0,0,2.15,3A11.31,11.31,0,0,0,527,92.12a6.86,6.86,0,0,1,2.25,1.72c.64.74,2.31,1.11,5,1.13h1c.62.51.93.94.93,1.28a3.88,3.88,0,0,1-.72,1.72c-.49.78-.87,1.44-1.16,2a7.23,7.23,0,0,1-1.41,1.77h-.2a.44.44,0,0,1-.39-.31,10.46,10.46,0,0,1-3.06-.43c0,.07,0,.1-.1.1a1.25,1.25,0,0,1-.47-.28,3.27,3.27,0,0,0-.71-.44,3,3,0,0,0-1.42-1.28,14.11,14.11,0,0,1-4.11-2.43,22.62,22.62,0,0,1-3.89-4.51,15.07,15.07,0,0,1-2.5-5.36,51.78,51.78,0,0,1-.8-5.89q-.3-3.45-.27-7.36A125.54,125.54,0,0,1,516,59l-1-.36-.3.66h-.69l-.2-.67q-11.44-.52-11.43-2.34a1.45,1.45,0,0,1,.72-1.17c.48-.35,1.87-.52,4.18-.5h1.92l2.08-.49a7.68,7.68,0,0,0,2.23-.9,8,8,0,0,0,1.91-1.62c.55-.64,1.06-2.89,1.55-6.75a62.1,62.1,0,0,0,.5-7.58V35.17a8.43,8.43,0,0,1,.71-2.74,8.17,8.17,0,0,1,1.73-2.79c.68-.67,1.16-1,1.46-1a6.09,6.09,0,0,1,2.07.39,4.6,4.6,0,0,1,1.23.55,2.24,2.24,0,0,1,.34.79,2.77,2.77,0,0,0,.49,1v.21c0,.13-.12.23-.37.3a1.18,1.18,0,0,0-.47.2c-.06.07-.12.13-.17.2s-.3,1-.74,2.74-.81,3.53-1.12,5.29-.55,3.49-.73,5.18-.27,3.38-.28,5q0,3.56.27,4a.94.94,0,0,0,.83.46,5.67,5.67,0,0,0,1.26-.32,6.06,6.06,0,0,1,1.86-.32,2.26,2.26,0,0,1,.74.11l.58,1.28a2.45,2.45,0,0,0,.79.1,6.54,6.54,0,0,0,2.1-.67A12.19,12.19,0,0,1,532.68,54.31Z"/></svg>