<svg id="レイヤー_1" data-name="レイヤー 1" xmlns="http://www.w3.org/2000/svg" viewBox="0 0 567 121"><defs><style>.cls-1{fill:#b9694b;}</style></defs><title>logo_type2</title><path class="cls-1" d="M72.92,101q0,1.28-1.74,1.26l-5.12-.8q-10.32-1.2-13.81-1.88a88.13,88.13,0,0,1-9-2.2,42.46,42.46,0,0,1-8.8-4A35.13,35.13,0,0,1,27.6,88.2a33,33,0,0,1-4.84-6.39,30.31,30.31,0,0,1-3-7.3,31.85,31.85,0,0,1-1-8.25q0-5.13,3.07-12.87t4.07-9.66a33.93,33.93,0,0,1,5.13-6.18A39,39,0,0,1,42.13,29.9c1.65-.8,2.48-1.41,2.48-1.82a9.63,9.63,0,0,1,3.56-.56,11.37,11.37,0,0,0,4.13-.73,17.61,17.61,0,0,1,6-.69,15,15,0,0,1,3.37.35c1,.23,2.32.46,4,.69s2.87.43,3.75.59a9,9,0,0,1,2.24.67c.62.3.93.63.93,1a19.8,19.8,0,0,1-1.07,3.86c-.7,2.1-1.62,3.14-2.73,3.14a3.61,3.61,0,0,1-1.92-.68,11.63,11.63,0,0,0-6-3.53,26.87,26.87,0,0,0-5.2-1c-.73,0-1.77.06-3.11.19l-2.92.18a8.77,8.77,0,0,0-1,.14,4.08,4.08,0,0,0-1.63.4c-.59.34-1.14.62-1.63.85a6.73,6.73,0,0,1-1.39.5,5.43,5.43,0,0,1-1.23.15h-.5l-.69.76a3.4,3.4,0,0,0-2.53,1.1h-1Q24.87,49,24.76,63.86a27.42,27.42,0,0,0,5,16A31.4,31.4,0,0,0,43.65,91.06a46.08,46.08,0,0,0,18,3.85A34.93,34.93,0,0,0,67,94.28c2.48-.42,3.71-.89,3.72-1.4,1.48.05,2.2,2.68,2.16,7.91Z"/><path class="cls-1" d="M123.9,70.72a2,2,0,0,1-.67,1.11,5.09,5.09,0,0,0-.93,1.27,12.45,12.45,0,0,0-.41,3q-.17,2.43-.2,7.15l.15,6.87a1.24,1.24,0,0,1-.45,1,11.55,11.55,0,0,0-.11,1.89,24.66,24.66,0,0,0,.55,4.78l.53,2.7-.12,2.49.08,2.19q-3.57,3.65-5.3,3.63a2.63,2.63,0,0,1-.94-.36,2.79,2.79,0,0,0-1.28-.37h-.29a9.33,9.33,0,0,1-.38-2.55,10.57,10.57,0,0,1,1.17-4.77c.36-.48.64-.85.82-1.12a8.81,8.81,0,0,0,.29-3c0-1.93-.17-2.9-.57-2.9a3.29,3.29,0,0,0-.62.2,2.88,2.88,0,0,1-1.11.19h-.39a1.72,1.72,0,0,0-.75,1.07q-.6-.06-6.48,2.24a16.71,16.71,0,0,1-5.54,1,16.23,16.23,0,0,1-5.22-.83,9.84,9.84,0,0,1-3.88-2.37,14.29,14.29,0,0,1-2-2.33,7.41,7.41,0,0,1-.44-3.3l.11-1.28v-.4q0-5.09,7.75-10.63t14.38-6.67a19.74,19.74,0,0,0,2.77-.61A3.74,3.74,0,0,0,116,68.78c.45-.5.68-1.67.69-3.5q.06-9.06-9.19-12.38a5.1,5.1,0,0,1-.81-.41,1.79,1.79,0,0,0-.91-.31,63.15,63.15,0,0,0-8,.35,5.13,5.13,0,0,1-4,2c-1.09,0-1.63-.4-1.62-1.18,0,0,.24-.75.73-2.15s1.63-2.1,3.44-2.09q3.12-1.71,11.37-1.65A11.75,11.75,0,0,1,118,52.87q3.61,5.33,3.55,15.14v.71a2.29,2.29,0,0,0,1.37,1c.66.2,1,.51,1,.92Zm-9.85,18c2.09-2.87,3.15-5.44,3.16-7.71a11.74,11.74,0,0,0-1-4.53,3.9,3.9,0,0,0-4-2.47,14.46,14.46,0,0,0-9.5,2.93H101.5Q93.87,81.19,93.83,86a6.92,6.92,0,0,0,3.1,5.74,11.92,11.92,0,0,0,7.26,2.37,17.58,17.58,0,0,0,4.15-.94,13.79,13.79,0,0,0,5.7-3.57Z"/><path class="cls-1" d="M185.68,6.49a2.35,2.35,0,0,1,1.72,1.36,4.5,4.5,0,0,1,.58,2,1.94,1.94,0,0,1-1.59,1.87v.2c0,1.09-.73,1.74-2.18,2a3,3,0,0,0-2.51-1.09c-.26,0-.5.25-.7.76a12.8,12.8,0,0,0-1.72-.22c-1.52,0-2.32.36-2.43,1.11H176c-2.17,0-3.52.4-4,1.24-.23.17-1,.61-2.18,1.31a17.35,17.35,0,0,0-3,2.09,20.5,20.5,0,0,0-2.91,3.77,37.91,37.91,0,0,0-3.38,6.87,34.38,34.38,0,0,0-2,6.91c-.29,1.84-.72,4-1.28,6.37a33.84,33.84,0,0,0-.84,4.22c0,3.05.82,4.58,2.53,4.6a2.45,2.45,0,0,0,.79-.1,1.28,1.28,0,0,0,1.08.67,2.06,2.06,0,0,0,.57-.12,2.67,2.67,0,0,1,1.18,0,9.92,9.92,0,0,0,1.61.14,19.81,19.81,0,0,0,4-.61,21.11,21.11,0,0,1,4.52-.6,10.37,10.37,0,0,1,1.28.19c.65.12,1,.33,1.08.62s.17.92.33,1.91h-.1c-.36,0-1,.55-1.84,1.66a3.87,3.87,0,0,0-.68-.72,1.26,1.26,0,0,1-1.34.81c-.46,0-1.54-.1-3.23-.28s-3.17-.27-4.42-.28a13.12,13.12,0,0,0-1.6.09c-.68.06-1.16.09-1.46.09a9.82,9.82,0,0,1-1.48-.22,1.75,1.75,0,0,1-.74.2,2.55,2.55,0,0,1-.79-.21c0,.28-.13.41-.39.41l-.2-.11q-.84,0-.92,11.34l0,5.65q0,5,.58,11.71c.42,4.44.69,6.9.82,7.35a3.75,3.75,0,0,0,.87,1.46,3.66,3.66,0,0,0-.1,1,6.69,6.69,0,0,0,.5,2.26,6.55,6.55,0,0,1,.5,2.12v.3c-1,.68-2.12,1.43-3.27,2.27a2.71,2.71,0,0,1-2.33,1.46h-.2c-.26-.31-.68-.82-1.25-1.54s-1.08-1.07-1.54-1.08l-.4.1a6,6,0,0,1-.63-2c0-.2.29-.63.88-1.29a4.76,4.76,0,0,0,.88-3.17l-.09-1.17.23-4.73q.24-5.3.27-10.68c0-3.57-.08-7.32-.31-11.28s-.35-6.35-.34-7.2l.11-2q0-.55-1.23-.57a3.85,3.85,0,0,0-.64.1,3.67,3.67,0,0,1-.74.09,1.52,1.52,0,0,1-.65-.1.65.65,0,0,0-.4.66c-.19-.45-.42-.67-.68-.67l-1,.09c-.06,0-.23-.13-.49-.41v-.1c0-.47.37-.94,1.1-1.41A10.31,10.31,0,0,0,148,52.68h.93a1.67,1.67,0,0,0,.7-1.37h.4a1.56,1.56,0,0,0,1.29-.68,13.84,13.84,0,0,0,1-4.34c.36-2.44.6-4.48.71-6.1a50.67,50.67,0,0,1,4.41-13.74,48.92,48.92,0,0,1,5.17-8.38,28.65,28.65,0,0,1,5.81-5.22q3.53-2.44,4.81-2.44h.54a6,6,0,0,1,3.81-1.6l1.34-1Q185.18,7.26,185.68,6.49Z"/><path class="cls-1" d="M224.18,66.44a1.66,1.66,0,0,1,.39,1.18,2.81,2.81,0,0,1-.81,2.18c.07,0,.1.13.1.3,0,.55-.71.81-2.13.8H221a.77.77,0,0,0-.59.35c-.2.24-.35.35-.45.35a2.29,2.29,0,0,1-.47-.31,2.78,2.78,0,0,0-1.25-.41l-.59-.62a7.63,7.63,0,0,1-2.13.29,14.75,14.75,0,0,1-2.19-.22,15.65,15.65,0,0,0-2.05-.21,15.33,15.33,0,0,0-2.29.29,18.39,18.39,0,0,1-3.09.28l-4.84-.24a32,32,0,0,0-7.06.66,3.74,3.74,0,0,1-1.31.38c-.58.08-.89.35-.94.8s-.4.82-1,1.09a16.56,16.56,0,0,0-.52,3.76,31.85,31.85,0,0,0,.7,5,13,13,0,0,0,1.94,5.31c.19.24,1.6,1.33,4.22,3.29a18.92,18.92,0,0,0,5.43,3,21.46,21.46,0,0,0,6.78,1,34.18,34.18,0,0,0,3.8-.23l2.08-.24,3.21,0a4.32,4.32,0,0,0,1.85-.9A6.21,6.21,0,0,1,223,92.38a6.74,6.74,0,0,1,.58,2.5A6.57,6.57,0,0,1,222.15,99a4.08,4.08,0,0,1-3.25,1.76l-1-.21-3.11.08-2.67,0A62.57,62.57,0,0,1,202.88,99c-4.9-1.13-8.51-2.57-10.83-4.35A15.36,15.36,0,0,1,187,87.73a22.53,22.53,0,0,1-1.58-8.13,31.75,31.75,0,0,1,2.05-10.75A28.52,28.52,0,0,1,192,60.39a32.68,32.68,0,0,1,7.69-6.23,11.65,11.65,0,0,0,1.51-1,3.26,3.26,0,0,1,2-.78l1.62.12a10.35,10.35,0,0,1,3.74-1.17,25.45,25.45,0,0,1,4.37-.45,12.4,12.4,0,0,1,6.57,2.33q3.57,2.31,4.25,9.6a10.5,10.5,0,0,0,.41,2.06,7.08,7.08,0,0,1,.26.89A1.67,1.67,0,0,1,224.18,66.44ZM204,55.16a9.7,9.7,0,0,1-2.82,1.66,18.28,18.28,0,0,0-2.38,2.07c-.77.77-1.51,1.61-2.24,2.5s-1.37,1.69-1.92,2.4-1,1.24-1.27,1.6a1.53,1.53,0,0,0-.45.93c0,.38.23.65.69.82l.63.26,3.66,0,17.18-.54q3.3,0,3.32-3a11.85,11.85,0,0,0-1.17-5.53c-.79-1.58-2.9-2.84-6.31-3.78-.4,0-1,0-1.68-.12s-1.25-.11-1.58-.11A31.67,31.67,0,0,0,204,55.16Z"/><path class="cls-1" d="M280.27,30.36l16.37-.29,4.43.23a20.7,20.7,0,0,0,3.75-.53,21.74,21.74,0,0,1,4.25-.53q3.39,0,3.38,3.23a2.91,2.91,0,0,1-.28,1.22,3.46,3.46,0,0,1-.8,1,1.87,1.87,0,0,1-1,.5l-1.53.09c-.69,0-1.3,0-1.83,0a10,10,0,0,1-1.14-.16A84.72,84.72,0,0,0,289,33.47c-1.35,0-3.11,0-5.26.09a16.45,16.45,0,0,0-3.71.33,8.14,8.14,0,0,0-1.07.63,48.6,48.6,0,0,0-1.55,10.22v.61a43.39,43.39,0,0,0-.69,6.45,13.81,13.81,0,0,0,.28,3.06l.58,2.24a3.45,3.45,0,0,0,.83,1.74,2.05,2.05,0,0,0,1.62.72l1.19-.09a1,1,0,0,1,1,.46c.16.31,1.11.47,2.86.48a26.24,26.24,0,0,0,3.24-.16,9.46,9.46,0,0,1,2.37,0,10.37,10.37,0,0,0,1.21.14,3.63,3.63,0,0,0,2.33-.7l2.57.27c.6-.3,2.46-.56,5.6-.77a3.37,3.37,0,0,1,.82,2.29,4.14,4.14,0,0,1-1,2.62q-1,1.23-6.71,1.2c-1.58,0-4.19-.2-7.81-.57s-6.49-.55-8.6-.57c-1.19.71-1.79,1.33-1.79,1.87a.46.46,0,0,0,.09.31,40.5,40.5,0,0,0-1.41,10.83l.34,8.65c0,1.29-.18,2-.51,2.18a19.3,19.3,0,0,1,1.08,4.11,24.92,24.92,0,0,1,.49,4.25,3.35,3.35,0,0,1-.8,2.38,2.18,2.18,0,0,1-1.33.81,1.32,1.32,0,0,1-.93-.62,4,4,0,0,1-1.73,1.11,14.87,14.87,0,0,0-1.47-.42,2.4,2.4,0,0,1-2-2.61,6.89,6.89,0,0,1,.26-1.52l.25-.87-.08-1.68a3.73,3.73,0,0,1,.35-1.16,5.26,5.26,0,0,0,.4-1.53q.54-5.18.58-11.9l0-7.89.56-23.24A72,72,0,0,0,271,38a27,27,0,0,1-.37-3.59,13.44,13.44,0,0,1,.77-4.27,28.58,28.58,0,0,1,4.15-.88l.3-.66.68.46.69-.2A6.14,6.14,0,0,1,280.27,30.36Z"/><path class="cls-1" d="M322.2,68.27Q330,53.2,350,53.34a38,38,0,0,1,5.55.4,20.55,20.55,0,0,1,4.51,1.2,15.13,15.13,0,0,1,3.83,2.22,20.89,20.89,0,0,1,3.41,3.43,37.66,37.66,0,0,1,3.25,4.91q.87,1.55.84,6.63a28,28,0,0,1-7.82,19.81,25,25,0,0,1-19,8.07h-.4c-1.54-.35-2.39-.52-2.56-.52a.37.37,0,0,0-.29.1c-.3.47-1.31.7-3,.69A21.54,21.54,0,0,1,330,98.15a18.37,18.37,0,0,1-7.76-6.4,15.38,15.38,0,0,1-3-9c0-1.22.08-2.43.2-3.63a28.06,28.06,0,0,1,.57-3.46,23.39,23.39,0,0,1,.93-3.13l1.21-2.9Zm43.42,8.61V75.55q.06-8.44-5.06-13.66T347,56.63a13.63,13.63,0,0,0-3.51.4,16.8,16.8,0,0,0-1.88.55,4.21,4.21,0,0,0-.87,1.06,4.55,4.55,0,0,1-.9,1.12,1.36,1.36,0,0,1-.76.17l-2.52-.32c-.36,0-.61.3-.74.91q-3.76.28-7.1,5.71a21.57,21.57,0,0,0-3.39,11.33c0,.85.15,2.64.46,5.38a11.46,11.46,0,0,0,3,6.8A23.86,23.86,0,0,0,335,94.37a13.88,13.88,0,0,0,5.93,1.95,4.85,4.85,0,0,0,1.19-.15l.44-.15,2,0q6.62,0,9-2a1.21,1.21,0,0,1,.3-.2,2.67,2.67,0,0,1,.94.31A34.26,34.26,0,0,0,362.93,84Q365.6,78.71,365.62,76.88Z"/><path class="cls-1" d="M415.32,60.92a4.23,4.23,0,0,1-.7,1.7,8.47,8.47,0,0,0-1,2.23,4.64,4.64,0,0,1-1.3,2.11h-1.23a8.64,8.64,0,0,0-3.79-1.61,7.71,7.71,0,0,0-2.92,1,11.54,11.54,0,0,0-3.92,3.76,19.62,19.62,0,0,0-2.45,4.29,8.68,8.68,0,0,1-1.61,3.65v1.68a8.48,8.48,0,0,0-.81,3.63,15.87,15.87,0,0,1,.13,1.76,4.94,4.94,0,0,1-.1,1.06,1.83,1.83,0,0,0-.61,1.22,34.36,34.36,0,0,0,.49,4.48,11.86,11.86,0,0,0,1.67,4.9v.46c0,1.52-.63,2.28-1.85,2.27l-1,1c-.82.06-1.71.09-2.67.08a9,9,0,0,1-3.2-.53v-.2a15.39,15.39,0,0,1,.84-4,15.07,15.07,0,0,0,.85-4l.38-11.95a180.46,180.46,0,0,0-1.31-24.58c-.09-.75-.14-1.17-.14-1.28a3.22,3.22,0,0,1,1.82-2.93,6.62,6.62,0,0,1,3.14-1,4.38,4.38,0,0,1,2.22.63l.37.71a2.19,2.19,0,0,1,.26.66v.61a14.92,14.92,0,0,1-.89,3.41,22,22,0,0,0-.91,6.71l.05,6.26V70c0,.51.44.87,1.32,1.08a22.64,22.64,0,0,1,5-7.42,17.1,17.1,0,0,1,7.16-3.89,26.74,26.74,0,0,1,5.39-1.18c.85.61,1.28,1.17,1.27,1.68Z"/><path class="cls-1" d="M463.18,68.13a1.58,1.58,0,0,1,.38,1.17,2.76,2.76,0,0,1-.8,2.18c.06,0,.1.14.09.31,0,.54-.71.81-2.12.8H460a.82.82,0,0,0-.6.36c-.2.23-.35.35-.45.35a2.1,2.1,0,0,1-.46-.31,2.78,2.78,0,0,0-1.26-.41l-.59-.62a7.52,7.52,0,0,1-2.12.29,16.22,16.22,0,0,1-2.2-.22,18.15,18.15,0,0,0-2-.22,19.09,19.09,0,0,0-2.3.29,18.5,18.5,0,0,1-3.09.29l-4.83-.24a32,32,0,0,0-7.06.66,3.83,3.83,0,0,1-1.31.37c-.58.08-.9.35-1,.81s-.39.82-1,1.09a16.56,16.56,0,0,0-.52,3.76,32.28,32.28,0,0,0,.71,5,13,13,0,0,0,1.93,5.31q.3.36,4.23,3.28a18.69,18.69,0,0,0,5.43,3,21.37,21.37,0,0,0,6.78,1,37,37,0,0,0,3.8-.23l2.07-.24,3.21,0a4.61,4.61,0,0,0,1.86-.9A6.05,6.05,0,0,1,462,94.07a6.87,6.87,0,0,1,.57,2.5,6.51,6.51,0,0,1-1.44,4.16,4.08,4.08,0,0,1-3.24,1.76l-1-.22-3.11.08-2.66,0a60,60,0,0,1-9.22-1.69Q434.54,99,431,96.29A15.38,15.38,0,0,1,426,89.41a22.21,22.21,0,0,1-1.57-8.12,31.51,31.51,0,0,1,2.05-10.75A28.4,28.4,0,0,1,431,62.08a32.89,32.89,0,0,1,7.69-6.23,11.58,11.58,0,0,0,1.52-1,3.17,3.17,0,0,1,1.95-.78l1.63.11A10.12,10.12,0,0,1,447.51,53a26.9,26.9,0,0,1,4.37-.46,12.57,12.57,0,0,1,6.58,2.34q3.56,2.31,4.25,9.59a10.55,10.55,0,0,0,.4,2.07,5.89,5.89,0,0,1,.27.89A1.71,1.71,0,0,1,463.18,68.13ZM443,56.85a9.91,9.91,0,0,1-2.83,1.65,20.74,20.74,0,0,0-2.38,2.07c-.76.78-1.51,1.61-2.24,2.51s-1.37,1.69-1.91,2.4-1,1.24-1.27,1.59a1.57,1.57,0,0,0-.45.94c0,.37.22.65.68.82l.64.26,3.65,0,17.18-.54c2.2,0,3.32-1,3.33-3a12.08,12.08,0,0,0-1.17-5.53c-.8-1.58-2.9-2.85-6.32-3.79-.39,0-.95,0-1.67-.11s-1.25-.11-1.58-.11A30.75,30.75,0,0,0,443,56.85Z"/><path class="cls-1" d="M499.54,74.85a11.24,11.24,0,0,1,3.79,8.57,19.36,19.36,0,0,1-4,11.7,15.16,15.16,0,0,1-10,6.21q-1.33,0-3.75.18a9.9,9.9,0,0,1-3.86.74,7,7,0,0,1-4.18-1.15c-1-.76-1.52-2.23-1.5-4.44a7.7,7.7,0,0,1,.11-1.47h.39a3.54,3.54,0,0,1,1.87.55,3.39,3.39,0,0,0,1.13.54l.3-.1q1.67,1.69,5.66,1.72a16.57,16.57,0,0,0,6.92-1.35,9.09,9.09,0,0,0,4.65-4.63,14.2,14.2,0,0,0,1.55-5.85,8.07,8.07,0,0,0-2.74-6.28q-2.78-2.52-12.53-5.67a4.18,4.18,0,0,1-1.92-.67l-2.25-2a7.64,7.64,0,0,1-2.35-3.17l-.48-1.58q.06-8,4.59-11.39T496.54,52l2.76.18a4.24,4.24,0,0,0,1-.25,3.13,3.13,0,0,1,.77,2.29,9.09,9.09,0,0,1-.56,3.18c-.37,1-.75,1.58-1.15,1.75a3.65,3.65,0,0,0-1-1.38h-.1a1,1,0,0,0-.45.18,2.19,2.19,0,0,1-.45.22,7.3,7.3,0,0,0-5.75-2.73c-4.44,0-7.38.82-8.8,2.56a9.07,9.07,0,0,0-2.17,5.81q0,4.64,7.11,6.41A58.86,58.86,0,0,1,496.24,73C498.44,73.92,499.54,74.54,499.54,74.85Z"/><path class="cls-1" d="M544,56.39c0,.2.23.38.59.53a3.73,3.73,0,0,0,.59.23h.54a5.14,5.14,0,0,1,2.81.77,2.09,2.09,0,0,1,1.17,1.73c0,.67-.47,1.32-1.39,2l-.59-.66a3.17,3.17,0,0,1-2.38,1.54l-.29-.61-.6.2A10.32,10.32,0,0,0,540,61l-4.64.17c-.66,0-1.65-.08-3-.22a127.1,127.1,0,0,0-1.39,15.53q0,2.08.18,4.86a17.62,17.62,0,0,0,.84,4.54c.42,1.18.84,2.26,1.26,3.25a9,9,0,0,0,2.15,2.94,11.17,11.17,0,0,0,2.82,2.09,6.9,6.9,0,0,1,2.26,1.72c.64.74,2.3,1.11,5,1.13h1c.62.51.93.94.93,1.28a4.11,4.11,0,0,1-.73,1.72c-.48.78-.87,1.44-1.15,2a7.56,7.56,0,0,1-1.42,1.77H544a.48.48,0,0,1-.39-.31,10.51,10.51,0,0,1-3.06-.43c0,.07,0,.1-.1.1a1.43,1.43,0,0,1-.46-.28,3.58,3.58,0,0,0-.72-.44,3,3,0,0,0-1.42-1.29,13.81,13.81,0,0,1-4.1-2.42,22.3,22.3,0,0,1-3.89-4.51,15.11,15.11,0,0,1-2.51-5.36,54.15,54.15,0,0,1-.8-5.89c-.19-2.3-.28-4.75-.27-7.37a125.68,125.68,0,0,1,1-14.56l-1-.36-.3.66h-.69l-.19-.66c-7.63-.35-11.44-1.14-11.44-2.34a1.48,1.48,0,0,1,.73-1.17c.48-.35,1.87-.52,4.17-.5h1.93l2.07-.49a7.68,7.68,0,0,0,2.23-.9,7.82,7.82,0,0,0,1.91-1.62q.82-1,1.56-6.75a62.3,62.3,0,0,0,.49-7.58l0-2.09a8.18,8.18,0,0,1,.71-2.74,8.16,8.16,0,0,1,1.72-2.79c.68-.67,1.17-1,1.46-1a6.09,6.09,0,0,1,2.07.39,4.43,4.43,0,0,1,1.23.55,2.24,2.24,0,0,1,.34.79,2.86,2.86,0,0,0,.49,1v.21c0,.13-.13.23-.37.3a1,1,0,0,0-.47.2,1.62,1.62,0,0,0-.18.2c0,.07-.29,1-.73,2.74s-.82,3.53-1.13,5.29-.55,3.49-.73,5.18-.26,3.37-.28,5a13.8,13.8,0,0,0,.27,4,1,1,0,0,0,.84.46,5.94,5.94,0,0,0,1.26-.32,6,6,0,0,1,1.85-.32,2.22,2.22,0,0,1,.74.11l.58,1.28a2.76,2.76,0,0,0,.79.1,6.85,6.85,0,0,0,2.11-.67A12,12,0,0,1,544,56.39Z"/></svg>