<svg id="レイヤー_1" data-name="レイヤー 1" xmlns="http://www.w3.org/2000/svg" viewBox="0 0 713 477.01"><defs><style>.cls-1{fill:#fff;}</style></defs><title>logo_image</title><path class="cls-1" d="M139.23,112.58l.05,3.1a9.58,9.58,0,0,0-2.21.45,4.2,4.2,0,0,0-1.75,1.47,4.32,4.32,0,0,0-1,2.51,2.22,2.22,0,0,0,2.76,2.33,12,12,0,0,0,3.11-1.32,21.17,21.17,0,0,1,3.31-1.55,8.38,8.38,0,0,1,2.51-.45,6.54,6.54,0,0,1,2.24.34,6.55,6.55,0,0,1,4.4,5.49,6.7,6.7,0,0,1-1.4,5,8,8,0,0,1-4.11,2.89,9.22,9.22,0,0,1-5.49-.23l1.15-2.86c2.58.65,4.55.1,5.91-1.67a3.88,3.88,0,0,0,.88-2.73,3.19,3.19,0,0,0-1.28-2.37,3.29,3.29,0,0,0-1.74-.65,4.83,4.83,0,0,0-2,.2,15,15,0,0,0-2.67,1.28,17.56,17.56,0,0,1-2.79,1.38,7,7,0,0,1-2.2.43,5.89,5.89,0,0,1-2-.23,4.79,4.79,0,0,1-1.64-.86,5.16,5.16,0,0,1-2-3.95,6.74,6.74,0,0,1,1.48-4.63,9.21,9.21,0,0,1,2.8-2.37A7.21,7.21,0,0,1,139.23,112.58Z"/><path class="cls-1" d="M149.92,108.05,152,110a6.44,6.44,0,0,1,1.25-6.24,6,6,0,0,1,4.73-2,7.44,7.44,0,0,1,5.14,2.06,7.77,7.77,0,0,1,2.57,5.06,6.21,6.21,0,0,1-1.5,5,6,6,0,0,1-2.6,1.68,6.43,6.43,0,0,1-3.33.15l6.93,6.38-2,2.21-15.26-14Zm11.15-2a4.44,4.44,0,0,0-3.33-1.17,4.5,4.5,0,0,0-3.22,1.5,4.64,4.64,0,0,0-1.19,3.42,4.45,4.45,0,0,0,1.47,3.25,4.54,4.54,0,0,0,3.39,1.24,4.4,4.4,0,0,0,3.23-1.47,4.62,4.62,0,0,0,1.2-3.45A4.71,4.71,0,0,0,161.07,106.09Z"/><path class="cls-1" d="M178,90.12l-8.64,8.29a4.65,4.65,0,0,0,3.44,1.09,5,5,0,0,0,2.86-1.35,5.3,5.3,0,0,0,1.61-4.47l2.68-.29a7.93,7.93,0,0,1-2.54,6.83,6.92,6.92,0,0,1-5.25,2A7.26,7.26,0,0,1,167,99.81a7.35,7.35,0,0,1-2-5.29,7.06,7.06,0,0,1,2.26-5.22,6.86,6.86,0,0,1,5.26-2A7.78,7.78,0,0,1,178,90.12Zm-10,6.33,6.18-5.93a4.42,4.42,0,0,0-5,.79A4.54,4.54,0,0,0,168,96.45Z"/><path class="cls-1" d="M191.72,81.28l2.15,2.65a8.81,8.81,0,0,1-2.53,3.83,6.82,6.82,0,0,1-5.28,1.57,6.9,6.9,0,0,1-4.89-2.55,7.58,7.58,0,0,1,1-10.84,8.9,8.9,0,0,1,3.73-1.79L188,76.73a7.64,7.64,0,0,0-4.13,1.6,4.58,4.58,0,0,0-1.63,3.07,4.12,4.12,0,0,0,.87,3.26,4.51,4.51,0,0,0,3.08,1.74,4.07,4.07,0,0,0,3.26-1A8,8,0,0,0,191.72,81.28Z"/><path class="cls-1" d="M186.72,66.85a2.37,2.37,0,0,1,.47-3.23,2.24,2.24,0,0,1,3.14.47,2.28,2.28,0,0,1-2.12,3.65A2.15,2.15,0,0,1,186.72,66.85Zm3.41,3.24,2.32-1.77,8.38,11.41-2.32,1.77Z"/><path class="cls-1" d="M207.94,57.38l2.45-1.65,7.7,11.9-2.45,1.65-1.53-2.36a6.45,6.45,0,0,1-2.68,5.69,6,6,0,0,1-5.11.79A7.6,7.6,0,0,1,201.8,70a7.74,7.74,0,0,1-1.19-5.47,6.17,6.17,0,0,1,2.64-4.46,5.74,5.74,0,0,1,3.08-1,6.2,6.2,0,0,1,3.18.71Zm4.21,5.76a4.6,4.6,0,0,0-6.43-1.34,4.59,4.59,0,0,0-1.95,3,4.49,4.49,0,0,0,.6,3.49,4.68,4.68,0,0,0,3,2.12,4.31,4.31,0,0,0,3.5-.67,4.52,4.52,0,0,0,2-3A4.68,4.68,0,0,0,212.15,63.14Z"/><path class="cls-1" d="M212.88,44.73l2.53-1.5,11,19.43-2.54,1.51Z"/><path class="cls-1" d="M249.68,45.72l1.41,3.13a8.79,8.79,0,0,1-3.4,3.06,6.74,6.74,0,0,1-5.48.16,6.94,6.94,0,0,1-4.07-3.74,7.69,7.69,0,0,1-.3-5.94,7.52,7.52,0,0,1,4-4.32,9,9,0,0,1,4-.78l1.37,3.05a7.7,7.7,0,0,0-4.38.48,4.61,4.61,0,0,0-2.35,2.57,4.25,4.25,0,0,0,0,3.39,4.57,4.57,0,0,0,2.53,2.49,4.1,4.1,0,0,0,3.39-.12A8,8,0,0,0,249.68,45.72Z"/><path class="cls-1" d="M252.54,41.32a7.3,7.3,0,0,1,.28-5.69,7.26,7.26,0,0,1,4-4,7.07,7.07,0,0,1,5.66.15,6.94,6.94,0,0,1,3.91,4.06,7.56,7.56,0,0,1-.19,5.77,7,7,0,0,1-3.93,4,7.53,7.53,0,0,1-9.74-4.27Zm11.23-4.46a4.18,4.18,0,0,0-2.36-2.46,4.32,4.32,0,0,0-3.45-.07,4.58,4.58,0,0,0-2.57,2.49,4.48,4.48,0,0,0-.14,3.55,4.17,4.17,0,0,0,2.39,2.43,4.51,4.51,0,0,0,6-2.43A4.52,4.52,0,0,0,263.77,36.86Z"/><path class="cls-1" d="M275.21,17.05l.89,2.9a4.12,4.12,0,0,0-2.36-.15,1.44,1.44,0,0,0-1,.94,2.64,2.64,0,0,0,.06,1.7l1,3.41,3.67-1.2.8,2.63-3.67,1.2,3.36,11-2.79.92-3.36-11-2.43.79-.8-2.62,2.43-.8-1-3.22a6,6,0,0,1,0-4.09,4.17,4.17,0,0,1,2.68-2.41A4.64,4.64,0,0,1,275.21,17.05Z"/><path class="cls-1" d="M289.21,13.1l.73,3a4,4,0,0,0-2.34-.28,1.49,1.49,0,0,0-1,.89,2.81,2.81,0,0,0,0,1.71l.86,3.46,3.72-1,.67,2.67-3.72,1,2.79,11.18-2.83.77-2.79-11.18-2.47.67-.66-2.67,2.47-.67-.82-3.27a6,6,0,0,1,.24-4.09A4.14,4.14,0,0,1,286.8,13,4.72,4.72,0,0,1,289.21,13.1Z"/><path class="cls-1" d="M311.82,24.21l-11.6,2.38a4.69,4.69,0,0,0,2.3,2.8,4.76,4.76,0,0,0,3.11.4,5.22,5.22,0,0,0,3.7-2.93l2.39,1.2A7.79,7.79,0,0,1,306,32.51a6.77,6.77,0,0,1-5.47-1.11,7.41,7.41,0,0,1-3-4.91,7.53,7.53,0,0,1,1.11-5.6,7,7,0,0,1,4.65-3.22,6.7,6.7,0,0,1,5.44,1.19A8,8,0,0,1,311.82,24.21Zm-11.74-.05,8.3-1.7q-1.92-2.61-4.62-2.06A4.53,4.53,0,0,0,300.08,24.16Z"/><path class="cls-1" d="M331.12,21.54,319.4,23.05a4.7,4.7,0,0,0,2.09,3,4.75,4.75,0,0,0,3.06.63,5.19,5.19,0,0,0,3.9-2.65l2.3,1.39a7.79,7.79,0,0,1-6,4,6.69,6.69,0,0,1-5.37-1.51,7.43,7.43,0,0,1-2.66-5.13,7.57,7.57,0,0,1,1.52-5.51,7,7,0,0,1,4.86-2.87A6.67,6.67,0,0,1,328.4,16,8,8,0,0,1,331.12,21.54Zm-11.69-.93,8.4-1.07q-1.72-2.76-4.45-2.41A4.54,4.54,0,0,0,319.43,20.61Z"/><path class="cls-1" d="M357.78,15l4.34,4.92,2.46-2.74,2,1.92L364,22l4.41,4.94H364.6l-2.49-2.78q-3.66,3.57-7.1,3.57A7.32,7.32,0,0,1,350,25.79a5.74,5.74,0,0,1-2.06-4.52,5.23,5.23,0,0,1,1-3.21,23.13,23.13,0,0,1,4.45-3.68c-.2-.32-.38-.59-.52-.78a10.69,10.69,0,0,1-1.69-2.87,5.38,5.38,0,0,1-.25-1.62,5.13,5.13,0,0,1,1.56-3.52,5.26,5.26,0,0,1,4-1.59,5,5,0,0,1,3.67,1.54,5,5,0,0,1,1.46,3.71Q361.55,12.39,357.78,15Zm2.45,7-4.91-5.53a18.13,18.13,0,0,0-3.65,2.86,3,3,0,0,0,.41,4.44,4.46,4.46,0,0,0,3,1.06,4.75,4.75,0,0,0,2.48-.68A15.16,15.16,0,0,0,360.23,22Zm-4.39-9.16A13.85,13.85,0,0,0,358.09,11a2.64,2.64,0,0,0,.77-1.74,2.15,2.15,0,0,0-.67-1.7,3,3,0,0,0-3.7,0,2,2,0,0,0-.74,1.57C353.73,10,354.43,11.26,355.84,12.83Z"/><path class="cls-1" d="M388.08,6.39l2.88.4-1.28,8.44,10.09,1.42,1.28-8.43,2.85.4-3.33,21.93-2.85-.4,1.6-10.54-10.09-1.42-1.6,10.54-2.88-.41Z"/><path class="cls-1" d="M421.18,20.26l2.83.65-3.3,14-2.83-.64.65-2.79c-1.87,1.81-3.83,2.47-5.88,2a5.92,5.92,0,0,1-4-3.21,7.89,7.89,0,0,1-.64-5.7,7.81,7.81,0,0,1,3.11-4.7,5.89,5.89,0,0,1,5-1.18,5.69,5.69,0,0,1,2.79,1.58,6.44,6.44,0,0,1,1.65,2.84Zm-1.27,7.13a4.63,4.63,0,0,0-.55-3.58,4.35,4.35,0,0,0-2.85-2.09,4.42,4.42,0,0,0-3.45.64A4.53,4.53,0,0,0,411,25.25a4.87,4.87,0,0,0,.51,3.67A4.23,4.23,0,0,0,414.32,31a4.37,4.37,0,0,0,3.49-.66A4.75,4.75,0,0,0,419.91,27.39Z"/><path class="cls-1" d="M426.16,36.39l4.26-13.74,2.72.84-.71,2.28a11.89,11.89,0,0,1,2.8-1.36,4.07,4.07,0,0,1,2.37,0,4.38,4.38,0,0,1,2.68,2.17,4.15,4.15,0,0,1,.35,3.35l-3.08,9.92L434.77,39,437.59,30a2.7,2.7,0,0,0-.12-2.06,2.4,2.4,0,0,0-1.54-1.27,3.16,3.16,0,0,0-2.78.49,4.74,4.74,0,0,0-1.92,2.65l-2.32,7.47Z"/><path class="cls-1" d="M461.67,24.66l2.68,1-8.19,21.1-2.65-1L454.6,43q-3.15,2.43-6.26,1.23a5.88,5.88,0,0,1-3.49-3.76,8,8,0,0,1,.16-5.73,7.74,7.74,0,0,1,3.75-4.25,6,6,0,0,1,5.15-.39,5.38,5.38,0,0,1,2.49,2,7.09,7.09,0,0,1,1.2,3.1ZM456.4,39.15a4.69,4.69,0,0,0,0-3.62,4.29,4.29,0,0,0-2.5-2.49,4.37,4.37,0,0,0-3.56.11,4.85,4.85,0,0,0-2.42,6.3,4.26,4.26,0,0,0,2.46,2.49,4.42,4.42,0,0,0,3.58-.11A4.69,4.69,0,0,0,456.4,39.15Z"/><path class="cls-1" d="M461.64,49.06l6.29-12.94,2.58,1.27-1,2a8.4,8.4,0,0,1,2.62-.93,3.61,3.61,0,0,1,2.19.37,3.86,3.86,0,0,1,1.9,1.72,5.34,5.34,0,0,1,.36,2.72,9.36,9.36,0,0,1,2.89-1.13,4,4,0,0,1,2.43.4,3.75,3.75,0,0,1,2,2.4,4.35,4.35,0,0,1-.26,3.26l-4.58,9.4-2.61-1.28,4.24-8.7q1-2.14-1-3.14a2.63,2.63,0,0,0-2.5.14,5,5,0,0,0-2.12,2.31l-3.43,7-2.61-1.27,4.06-8.35q1.23-2.54-.76-3.51a2.75,2.75,0,0,0-2.51.05A4.38,4.38,0,0,0,467.77,43l-3.55,7.29Z"/><path class="cls-1" d="M501.09,53.89l2.49,1.5-7.34,12.37-2.49-1.5,1.46-2.46q-3.48,1.71-6.17.09a6,6,0,0,1-2.85-4.32,8,8,0,0,1,1.11-5.65,7.83,7.83,0,0,1,4.36-3.54,5.86,5.86,0,0,1,5.07.42,5.67,5.67,0,0,1,2.16,2.38,6.52,6.52,0,0,1,.71,3.23Zm-3.35,6.43a4.7,4.7,0,0,0,.56-3.6,4.43,4.43,0,0,0-5.53-3.34,4.5,4.5,0,0,0-2.85,2.11,4.94,4.94,0,0,0-.62,3.68,4.41,4.41,0,0,0,5.56,3.35A4.67,4.67,0,0,0,497.74,60.32Z"/><path class="cls-1" d="M523.78,59.31,526.12,61l-13,18.52-2.31-1.65,1.72-2.45q-3.63,1.59-6.34-.35a6,6,0,0,1-2.47-4.53A8,8,0,0,1,505.28,65a7.72,7.72,0,0,1,4.63-3.21,6,6,0,0,1,5.08.9,5.44,5.44,0,0,1,1.93,2.53,7.14,7.14,0,0,1,.42,3.31Zm-8.56,12.81a4.76,4.76,0,0,0,.82-3.54,4.49,4.49,0,0,0-5.29-3.81,4.58,4.58,0,0,0-3,2,4.72,4.72,0,0,0-.81,3.54,4.43,4.43,0,0,0,5.27,3.81A4.64,4.64,0,0,0,515.22,72.12Z"/><path class="cls-1" d="M532.85,87.05,523.8,79.5a4.76,4.76,0,0,0,1,6.32,5,5,0,0,0,4.54,1l.58,2.65a7.49,7.49,0,0,1-7-1.6,6.89,6.89,0,0,1-2.58-5,7.78,7.78,0,0,1,1.85-5.56,7.39,7.39,0,0,1,5-2.75,6.66,6.66,0,0,1,5.35,1.55,6.86,6.86,0,0,1,2.49,5A8.28,8.28,0,0,1,532.85,87.05Zm-7.29-9.23,6.48,5.4q.8-3.19-1.32-5A4.34,4.34,0,0,0,525.56,77.82Z"/><path class="cls-1" d="M551.14,108l-2.45,2.44a8.41,8.41,0,0,1-3.94-2.17,6.88,6.88,0,0,1-1.91-5.19,7.34,7.34,0,0,1,2.16-5.2,7.52,7.52,0,0,1,5.41-2.37,7.12,7.12,0,0,1,5.3,2.32,8.76,8.76,0,0,1,2,3.59l-2.38,2.38a7.7,7.7,0,0,0-1.86-4,4.32,4.32,0,0,0-3.14-1.34,4.09,4.09,0,0,0-3.13,1.21,4.8,4.8,0,0,0-1.5,3.29,4.19,4.19,0,0,0,1.2,3.2A7.58,7.58,0,0,0,551.14,108Z"/><path class="cls-1" d="M569.53,114l1.88,2.23-10.78,9.44-1.89-2.23,2.14-1.88q-3.81.51-5.85-1.9a6.09,6.09,0,0,1-1.34-5,8.1,8.1,0,0,1,2.81-5,7.68,7.68,0,0,1,5.22-2,5.71,5.71,0,0,1,5.95,5,6.58,6.58,0,0,1-.34,3.3ZM564.36,119a4.75,4.75,0,0,0,1.65-3.26,4.45,4.45,0,0,0-1-3.41,4.34,4.34,0,0,0-3.13-1.55,4.44,4.44,0,0,0-3.35,1.1,4.93,4.93,0,0,0-1.73,3.3,4.4,4.4,0,0,0,1,3.43A4.29,4.29,0,0,0,561,120.2,4.63,4.63,0,0,0,564.36,119Z"/><path class="cls-1" d="M582.25,116.79l1.72,2.36-11.53,8.76,8.38.82,2.23,3.06-8.79-.83-2.56,9.54-2.13-2.92,2.5-9.38-6,4.57-1.72-2.36Z"/><path class="cls-1" d="M587.18,152.39l-6.34-10a4.95,4.95,0,0,0,3,8.69l-.25,2.72a7.47,7.47,0,0,1-6.12-3.67,7,7,0,0,1-1-5.58,7.64,7.64,0,0,1,3.41-4.75,7.21,7.21,0,0,1,5.51-1.12,6.68,6.68,0,0,1,4.61,3.12,7,7,0,0,1,.87,5.58A8.24,8.24,0,0,1,587.18,152.39ZM583,141.31l4.54,7.16c1.13-1.88,1.21-3.59.22-5.15A4.33,4.33,0,0,0,583,141.31Z"/><path class="cls-1" d="M272.69,459.19a4,4,0,0,1,1.37,3.09,7,7,0,0,1-1.43,4.23,5.44,5.44,0,0,1-3.63,2.24q-.48,0-1.35.06a3.66,3.66,0,0,1-1.39.27,2.49,2.49,0,0,1-1.51-.41,1.88,1.88,0,0,1-.54-1.61,3.51,3.51,0,0,1,0-.53h.15a1.27,1.27,0,0,1,.67.2,1.33,1.33,0,0,0,.41.2l.11,0a2.82,2.82,0,0,0,2,.62,6,6,0,0,0,2.5-.49,3.3,3.3,0,0,0,1.68-1.67,5.16,5.16,0,0,0,.56-2.11,3,3,0,0,0-1-2.27,14.16,14.16,0,0,0-4.52-2,1.58,1.58,0,0,1-.7-.25l-.81-.74a2.73,2.73,0,0,1-.85-1.14l-.17-.57c0-1.94.56-3.31,1.66-4.12s3-1.2,5.63-1.18l1,.06a1.47,1.47,0,0,0,.36-.09,1.16,1.16,0,0,1,.28.83,3.35,3.35,0,0,1-.2,1.15c-.14.36-.27.57-.42.63a1.33,1.33,0,0,0-.37-.5h0a.35.35,0,0,0-.16.06.71.71,0,0,1-.17.09,2.58,2.58,0,0,0-2.07-1c-1.61,0-2.67.29-3.18.92a3.22,3.22,0,0,0-.78,2.1c0,1.12.84,1.89,2.56,2.32a21.1,21.1,0,0,1,3.08,1C272.29,458.85,272.69,459.08,272.69,459.19Z"/><path class="cls-1" d="M284.79,468.57c0,.07-.26.21-.77.42a4.06,4.06,0,0,1-1,.32h-.11a1.83,1.83,0,0,0-.46.07,1.62,1.62,0,0,1-.38.07.9.9,0,0,1-.61-.25c-.18-.17-.27-.3-.27-.4a10.58,10.58,0,0,1,.15-1.2,2.61,2.61,0,0,1,.46-1.2,41.37,41.37,0,0,0,.17-4.32l-.09-6.67,0-1.15a1.87,1.87,0,0,0-.29-.69,2.28,2.28,0,0,1-.28-1.21.72.72,0,0,1,.22-.6,6.53,6.53,0,0,1,1-.51l1-.45a.43.43,0,0,1,.22,0c.3,0,.44.48.44,1.44,0,.54-.11,1.93-.31,4.19s-.3,4.09-.31,5.5c0,.8,0,1.55,0,2.25s.08,1.24.13,1.61a2.6,2.6,0,0,0,.31,1,3.84,3.84,0,0,1,.49,1.73Zm-.65-23.41a4.93,4.93,0,0,0,.92.54c.42.21.64.46.63.76a1.21,1.21,0,0,1-.47.85,1.34,1.34,0,0,1-.93.44,1.63,1.63,0,0,1-1.09-.61,3,3,0,0,1-.57-.7,1.31,1.31,0,0,1,.49-.81,1.4,1.4,0,0,1,1-.47Z"/><path class="cls-1" d="M301.5,452.85a12.07,12.07,0,0,1,1.95-.19q4.85,0,4.8,6.28a34.63,34.63,0,0,1-1.16,8,13.61,13.61,0,0,0-.52,2.63.65.65,0,0,0,.07.29,1.22,1.22,0,0,1-1.31,1.13,1.94,1.94,0,0,1-1.16-.38,1,1,0,0,1-.52-.77,2.52,2.52,0,0,1,.76-1.5,9.42,9.42,0,0,0,1.39-3.5,22.34,22.34,0,0,0,.66-5.25c0-3.61-1.4-5.43-4.27-5.45a7.24,7.24,0,0,0-3.19.69c-1,.47-1.56,1-1.71,1.57a2.29,2.29,0,0,1-.48.37c-.19.09-.3.18-.33.26s-.1,1-.21,2.78-.17,3.12-.17,4v.86a3.4,3.4,0,0,0,.22,1.26,3.78,3.78,0,0,1,.21.66l0,.64a1.85,1.85,0,0,1-.21,1,.6.6,0,0,1-.53.36h-.07l-.11.25a1,1,0,0,0-.3-.07,1.13,1.13,0,0,0-.64.29h-.09q-.19,0-.6-.48c-.4,0-.59-.16-.59-.47a1,1,0,0,1,.26-.68c.15,0,.33-.8.55-2.41a50.12,50.12,0,0,0,.34-6.12c0-3.21-.22-5-.72-5.5l0-.33a.94.94,0,0,1,.79-.93,1.07,1.07,0,0,0,.59-.49c.17-.27.35-.4.54-.4h0a2.32,2.32,0,0,0,.61-.18,1.31,1.31,0,0,1,.3-.13q.25,0,.24.72a4.18,4.18,0,0,1-.22,1.26,4,4,0,0,0-.22.89.67.67,0,0,0,.18.47.61.61,0,0,0,.47.21h.11a4.7,4.7,0,0,1,.54-.49h.05a4,4,0,0,0,2.59-.7l.39-.06.31,0A1.65,1.65,0,0,0,301.5,452.85Z"/><path class="cls-1" d="M327.9,466.19a1.61,1.61,0,0,1,.83,1.44c0,.78-.21,1.17-.61,1.17H328a10.2,10.2,0,0,0-1.15.19,10.56,10.56,0,0,1-2.17.19h-.45l-1.26.06a5.11,5.11,0,0,1-1.28-.15c-.19-.09-.65-.25-1.36-.49a7.24,7.24,0,0,1-1.47-.61,7.43,7.43,0,0,1-1-.81,7.85,7.85,0,0,1-1-1.21,8,8,0,0,1-.74-1.39,7.22,7.22,0,0,1-.46-1.54,10.2,10.2,0,0,1-.14-1.68,9.83,9.83,0,0,1,.93-4.37,8.74,8.74,0,0,1,2.92-3.22,8.92,8.92,0,0,0,.86-.56,4.86,4.86,0,0,1,.88-.52,13.22,13.22,0,0,1,1.89-.42,16.93,16.93,0,0,1,3.18-.27h.65a3.32,3.32,0,0,1,.74-.07c.55,0,.83.26.83.76a2,2,0,0,1-.06.4,1.77,1.77,0,0,0,0,.39l0,1.4a2.64,2.64,0,0,1-.41.07,2.74,2.74,0,0,1-1-.3,2,2,0,0,0-1.13-.66h-.25a6.81,6.81,0,0,1-1-.15,8.35,8.35,0,0,0-1.39-.16,2.37,2.37,0,0,0-1.18.44.76.76,0,0,0-.36-.12h-.07c-.05,0-.12.05-.23.15a4.78,4.78,0,0,1-1.65.92,2.73,2.73,0,0,0-1.33,1.37,6.31,6.31,0,0,1-1.06,1.59,19,19,0,0,0-.16,2.15,8,8,0,0,0,.46,3.23,6.35,6.35,0,0,0,1.34,1.8,13.93,13.93,0,0,1,1.19,1.2h.52a.76.76,0,0,0,.83.52,6,6,0,0,1,1.1.19,4.9,4.9,0,0,0,1.09.18l.53,0h.41a4.51,4.51,0,0,0,1.39-.16,7.46,7.46,0,0,1,1.15-.28A1.09,1.09,0,0,0,327.9,466.19Z"/><path class="cls-1" d="M347.6,457.38a.62.62,0,0,1,.14.43,1,1,0,0,1-.29.78.14.14,0,0,1,0,.11c0,.2-.25.3-.77.29h-.25a.28.28,0,0,0-.21.13c-.07.08-.13.13-.16.13l-.17-.11a.94.94,0,0,0-.45-.16l-.22-.22a2.91,2.91,0,0,1-.76.11,6.07,6.07,0,0,1-.8-.08,5.77,5.77,0,0,0-.73-.08,6.05,6.05,0,0,0-.83.1,7.13,7.13,0,0,1-1.12.11l-1.74-.09a11.16,11.16,0,0,0-2.55.24,1.26,1.26,0,0,1-.48.13c-.21,0-.32.13-.34.3s-.14.29-.37.39a5.86,5.86,0,0,0-.18,1.36,10.79,10.79,0,0,0,.25,1.82,4.72,4.72,0,0,0,.7,1.91c.07.09.58.48,1.52,1.19a6.75,6.75,0,0,0,2,1.07,7.54,7.54,0,0,0,2.44.37,10.62,10.62,0,0,0,1.38-.08l.75-.08h1.15a1.53,1.53,0,0,0,.67-.32,2.14,2.14,0,0,1,1-.38,2.2,2.2,0,0,1,.2.9,2.31,2.31,0,0,1-.51,1.5,1.5,1.5,0,0,1-1.18.64l-.37-.08-1.12,0h-1a20.76,20.76,0,0,1-3.32-.61,10.15,10.15,0,0,1-3.91-1.57,5.57,5.57,0,0,1-1.84-2.48,8.33,8.33,0,0,1-.57-2.94,11.58,11.58,0,0,1,.74-3.88A10.35,10.35,0,0,1,336,455.2a11.53,11.53,0,0,1,2.77-2.25,4.34,4.34,0,0,0,.55-.37,1.11,1.11,0,0,1,.71-.28l.58,0a3.92,3.92,0,0,1,1.35-.43,9.84,9.84,0,0,1,1.58-.16,4.61,4.61,0,0,1,2.38.84c.85.56,1.36,1.72,1.53,3.47a3,3,0,0,0,.15.74,2.13,2.13,0,0,1,.09.33A.53.53,0,0,1,347.6,457.38Zm-7.28-4.07a3.47,3.47,0,0,1-1,.6,7.34,7.34,0,0,0-.86.74c-.28.28-.54.59-.81.91l-.69.87-.46.57a.55.55,0,0,0-.16.34c0,.14.08.23.25.3l.23.09h1.32l6.2-.2c.79,0,1.2-.35,1.2-1.07a4.36,4.36,0,0,0-.42-2,3.43,3.43,0,0,0-2.28-1.36,5.86,5.86,0,0,1-.61-.05l-.57,0A11.86,11.86,0,0,0,340.32,453.31Z"/><path class="cls-1" d="M382.49,466.17a2.14,2.14,0,0,1,.05.5,3.71,3.71,0,0,1-.36,1.27,4.26,4.26,0,0,0-.35,1.09v.19s0,.07,0,.07a1.11,1.11,0,0,1-.37-.17,1.93,1.93,0,0,0-.59-.22,1.54,1.54,0,0,1-.28-.3c-.07.16-.22.21-.43.16a3.48,3.48,0,0,1-.62-.21,5.35,5.35,0,0,0-1.44-.22c-.75-.06-1.54-.09-2.36-.09a37.23,37.23,0,0,0-4.11.21c-1.44.15-2.67.32-3.68.53a8,8,0,0,0-1.89.53,2.15,2.15,0,0,1-.41,0,1,1,0,0,1-.9-.58,2.07,2.07,0,0,1-.32-.77.9.9,0,0,1,.2-.52,4.35,4.35,0,0,1,1-.77l1-.69c.11-.2.44-.32,1-.38s1-.12,1.25-.18c-.05-.61-.07-.95-.07-1a.29.29,0,0,1,0-.18h.12c.09,0,.13.09.14.28a.52.52,0,0,0,.14.4,30.93,30.93,0,0,0,7.06-6.65q2.91-3.76,2.93-6.95v-.07l.08-1.23a4.08,4.08,0,0,0-.16-1.14,4.53,4.53,0,0,0-.49-1.11,6.15,6.15,0,0,0-.79-1,5.25,5.25,0,0,0-1.05-.86,5.83,5.83,0,0,0-1.06-.56,15.28,15.28,0,0,0-3.28-.2,1.33,1.33,0,0,0-.66.21,1.27,1.27,0,0,1-.55.2h-.14c-1.23.63-1.85,1.15-1.87,1.57a2,2,0,0,0-.34.29.76.76,0,0,0-.42-.07c-.22,0-.38.17-.49.52a.34.34,0,0,1-.18,0,.79.79,0,0,1-.63-.45,2.06,2.06,0,0,1-.27-1.1,1.2,1.2,0,0,1,.56-1.14,6.19,6.19,0,0,1,1.87-.52,16.7,16.7,0,0,0,2.71-.71,9.33,9.33,0,0,1,3.14-.47,2.73,2.73,0,0,1,.89.1,1.38,1.38,0,0,0,.51.11H377a4.18,4.18,0,0,1,3.05,1.59,5.82,5.82,0,0,1,1.4,4.08,13.44,13.44,0,0,1-2.8,7.53,46.78,46.78,0,0,1-8.49,8.72.36.36,0,0,1,0,.19.85.85,0,0,1,0,.24,1.36,1.36,0,0,0,0,.2q0,.43.45.33l7.63-.27.87.09a1.63,1.63,0,0,0,.9-.16.74.74,0,0,1,.42-.18l.36,0s.1-.06.18-.18a2.34,2.34,0,0,1,.84-.21A1.91,1.91,0,0,1,382.49,466.17Z"/><path class="cls-1" d="M399.34,469.45a23.64,23.64,0,0,1-3,.31,4.85,4.85,0,0,1-.9-.14c-.41-.08-.81-.15-1.22-.21a2.25,2.25,0,0,1-.71-.18,3.41,3.41,0,0,1-.62-.49l-.76-.72a5.46,5.46,0,0,1-1.22-1.09,8,8,0,0,1-1-1.55,12.25,12.25,0,0,1-.72-2,15.35,15.35,0,0,1-.43-2.37,24.26,24.26,0,0,1-.14-2.76,19,19,0,0,1,.24-2.87,17.32,17.32,0,0,1,.64-2.6c.24-.71.45-1.25.62-1.63l1.33-2.78a5.61,5.61,0,0,1,1.32-1.67c.19-.17.67-.54,1.45-1.12a3.77,3.77,0,0,1,1.52-.67l1.25-.34a20,20,0,0,1,3.44-.42,5.12,5.12,0,0,1,.78.06l.32.06.81,0a5.87,5.87,0,0,1,2.51.58,6.88,6.88,0,0,1,2.22,1.76,9,9,0,0,1,1.54,2.63c.36,1,.63,1.7.8,2.2a9.89,9.89,0,0,1,.43,1.65A10.67,10.67,0,0,1,410,455c0,.48,0,1-.11,1.57s-.17,1.17-.29,1.83-.28,1.39-.46,2.2a7.56,7.56,0,0,1-.67,1.6c-.37.68-.66,1.17-.87,1.48l-.88,1c-.57.73-1,1.31-1.43,1.74a5.53,5.53,0,0,1-1,.92c-.29.18-.65.43-1.07.75a2.74,2.74,0,0,1-.95.54,6.45,6.45,0,0,0-1.05.42,3.67,3.67,0,0,1-.89.34s-.1-.13-.21-.39a4.64,4.64,0,0,1-.73.09Zm-1.29-23.74c-.23,0-.57.1-1,.15a6.39,6.39,0,0,0-1.18.27,6,6,0,0,0-1.18.77,4.33,4.33,0,0,0-1.06,1,10.78,10.78,0,0,0-.77,1.24,5.93,5.93,0,0,0-.56,1.36c-.18.68-.35,1.29-.53,1.81a17.39,17.39,0,0,0-.63,2.51,19.69,19.69,0,0,0-.21,2.7q0,5.37,2.15,7.89a6.32,6.32,0,0,0,4.7,2.54,3.4,3.4,0,0,0,1.34-.35,3.44,3.44,0,0,1,1.14-.35l.42.08.41.07a5.3,5.3,0,0,0,2.59-1.25,8.55,8.55,0,0,0,2.8-4.09,17.3,17.3,0,0,0,1.09-6,12.15,12.15,0,0,0-2.11-7.4,6.28,6.28,0,0,0-5.16-3Z"/><path class="cls-1" d="M425.11,443.29a.71.71,0,0,1-.39.57,2.31,2.31,0,0,0-.55.49,5.65,5.65,0,0,0-.44,1.45c-.18.81-.35,2-.52,3.46s-.25,3.19-.27,5.13l0,4.65,0,1.14.08,1.68a11.12,11.12,0,0,1-.11,1.22,8.81,8.81,0,0,0-.11,1,17.18,17.18,0,0,0,.67,3.84.79.79,0,0,1-.29.37c.38.27.55.5.5.7a2.06,2.06,0,0,0-.08.4v.11a6.67,6.67,0,0,1-1.26.14l-1.39-.08a4.86,4.86,0,0,0-.7.07,1.39,1.39,0,0,0-.11-.33.82.82,0,0,1-.1-.36,5.36,5.36,0,0,1,.11-.53,28.84,28.84,0,0,0,.89-7.17L421,453c0-.82,0-1.72.07-2.7l.06-1.24a2.78,2.78,0,0,0-.16-.61c-.11-.33-.28-.5-.49-.5a1.82,1.82,0,0,0-.49.21,2.24,2.24,0,0,0-.76.7v.29a1.08,1.08,0,0,0-.5.18,1.76,1.76,0,0,1-.62.79,2.79,2.79,0,0,0-.82,1.5l-.48-.15a1.76,1.76,0,0,0-.64.23,1.62,1.62,0,0,1-.68.24l-.18,0a.69.69,0,0,0-.15.21c0,.07-.05.1-.06.1s-.11-.14-.24-.43a1.57,1.57,0,0,1-.2-.68.5.5,0,0,1,.07-.29,2.66,2.66,0,0,0,1.22-1.07c0-.13.06-.28.11-.45s.07-.29.08-.34l0-.11a2.59,2.59,0,0,1,.77-.24,3.24,3.24,0,0,1,.44.08s.05,0,.07,0,.12-.06.26-.17a8.62,8.62,0,0,1,1-.61,4.8,4.8,0,0,0,1.08-.75,21.54,21.54,0,0,1,2.81-3.25c.08,0,.14.08.17.24A3.47,3.47,0,0,1,425,443l.11.29Z"/><path class="cls-1" d="M443.56,456.74a5.2,5.2,0,0,1,2.32.93,3.89,3.89,0,0,0,.89.87,4.14,4.14,0,0,1,1,1.14,4.35,4.35,0,0,1,.41,2.22,7.77,7.77,0,0,1-2.41,5.71,8,8,0,0,1-5.93,2.31l-.36-.08-.34-.07a.27.27,0,0,0-.21.11.3.3,0,0,1-.18.11,7.35,7.35,0,0,1-4.7-1.46,4.43,4.43,0,0,1-1.77-3.62,6.71,6.71,0,0,1,.86-3.65v-.37a8.56,8.56,0,0,1,3.82-3.41,5.12,5.12,0,0,1-1.83-.64,6.23,6.23,0,0,1-1.56-1.29,4.4,4.4,0,0,1-1.17-1.79,8.77,8.77,0,0,1-.11-1.42,7.56,7.56,0,0,1,2.46-5.76,8.28,8.28,0,0,1,5.85-2.23l.72.16a.41.41,0,0,0,.2-.1.74.74,0,0,1,.23-.14l.49,0a5.66,5.66,0,0,1,1.87.37l1.11.38a3.84,3.84,0,0,1,1.45,1,5.28,5.28,0,0,1,1.18,1.6,3.86,3.86,0,0,1,.37,1.7,7.17,7.17,0,0,1-.07,1,8.05,8.05,0,0,1-.18,1,7.72,7.72,0,0,1-.28.89l-.37.85v.36Q445.47,456.2,443.56,456.74Zm-.82,11.66a6,6,0,0,0,2.3-2.53,7.5,7.5,0,0,0,.92-3.35,5.12,5.12,0,0,0-.58-2.37,4.2,4.2,0,0,0-1.57-1.73,3.39,3.39,0,0,0-1.61-.59l-.66.07-.84-.08a3.21,3.21,0,0,0-1.29.21.15.15,0,0,0-.14-.07,1.8,1.8,0,0,0-.55.19,2.35,2.35,0,0,1-.74.2.29.29,0,0,0-.32.31c-.67,0-1.33.55-2,1.67a6.86,6.86,0,0,0-1,3.34,7,7,0,0,0,.41,2.75,4.55,4.55,0,0,0,1.49,1.78,3.77,3.77,0,0,0,2.3.81l.47,0h.26a7.88,7.88,0,0,0,1.57-.12q.72-.12.84-.12c.17-.25.34-.38.52-.38S442.72,468.37,442.74,468.4Zm.09-12.82.15,0c.4,0,1-.45,1.79-1.37a6.21,6.21,0,0,0,1.2-4.1,3.42,3.42,0,0,0-2.07-3.87,3.18,3.18,0,0,1-.76-.36,3.34,3.34,0,0,0-.9-.36,5.05,5.05,0,0,0-1.42-.22,5,5,0,0,0-2.76.53.33.33,0,0,1-.16.09s0,0-.07,0a.13.13,0,0,0-.08,0,6.9,6.9,0,0,0-2.23,2.77,7,7,0,0,0-.72,2.24c0,1.92.21,3.16.68,3.72a7,7,0,0,0,1.69,1.45,4.56,4.56,0,0,0,2.41.61,4.66,4.66,0,0,0,2.24-.39,3.69,3.69,0,0,1,.83-.41h0C442.74,455.85,442.79,455.75,442.83,455.58Z"/><path class="cls-1" d="M140.07,416.12c0,.87-.61,1.31-1.79,1.3l-5.28-.83q-10.6-1.21-14.2-1.93a90.07,90.07,0,0,1-9.23-2.26,44,44,0,0,1-9.06-4.1A36.88,36.88,0,0,1,93.43,403a34,34,0,0,1-5-6.58,30.92,30.92,0,0,1-3.1-7.51,32.7,32.7,0,0,1-1-8.48q0-5.29,3.16-13.25t4.19-9.95A35.41,35.41,0,0,1,97,350.84,40.45,40.45,0,0,1,108.38,343c1.7-.82,2.55-1.45,2.56-1.86a9.64,9.64,0,0,1,3.66-.58,11.72,11.72,0,0,0,4.24-.76,18.33,18.33,0,0,1,6.18-.71,16.76,16.76,0,0,1,3.48.36c1,.24,2.38.47,4.05.71s3,.44,3.86.61a9.21,9.21,0,0,1,2.3.69c.65.3,1,.65,1,1a20.05,20.05,0,0,1-1.09,4q-1.1,3.24-2.82,3.23a3.75,3.75,0,0,1-2-.7,11.94,11.94,0,0,0-6.2-3.63,27.47,27.47,0,0,0-5.35-1.06c-.75,0-1.81.06-3.2.19l-3,.19a7.25,7.25,0,0,0-1.07.15,4.1,4.1,0,0,0-1.68.4c-.61.35-1.17.64-1.68.88a7.1,7.1,0,0,1-1.42.52,5.86,5.86,0,0,1-1.28.15h-.5l-.72.78a3.52,3.52,0,0,0-2.6,1.14H104q-13.39,14-13.51,29.28a28.16,28.16,0,0,0,5.17,16.5,32.37,32.37,0,0,0,14.26,11.49,47.51,47.51,0,0,0,18.54,3.95,36,36,0,0,0,5.54-.64c2.54-.44,3.82-.92,3.82-1.44,1.52.05,2.27,2.76,2.23,8.13Z"/><path class="cls-1" d="M192.53,385a2,2,0,0,1-.69,1.15,4.9,4.9,0,0,0-1,1.3,12.2,12.2,0,0,0-.43,3.06q-.17,2.49-.2,7.35l.15,7.07a1.3,1.3,0,0,1-.47,1,13.38,13.38,0,0,0-.11,1.93,25.64,25.64,0,0,0,.57,4.93l.54,2.78-.12,2.56.09,2.25c-2.46,2.5-4.28,3.74-5.46,3.74a3,3,0,0,1-1-.38,2.88,2.88,0,0,0-1.32-.37h-.31a9.85,9.85,0,0,1-.38-2.62,10.88,10.88,0,0,1,1.2-4.91c.37-.49.66-.87.84-1.15a9,9,0,0,0,.31-3.13c0-2-.19-3-.59-3a2.79,2.79,0,0,0-.64.2,2.88,2.88,0,0,1-1.14.2h-.41a1.79,1.79,0,0,0-.77,1.09c-.4,0-2.63.74-6.67,2.31a17,17,0,0,1-11.07.16,10.32,10.32,0,0,1-4-2.44,15.87,15.87,0,0,1-2.09-2.39,7.64,7.64,0,0,1-.46-3.41l.11-1.31v-.42q0-5.24,8-10.94t14.81-6.85a21.24,21.24,0,0,0,2.84-.64,3.8,3.8,0,0,0,1.71-1.11c.46-.52.7-1.73.71-3.61q.07-9.31-9.45-12.74a4.94,4.94,0,0,1-.84-.42,1.91,1.91,0,0,0-.94-.32,64.75,64.75,0,0,0-8.23.36,5.31,5.31,0,0,1-4.08,2.12c-1.11,0-1.67-.42-1.66-1.22q0-.06.75-2.22c.5-1.45,1.68-2.16,3.54-2.15,2.15-1.17,6-1.74,11.7-1.7a12.13,12.13,0,0,1,10.52,5.52q3.72,5.47,3.65,15.58v.73a2.38,2.38,0,0,0,1.41,1c.68.21,1,.53,1,.95Zm-10.14,18.52c2.16-2.95,3.24-5.6,3.26-7.94a12.31,12.31,0,0,0-1-4.67,4,4,0,0,0-4.12-2.54,14.84,14.84,0,0,0-9.77,3h-1.27q-7.86,4.39-7.89,9.37a7.08,7.08,0,0,0,3.18,5.91,12.24,12.24,0,0,0,7.48,2.44,18.41,18.41,0,0,0,4.27-1,14.37,14.37,0,0,0,5.87-3.68Z"/><path class="cls-1" d="M256.11,318.87a2.44,2.44,0,0,1,1.77,1.4,4.52,4.52,0,0,1,.59,2,2,2,0,0,1-1.64,1.93v.21c0,1.12-.75,1.79-2.25,2a3.11,3.11,0,0,0-2.58-1.11c-.27,0-.51.26-.71.78a11,11,0,0,0-1.78-.22c-1.56,0-2.39.36-2.5,1.13h-.91c-2.24,0-3.63.41-4.18,1.28-.23.18-1,.62-2.24,1.35a17.35,17.35,0,0,0-3.06,2.15,20.31,20.31,0,0,0-3,3.88,38.81,38.81,0,0,0-3.48,7.07,36.26,36.26,0,0,0-2.11,7.1q-.45,2.85-1.31,6.57a34.34,34.34,0,0,0-.87,4.34c0,3.14.85,4.71,2.61,4.73a2.58,2.58,0,0,0,.81-.1,1.35,1.35,0,0,0,1.11.69A2.27,2.27,0,0,0,231,366a2.73,2.73,0,0,1,1.22,0,10.21,10.21,0,0,0,1.65.14,20.57,20.57,0,0,0,4.09-.63,21.89,21.89,0,0,1,4.65-.62,10.87,10.87,0,0,1,1.32.19c.68.13,1,.35,1.11.64s.18.95.34,2h-.1c-.37,0-1,.57-1.89,1.71a3.51,3.51,0,0,0-.7-.74,1.29,1.29,0,0,1-1.38.83c-.48,0-1.58-.1-3.33-.28s-3.25-.29-4.54-.3c-.41,0-1,0-1.65.1s-1.2.09-1.5.09a11.68,11.68,0,0,1-1.52-.22,1.9,1.9,0,0,1-.77.2,2.64,2.64,0,0,1-.81-.21c0,.28-.14.42-.41.41l-.2-.1q-.86,0-.94,11.67l-.05,5.81q0,5.17.61,12c.42,4.58.7,7.1.83,7.58a3.83,3.83,0,0,0,.9,1.49,3.51,3.51,0,0,0-.1,1,6.88,6.88,0,0,0,.51,2.33,7.11,7.11,0,0,1,.52,2.18v.31c-1.06.69-2.18,1.47-3.37,2.34a2.83,2.83,0,0,1-2.4,1.5h-.2c-.27-.32-.7-.85-1.29-1.58s-1.11-1.11-1.59-1.12l-.4.11a6.13,6.13,0,0,1-.65-2.05c0-.21.3-.65.9-1.33a5,5,0,0,0,.91-3.27l-.09-1.2.23-4.87q.24-5.44.29-11t-.33-11.6q-.36-6.11-.35-7.41l.11-2.09c0-.39-.42-.58-1.26-.59a4,4,0,0,0-.66.1,4.11,4.11,0,0,1-.77.1,1.54,1.54,0,0,1-.66-.11.66.66,0,0,0-.41.68c-.2-.46-.43-.69-.7-.69l-1.07.1q-.1,0-.51-.42v-.11c0-.49.37-1,1.12-1.45a10.59,10.59,0,0,0,1.59-1.2h1A1.73,1.73,0,0,0,219,365h.41a1.55,1.55,0,0,0,1.32-.69c.35-.47.7-2,1.08-4.47s.61-4.61.73-6.28A52.16,52.16,0,0,1,227,339.43a50.13,50.13,0,0,1,5.32-8.63,29.25,29.25,0,0,1,6-5.38c2.41-1.67,4.06-2.51,4.94-2.5h.56a6.24,6.24,0,0,1,3.92-1.65l1.38-1Q255.61,319.66,256.11,318.87Z"/><path class="cls-1" d="M295.73,380.57a1.67,1.67,0,0,1,.4,1.21,2.9,2.9,0,0,1-.83,2.24c.07,0,.1.14.1.32,0,.56-.74.83-2.19.82h-.71a.84.84,0,0,0-.62.37c-.2.24-.35.36-.46.36a3,3,0,0,1-.48-.32,2.82,2.82,0,0,0-1.29-.43l-.6-.63a8.07,8.07,0,0,1-2.19.3,16,16,0,0,1-2.26-.23,16.87,16.87,0,0,0-2.1-.22,18.78,18.78,0,0,0-2.37.3,18.42,18.42,0,0,1-3.17.29l-5-.25a33.25,33.25,0,0,0-7.27.69,3.86,3.86,0,0,1-1.35.38c-.59.08-.91.36-1,.83s-.4.84-1.05,1.12a17,17,0,0,0-.53,3.87,32,32,0,0,0,.72,5.19,13.38,13.38,0,0,0,2,5.46q.3.36,4.34,3.38a19.42,19.42,0,0,0,5.59,3.05,22,22,0,0,0,7,1.07,34.15,34.15,0,0,0,3.91-.24l2.14-.24,3.3,0a4.81,4.81,0,0,0,1.91-.93,6.29,6.29,0,0,1,2.82-1.08,7,7,0,0,1,.6,2.57,6.78,6.78,0,0,1-1.48,4.28,4.19,4.19,0,0,1-3.34,1.81l-1.07-.21-3.2.08-2.74,0A63.44,63.44,0,0,1,273.8,414q-7.55-1.72-11.14-4.48a15.8,15.8,0,0,1-5.23-7.08,22.94,22.94,0,0,1-1.62-8.36,32.6,32.6,0,0,1,2.11-11.06,29.12,29.12,0,0,1,4.69-8.71,34,34,0,0,1,7.91-6.41,12,12,0,0,0,1.56-1.06,3.26,3.26,0,0,1,2-.8l1.68.12a10.41,10.41,0,0,1,3.84-1.21,27.24,27.24,0,0,1,4.5-.46,12.75,12.75,0,0,1,6.76,2.4c2.45,1.59,3.9,4.88,4.38,9.88a10.2,10.2,0,0,0,.41,2.12,5.81,5.81,0,0,1,.28.92A1.67,1.67,0,0,1,295.73,380.57ZM275,369a10.26,10.26,0,0,1-2.91,1.7,21.11,21.11,0,0,0-2.45,2.13q-1.19,1.2-2.31,2.58c-.75.92-1.41,1.74-2,2.47s-1,1.28-1.31,1.64a1.66,1.66,0,0,0-.46,1c0,.38.23.66.7.84l.66.27,3.76,0,17.68-.55q3.4,0,3.42-3.07a12.25,12.25,0,0,0-1.2-5.69c-.82-1.63-3-2.92-6.5-3.89a17.08,17.08,0,0,1-1.72-.12c-.75-.07-1.29-.11-1.63-.12A31.77,31.77,0,0,0,275,369Z"/><path class="cls-1" d="M353.45,343.44l16.84-.3,4.57.24a22.76,22.76,0,0,0,3.86-.55,23.19,23.19,0,0,1,4.36-.55q3.51,0,3.48,3.33a2.77,2.77,0,0,1-.29,1.25,3.34,3.34,0,0,1-.82,1,1.93,1.93,0,0,1-1,.52l-1.58.09c-.71,0-1.34.05-1.88,0-.14,0-.53-.06-1.17-.16a87.36,87.36,0,0,0-17.39-1.75c-1.39,0-3.19,0-5.41.09a17,17,0,0,0-3.82.34,8.65,8.65,0,0,0-1.1.65,50.62,50.62,0,0,0-1.6,10.51v.63a42.31,42.31,0,0,0-.71,6.65,13.42,13.42,0,0,0,.28,3.14l.6,2.31a3.57,3.57,0,0,0,.85,1.78,2.2,2.2,0,0,0,1.67.75l1.23-.1a1.06,1.06,0,0,1,1,.48c.17.32,1.15.48,2.95.49a27.73,27.73,0,0,0,3.33-.16,10.12,10.12,0,0,1,2.45,0,10.48,10.48,0,0,0,1.24.14,3.75,3.75,0,0,0,2.4-.72l2.64.28c.61-.31,2.53-.57,5.76-.8a3.48,3.48,0,0,1,.84,2.37,4.21,4.21,0,0,1-1.06,2.69q-1.05,1.28-6.9,1.23c-1.63,0-4.31-.21-8-.58s-6.68-.57-8.85-.59c-1.22.73-1.84,1.37-1.84,1.93a.41.41,0,0,0,.1.31A41.55,41.55,0,0,0,349,391.57l.34,8.91c0,1.32-.18,2.07-.52,2.24a20,20,0,0,1,1.11,4.23,25.55,25.55,0,0,1,.5,4.37,3.46,3.46,0,0,1-.82,2.46,2.25,2.25,0,0,1-1.37.83,1.39,1.39,0,0,1-1-.64,3.91,3.91,0,0,1-1.77,1.14c-.17-.07-.68-.21-1.51-.43A2.46,2.46,0,0,1,341.9,412a7.53,7.53,0,0,1,.27-1.56l.26-.89-.09-1.73a4.07,4.07,0,0,1,.36-1.2,5.6,5.6,0,0,0,.42-1.57q.54-5.34.6-12.25l-.05-8.11.58-23.93a73.49,73.49,0,0,0-.34-9.5,27.58,27.58,0,0,1-.38-3.7,13.63,13.63,0,0,1,.79-4.39,28.92,28.92,0,0,1,4.27-.91l.31-.68.7.48.72-.21A6.36,6.36,0,0,1,353.45,343.44Z"/><path class="cls-1" d="M396.6,382.45q8-15.51,28.6-15.37a41.55,41.55,0,0,1,5.71.41,21,21,0,0,1,4.64,1.24A16.24,16.24,0,0,1,439.5,371a21.36,21.36,0,0,1,3.5,3.54,37.47,37.47,0,0,1,3.34,5.05q.9,1.59.87,6.82a28.87,28.87,0,0,1-8,20.39,25.71,25.71,0,0,1-19.59,8.3h-.41c-1.59-.36-2.47-.55-2.64-.55a.41.41,0,0,0-.3.11c-.31.48-1.34.72-3.1.71a22.08,22.08,0,0,1-8.5-2.19,18.81,18.81,0,0,1-8-6.58,15.75,15.75,0,0,1-3.06-9.3c0-1.25.07-2.5.2-3.74a29.7,29.7,0,0,1,.59-3.56,24.75,24.75,0,0,1,1-3.22l1.24-3Zm44.68,8.86V390q.06-8.7-5.21-14.06t-14-5.42a13.91,13.91,0,0,0-3.61.42,16.61,16.61,0,0,0-1.94.56,3.92,3.92,0,0,0-.89,1.09,4.9,4.9,0,0,1-.92,1.15,1.49,1.49,0,0,1-.79.18l-2.59-.33c-.37,0-.63.31-.77.93-2.57.2-5,2.15-7.3,5.88A22.18,22.18,0,0,0,399.78,392c0,.88.15,2.72.47,5.54a11.8,11.8,0,0,0,3.1,7,24.22,24.22,0,0,0,6.39,4.76,14.26,14.26,0,0,0,6.11,2,4.29,4.29,0,0,0,1.22-.15l.45-.15,2.09,0q6.79,0,9.26-2.09a1.1,1.1,0,0,1,.3-.21,2.55,2.55,0,0,1,1,.32,34.78,34.78,0,0,0,8.38-10.4Q441.27,393.21,441.28,391.31Z"/><path class="cls-1" d="M492.43,374.89a4.61,4.61,0,0,1-.72,1.75,8.53,8.53,0,0,0-1,2.3,4.82,4.82,0,0,1-1.33,2.16h-1.27a9.05,9.05,0,0,0-3.9-1.65,7.76,7.76,0,0,0-3,1.08,11.84,11.84,0,0,0-4,3.87,20.38,20.38,0,0,0-2.52,4.41,8.82,8.82,0,0,1-1.65,3.75v1.73a8.79,8.79,0,0,0-.84,3.74,15.08,15.08,0,0,1,.14,1.81,4.51,4.51,0,0,1-.11,1.09,1.88,1.88,0,0,0-.62,1.26,35.09,35.09,0,0,0,.5,4.61,12.24,12.24,0,0,0,1.72,5v.47c0,1.57-.65,2.35-1.9,2.34l-1,1c-.85.06-1.76.09-2.74.09a9.66,9.66,0,0,1-3.3-.55V415a15.3,15.3,0,0,1,.87-4.13,15.2,15.2,0,0,0,.86-4.13l.4-12.3a187.28,187.28,0,0,0-1.35-25.3c-.1-.77-.14-1.21-.14-1.31a3.28,3.28,0,0,1,1.87-3,6.89,6.89,0,0,1,3.23-1,4.43,4.43,0,0,1,2.29.65c.06.14.19.38.37.73a2.31,2.31,0,0,1,.28.68v.63a15.51,15.51,0,0,1-.91,3.5,22.59,22.59,0,0,0-.94,6.91l.06,6.44v.94c0,.53.45.9,1.36,1.11a23.3,23.3,0,0,1,5.16-7.63,17.58,17.58,0,0,1,7.37-4,28.74,28.74,0,0,1,5.54-1.22c.88.64,1.32,1.22,1.31,1.74Z"/><path class="cls-1" d="M541.68,382.31a1.61,1.61,0,0,1,.39,1.2,2.88,2.88,0,0,1-.82,2.25c.06,0,.1.14.1.31,0,.56-.74.83-2.19.83h-.71a.85.85,0,0,0-.62.36c-.2.25-.35.37-.46.37a3,3,0,0,1-.48-.32,2.7,2.7,0,0,0-1.29-.43l-.6-.63a8.48,8.48,0,0,1-2.19.3,17.6,17.6,0,0,1-2.26-.23,17.05,17.05,0,0,0-2.1-.22,16.27,16.27,0,0,0-2.37.29,18.53,18.53,0,0,1-3.17.3l-5-.25a33.22,33.22,0,0,0-7.27.68,3.83,3.83,0,0,1-1.35.39c-.59.08-.91.36-1,.83s-.4.84-1,1.11a16.47,16.47,0,0,0-.53,3.87,32,32,0,0,0,.72,5.19,13.26,13.26,0,0,0,2,5.46c.2.25,1.64,1.38,4.34,3.39a19.66,19.66,0,0,0,5.59,3,22,22,0,0,0,7,1.07,36.61,36.61,0,0,0,3.91-.24l2.13-.25,3.31,0a4.81,4.81,0,0,0,1.91-.93,6.25,6.25,0,0,1,2.82-1.08,6.54,6.54,0,0,1-.88,6.85,4.19,4.19,0,0,1-3.34,1.81l-1.07-.22-3.2.09-2.74,0a62.63,62.63,0,0,1-9.49-1.75q-7.54-1.72-11.14-4.47a15.8,15.8,0,0,1-5.23-7.08,23,23,0,0,1-1.62-8.36,32.6,32.6,0,0,1,2.11-11.06,29,29,0,0,1,4.69-8.71,33.52,33.52,0,0,1,7.91-6.41A12.31,12.31,0,0,0,518,368.6a3.3,3.3,0,0,1,2-.79l1.68.11a10.64,10.64,0,0,1,3.84-1.2,27.43,27.43,0,0,1,4.5-.47,12.85,12.85,0,0,1,6.76,2.41c2.45,1.59,3.9,4.88,4.38,9.87a10.31,10.31,0,0,0,.41,2.13,5.22,5.22,0,0,1,.27.91A1.83,1.83,0,0,1,541.68,382.31Zm-20.74-11.62A10.18,10.18,0,0,1,518,372.4a19.36,19.36,0,0,0-2.45,2.13c-.79.8-1.56,1.66-2.31,2.57s-1.41,1.75-2,2.48-1,1.27-1.31,1.64a1.56,1.56,0,0,0-.46,1c0,.39.23.67.7.85l.66.26,3.76,0,17.68-.56q3.4,0,3.42-3.06a12.23,12.23,0,0,0-1.2-5.69q-1.23-2.44-6.5-3.9c-.41,0-1,0-1.73-.11s-1.28-.12-1.62-.12A32.45,32.45,0,0,0,520.94,370.69Z"/><path class="cls-1" d="M579.1,389.22A11.58,11.58,0,0,1,583,398a19.88,19.88,0,0,1-4.08,12,15.55,15.55,0,0,1-10.33,6.4c-.91,0-2.2,0-3.86.18a10.23,10.23,0,0,1-4,.76,7.19,7.19,0,0,1-4.31-1.19q-1.58-1.16-1.54-4.56a8.15,8.15,0,0,1,.11-1.52h.4a3.67,3.67,0,0,1,1.93.57,3.4,3.4,0,0,0,1.16.55l.31-.1c1.14,1.16,3.09,1.75,5.83,1.77a17.21,17.21,0,0,0,7.12-1.39,9.36,9.36,0,0,0,4.78-4.76,14.58,14.58,0,0,0,1.59-6,8.3,8.3,0,0,0-2.82-6.47q-2.85-2.58-12.89-5.83a4.25,4.25,0,0,1-2-.69l-2.32-2.11a7.77,7.77,0,0,1-2.42-3.27l-.5-1.62q.06-8.28,4.73-11.72t16-3.37l2.85.18a4.35,4.35,0,0,0,1-.26,3.22,3.22,0,0,1,.8,2.36,9.61,9.61,0,0,1-.58,3.27c-.38,1-.78,1.63-1.18,1.8a4,4,0,0,0-1.06-1.42h-.1a1,1,0,0,0-.46.18,2.38,2.38,0,0,1-.46.23,7.54,7.54,0,0,0-5.92-2.82q-6.85,0-9.06,2.64a9.32,9.32,0,0,0-2.23,6q0,4.77,7.32,6.6a63,63,0,0,1,8.77,2.85C578,388.26,579.1,388.91,579.1,389.22Z"/><path class="cls-1" d="M624.88,370.22c0,.21.23.39.6.55a4.22,4.22,0,0,0,.61.24h.56a5.34,5.34,0,0,1,2.89.8,2.16,2.16,0,0,1,1.2,1.78c0,.69-.48,1.36-1.43,2l-.61-.68a3.3,3.3,0,0,1-2.45,1.6l-.3-.64-.61.21a10.63,10.63,0,0,0-4.56-1.08l-4.78.18c-.68,0-1.69-.08-3-.24a132.56,132.56,0,0,0-1.44,16c0,1.43.06,3.1.2,5a17.85,17.85,0,0,0,.85,4.68c.43,1.21.87,2.32,1.3,3.34a9.56,9.56,0,0,0,2.21,3,11.29,11.29,0,0,0,2.91,2.14,7.17,7.17,0,0,1,2.32,1.77c.66.76,2.37,1.15,5.15,1.17h1q1,.8,1,1.32a4,4,0,0,1-.75,1.77c-.5.81-.89,1.48-1.18,2A7.67,7.67,0,0,1,625,419h-.21a.47.47,0,0,1-.4-.32,10.79,10.79,0,0,1-3.15-.44c0,.07,0,.1-.1.1a1.2,1.2,0,0,1-.48-.29,4.25,4.25,0,0,0-.73-.45,3.17,3.17,0,0,0-1.47-1.32,14.53,14.53,0,0,1-4.22-2.49,23.35,23.35,0,0,1-4-4.64,15.41,15.41,0,0,1-2.58-5.53,53.91,53.91,0,0,1-.82-6.06q-.32-3.54-.28-7.57a128.82,128.82,0,0,1,1.07-15l-1.06-.37-.31.68h-.71l-.2-.68q-11.77-.56-11.77-2.41a1.56,1.56,0,0,1,.75-1.21q.74-.54,4.29-.51h2l2.14-.51a7.2,7.2,0,0,0,2.29-.92,7.87,7.87,0,0,0,2-1.66c.56-.66,1.1-3,1.6-7a63.57,63.57,0,0,0,.51-7.79l0-2.15a8.29,8.29,0,0,1,.73-2.82,8.19,8.19,0,0,1,1.77-2.87c.7-.69,1.2-1,1.51-1a6.56,6.56,0,0,1,2.13.41,4.9,4.9,0,0,1,1.26.56,2.35,2.35,0,0,1,.35.81,3,3,0,0,0,.5,1v.21c0,.14-.13.24-.38.31a1.41,1.41,0,0,0-.49.2l-.18.21q-.07.1-.75,2.82t-1.16,5.44c-.32,1.82-.57,3.59-.75,5.34s-.27,3.47-.29,5.18c0,2.44.08,3.82.28,4.14a1,1,0,0,0,.86.47,5.29,5.29,0,0,0,1.3-.33,6,6,0,0,1,1.9-.32,2.07,2.07,0,0,1,.76.11l.61,1.31a2.51,2.51,0,0,0,.81.11,7.12,7.12,0,0,0,2.16-.69A12.43,12.43,0,0,1,624.88,370.22Z"/><path class="cls-1" d="M705,290.82H674.93a2.08,2.08,0,0,0,.07-.5v-35c12.19.36,28.08,1.7,19.38-51.17-4.54-27.54-10.36-50.89-22.7-50.81s-19.52,23.12-22,51.13c-4.55,51.89,9.25,51,21.29,50.83v35.06a2.08,2.08,0,0,0,.07.5H600.83a1.81,1.81,0,0,0,0-.4V259.81c9.84.23,21.65-.32,14.8-37.4-3.72-20.09-8.5-37.14-18.66-37.07s-16.09,16.89-18.13,37.33c-3.84,38.51,8,37.23,18,37.09v30.66a2.71,2.71,0,0,0,0,.4H519.5c.51-32.25.28-39.9.24-44.93a6.66,6.66,0,0,0-2.43-5.11l-36.08-29.46a6.25,6.25,0,0,0-7.69-.19l-36.31,26.72a6.68,6.68,0,0,0-2.68,5.38l.07,47.59h-47.2c1.37-71.72.7-84.08.81-94.92a4.33,4.33,0,0,0-1.56-3.4l-81.58-67.12a4.06,4.06,0,0,0-5-.18l-43.89,31.32a4.15,4.15,0,0,1-6.53-3.45l0-2.59a4.21,4.21,0,0,0-4.11-4.21l-10.9-.12a4.22,4.22,0,0,0-4.21,4.24l-.23,21.42a9,9,0,0,1-3.63,7.14l-9.56,7a4.32,4.32,0,0,0-1.76,3.41l-2.09,98.83a23.28,23.28,0,0,0-.07,2.65H119V262.24c10.67.15,22.1-1,18.09-44.34-2.26-24.43-8.86-44.52-20.17-44.6s-16.66,20.29-20.8,44.31c-8.23,47.63,7.59,44.81,18.88,44.6v28.61H42.5V255.24c12.15.19,26.39,1.88,21.81-54.31-2.44-29.92-9.62-54.52-22-54.61s-18.18,24.87-22.72,54.3C11,256.35,26.38,255.69,38.5,255.29v35.53H8a1.5,1.5,0,0,0,0,3H705a1.5,1.5,0,0,0,0-3ZM488.2,271.88a4.85,4.85,0,0,1-4.8,4.89l-13.77-.1a4.84,4.84,0,0,1-4.74-4.95L465,261h0c.35-7.92,5.48-14.2,11.73-14.16s11.3,6.4,11.53,14.32h0Z"/></svg>